<svg xmlns="http://www.w3.org/2000/svg" xmlns:xlink="http://www.w3.org/1999/xlink" width="110.109mm" height="43.942mm" viewBox="4010.5 3404.5 433.5 173"><title></title><style type="text/css">
*[layerid="1"] {stroke:#FF0000;fill:#FF0000;}
*[layerid="2"] {stroke:#0000FF;fill:#0000FF;}
*[layerid="3"] {stroke:#FFCC00;fill:#FFCC00;}
*[layerid="4"] {stroke:#66CC33;fill:#66CC33;}
*[layerid="5"] {stroke:#808080;fill:#808080;}
*[layerid="6"] {stroke:#800000;fill:#800000;}
*[layerid="7"] {stroke:#800080;fill:#800080;stroke-opacity:0.7;fill-opacity:0.7;}
*[layerid="8"] {stroke:#AA00FF;fill:#AA00FF;stroke-opacity:0.7;fill-opacity:0.7;}
*[layerid="9"] {stroke:#6464FF;fill:#6464FF;}
*[layerid="10"] {stroke:#FF00FF;fill:#FF00FF;}
*[layerid="11"] {stroke:#C0C0C0;fill:#C0C0C0;}
*[layerid="12"] {stroke:#FFFFFF;fill:#FFFFFF;}
*[layerid="13"] {stroke:#33CC99;fill:#33CC99;}
*[layerid="14"] {stroke:#5555FF;fill:#5555FF;}
*[layerid="15"] {stroke:#F022F0;fill:#F022F0;}
*[layerid="19"] {stroke:#66CCFF;fill:#66CCFF;}
*[layerid="21"] {stroke:#999966;fill:#999966;}
*[layerid="22"] {stroke:#008000;fill:#008000;}
*[layerid="23"] {stroke:#00FF00;fill:#00FF00;}
*[layerid="24"] {stroke:#BC8E00;fill:#BC8E00;}
*[layerid="25"] {stroke:#70DBFA;fill:#70DBFA;}
*[layerid="26"] {stroke:#00CC66;fill:#00CC66;}
*[layerid="27"] {stroke:#9966FF;fill:#9966FF;}
*[layerid="28"] {stroke:#800080;fill:#800080;}
*[layerid="29"] {stroke:#008080;fill:#008080;}
*[layerid="30"] {stroke:#15935F;fill:#15935F;}
*[layerid="31"] {stroke:#000080;fill:#000080;}
*[layerid="32"] {stroke:#00B400;fill:#00B400;}
*[layerid="33"] {stroke:#2E4756;fill:#2E4756;}
*[layerid="34"] {stroke:#99842F;fill:#99842F;}
*[layerid="35"] {stroke:#FFFFAA;fill:#FFFFAA;}
*[layerid="36"] {stroke:#99842F;fill:#99842F;}
*[layerid="37"] {stroke:#2E4756;fill:#2E4756;}
*[layerid="38"] {stroke:#3535FF;fill:#3535FF;}
*[layerid="39"] {stroke:#8000BC;fill:#8000BC;}
*[layerid="40"] {stroke:#43AE5F;fill:#43AE5F;}
*[layerid="41"] {stroke:#C3ECCE;fill:#C3ECCE;}
*[layerid="42"] {stroke:#728978;fill:#728978;}
*[layerid="43"] {stroke:#39503F;fill:#39503F;}
*[layerid="44"] {stroke:#0C715D;fill:#0C715D;}
*[layerid="45"] {stroke:#5A8A80;fill:#5A8A80;}
*[layerid="46"] {stroke:#2B937E;fill:#2B937E;}
*[layerid="47"] {stroke:#23999D;fill:#23999D;}
*[layerid="48"] {stroke:#45B4E3;fill:#45B4E3;}
*[layerid="49"] {stroke:#215DA1;fill:#215DA1;}
*[layerid="50"] {stroke:#4564D7;fill:#4564D7;}
*[layerid="51"] {stroke:#6969E9;fill:#6969E9;}
*[layerid="52"] {stroke:#9069E9;fill:#9069E9;}
*[layerid="99"] {stroke:#00CCCC;fill:#00CCCC;}
*[layerid="100"] {stroke:#CC9999;fill:#CC9999;}
*[layerid="101"] {stroke:#66FFCC;fill:#66FFCC;}
*[layerid="Hole"] {stroke:#222222;fill:#222222;}
*[layerid="DRCError"] {stroke:#FAD609;fill:#FAD609;}
*[fill="none"] {fill: none;}
*[stroke="none"] {stroke: none;}
path, polyline, polygon, line {stroke-linecap:round;}
g[c_partid="part_pad"][layerid="1"] ellipse:not([c_etype="pad_outer"]) {fill:#FF0000;}
g[c_partid="part_pad"][layerid="1"] polygon:not([c_etype="pad_outer"]) {fill:#FF0000;}
g[c_partid="part_pad"][layerid="1"] polyline:not([c_etype="pad_outer"]) {stroke:#FF0000;}
g[c_partid="part_pad"][layerid="2"] ellipse:not([c_etype="pad_outer"]) {fill:#0000FF;}
g[c_partid="part_pad"][layerid="2"] polygon:not([c_etype="pad_outer"]) {fill:#0000FF;}
g[c_partid="part_pad"][layerid="2"] polyline:not([c_etype="pad_outer"]) {stroke:#0000FF;}
g[c_partid="part_pad"][layerid="11"] ellipse:not([c_etype="pad_outer"]) {fill:#C0C0C0;}
g[c_partid="part_pad"][layerid="11"] polygon:not([c_etype="pad_outer"]) {fill:#C0C0C0;}
g[c_partid="part_pad"][layerid="11"] polyline:not([c_etype="pad_outer"]) {stroke:#C0C0C0;}
g[c_partid="part_pad"][layerid="11"] circle {fill:#222222;}
g[c_partid="part_pad"][layerid="11"] > polyline:nth-of-type(2) {stroke:#222222;}
g[c_partid="part_pad"][layerid="11"][c_shape="ELLIPSE"]  polyline:nth-last-of-type(1) {stroke:#222222;}
g[c_partid="part_pad"][layerid="11"][c_shape="RECT"]  polyline:nth-last-of-type(1) {stroke:#222222;}
g[c_partid="part_pad"][layerid="11"][c_shape="POLYGON"]  polyline:nth-last-of-type(1) {stroke:#222222;}
g[c_partid="part_via"] > * + circle, #gCurParts g[c_partid="part_via"] > * + circle {fill:#222222;}
g[c_partid="part_pad"] > polygon[c_etype="pad_outer"], #gCurParts g[c_partid="part_pad"] > polygon[c_etype="pad_outer"] {stroke-linejoin: miter;stroke-miterlimit: 100;}
g[c_partid="part_hole"] > circle {fill: #222222;}path, polyline, polygon {stroke-linejoin:round;}
rect, circle, ellipse, polyline, line, polygon, path {shape-rendering:crispEdges;}
</style>
<rect x="4010.5" y="3404.5" width="433.5" height="173" fill="#000000" stroke="none"/><g transform="matrix(-1, 0, 0, 1, 8454.5, 0)"><g c_partid="part_pad" c_etype="pinpart" c_origin="4030.861,3434.339" layerid="11" number="1" net="GND" plated ="Y"  id="gge2301" locked="0" c_rotation="0" c_width="16.5" c_height="16.5" title="GND" c_shape="ELLIPSE" pasteexpansion="0" solderexpansion="1"><ellipse cx="4030.861" cy="3434.339" rx="9.25" ry="9.25" layerid="8" stroke-width="0" c_etype="pad_outer"/></g><g c_partid="part_pad" c_etype="pinpart" c_origin="4030.861,3554.969" layerid="11" number="1" net="GND" plated ="Y"  id="gge3805" locked="0" c_rotation="0" c_width="16.5" c_height="16.5" title="GND" c_shape="ELLIPSE" pasteexpansion="0" solderexpansion="1"><ellipse cx="4030.861" cy="3554.969" rx="9.25" ry="9.25" layerid="8" stroke-width="0" c_etype="pad_outer"/></g><g c_partid="part_pad" c_etype="pinpart" c_origin="4423.341,3554.969" layerid="11" number="1" net="GND" plated ="Y"  id="gge3821" locked="0" c_rotation="0" c_width="16.5" c_height="16.5" title="GND" c_shape="ELLIPSE" pasteexpansion="0" solderexpansion="1"><ellipse cx="4423.341" cy="3554.969" rx="9.25" ry="9.25" layerid="8" stroke-width="0" c_etype="pad_outer"/></g><g c_partid="part_pad" c_etype="pinpart" c_origin="4423.341,3434.339" layerid="11" number="1" net="GND" plated ="Y"  id="gge3822" locked="0" c_rotation="0" c_width="16.5" c_height="16.5" title="GND" c_shape="ELLIPSE" pasteexpansion="0" solderexpansion="1"><ellipse cx="4423.341" cy="3434.339" rx="9.25" ry="9.25" layerid="8" stroke-width="0" c_etype="pad_outer"/></g><g c_partid="part_pad" c_etype="pinpart" c_origin="4041.861,3523.839" layerid="11" number="6" net="RPI-GND" plated ="Y"  id="gge9" locked="0" c_rotation="270" c_width="7" c_height="7" title="RPI-GND" c_shape="ELLIPSE" pasteexpansion="0" solderexpansion="0.4"><ellipse cx="4041.861" cy="3523.839" rx="3.9" ry="3.9" layerid="8" stroke-width="0" c_etype="pad_outer"/></g><g c_partid="part_pad" c_etype="pinpart" c_origin="4041.861,3513.839" layerid="11" number="5" net="U4_1" plated ="Y"  id="gge14" locked="0" c_rotation="270" c_width="7" c_height="7" title="U4_1" c_shape="ELLIPSE" pasteexpansion="0" solderexpansion="0.4"><ellipse cx="4041.861" cy="3513.839" rx="3.9" ry="3.9" layerid="8" stroke-width="0" c_etype="pad_outer"/></g><g c_partid="part_pad" c_etype="pinpart" c_origin="4041.861,3503.839" layerid="11" number="4" net="U3_1" plated ="Y"  id="gge19" locked="0" c_rotation="270" c_width="7" c_height="7" title="U3_1" c_shape="ELLIPSE" pasteexpansion="0" solderexpansion="0.4"><ellipse cx="4041.861" cy="3503.839" rx="3.9" ry="3.9" layerid="8" stroke-width="0" c_etype="pad_outer"/></g><g c_partid="part_pad" c_etype="pinpart" c_origin="4041.861,3493.839" layerid="11" number="3" net="U2_1" plated ="Y"  id="gge24" locked="0" c_rotation="270" c_width="7" c_height="7" title="U2_1" c_shape="ELLIPSE" pasteexpansion="0" solderexpansion="0.4"><ellipse cx="4041.861" cy="3493.839" rx="3.9" ry="3.9" layerid="8" stroke-width="0" c_etype="pad_outer"/></g><g c_partid="part_pad" c_etype="pinpart" c_origin="4041.861,3483.839" layerid="11" number="2" net="U1_1" plated ="Y"  id="gge29" locked="0" c_rotation="270" c_width="7" c_height="7" title="U1_1" c_shape="ELLIPSE" pasteexpansion="0" solderexpansion="0.4"><ellipse cx="4041.861" cy="3483.839" rx="3.9" ry="3.9" layerid="8" stroke-width="0" c_etype="pad_outer"/></g><g c_partid="part_pad" c_etype="pinpart" c_origin="4041.861,3473.839" layerid="11" number="1" net="+5V-SNC" plated ="Y"  id="gge34" locked="0" c_rotation="270" c_width="7" c_height="7" title="+5V-SNC" c_shape="RECT" pasteexpansion="0" solderexpansion="0.4"><polygon points="4045.3608 3470.3391 4045.3608 3477.3391 4038.3608 3477.3391 4038.3608 3470.3391" layerid="8" stroke-width="0.8" c_etype="pad_outer"/></g><g c_partid="part_pad" c_etype="pinpart" c_origin="4071.361,3436.859" layerid="11" number="1" net="12V+PRERELAY" plated ="Y"  id="gge46" locked="0" c_rotation="0" c_width="6" c_height="6" title="12V+PRERELAY" c_shape="ELLIPSE" pasteexpansion="0" solderexpansion="0.4"><ellipse cx="4071.361" cy="3436.859" rx="3.4" ry="3.4" layerid="8" stroke-width="0" c_etype="pad_outer"/></g><g c_partid="part_pad" c_etype="pinpart" c_origin="4081.361,3436.859" layerid="11" number="2" net="12V+PRERELAY" plated ="Y"  id="gge51" locked="0" c_rotation="0" c_width="6" c_height="6" title="12V+PRERELAY" c_shape="ELLIPSE" pasteexpansion="0" solderexpansion="0.4"><ellipse cx="4081.361" cy="3436.859" rx="3.4" ry="3.4" layerid="8" stroke-width="0" c_etype="pad_outer"/></g><g c_partid="part_pad" c_etype="pinpart" c_origin="4091.361,3436.859" layerid="11" number="3" net="12VGND" plated ="Y"  id="gge56" locked="0" c_rotation="0" c_width="6" c_height="6" title="12VGND" c_shape="ELLIPSE" pasteexpansion="0" solderexpansion="0.4"><ellipse cx="4091.361" cy="3436.859" rx="3.4" ry="3.4" layerid="8" stroke-width="0" c_etype="pad_outer"/></g><g c_partid="part_pad" c_etype="pinpart" c_origin="4101.361,3436.859" layerid="11" number="4" net="12VGND" plated ="Y"  id="gge61" locked="0" c_rotation="0" c_width="6" c_height="6" title="12VGND" c_shape="ELLIPSE" pasteexpansion="0" solderexpansion="0.4"><ellipse cx="4101.361" cy="3436.859" rx="3.4" ry="3.4" layerid="8" stroke-width="0" c_etype="pad_outer"/></g><g c_partid="part_pad" c_etype="pinpart" c_origin="4398.94,3439.89" layerid="11" number="1" net="SOLENOID_1+" plated ="Y"  id="gge73" locked="0" c_rotation="0" c_width="7" c_height="7" title="SOLENOID_1+" c_shape="RECT" pasteexpansion="0" solderexpansion="0.4"><polygon points="4395.4395 3436.3903 4402.4395 3436.3903 4402.4395 3443.3903 4395.4395 3443.3903" layerid="8" stroke-width="0.8" c_etype="pad_outer"/></g><g c_partid="part_pad" c_etype="pinpart" c_origin="4398.94,3429.89" layerid="11" number="2" net="SOLENOID_1-" plated ="Y"  id="gge78" locked="0" c_rotation="0" c_width="7" c_height="7" title="SOLENOID_1-" c_shape="ELLIPSE" pasteexpansion="0" solderexpansion="0.4"><ellipse cx="4398.94" cy="3429.89" rx="3.9" ry="3.9" layerid="8" stroke-width="0" c_etype="pad_outer"/></g><g c_partid="part_pad" c_etype="pinpart" c_origin="4398.94,3479.26" layerid="11" number="1" net="SOLENOID_2+" plated ="Y"  id="gge90" locked="0" c_rotation="0" c_width="7" c_height="7" title="SOLENOID_2+" c_shape="RECT" pasteexpansion="0" solderexpansion="0.4"><polygon points="4395.4395 3475.7604 4402.4395 3475.7604 4402.4395 3482.7604 4395.4395 3482.7604" layerid="8" stroke-width="0.8" c_etype="pad_outer"/></g><g c_partid="part_pad" c_etype="pinpart" c_origin="4398.94,3469.26" layerid="11" number="2" net="SOLENOID_2-" plated ="Y"  id="gge95" locked="0" c_rotation="0" c_width="7" c_height="7" title="SOLENOID_2-" c_shape="ELLIPSE" pasteexpansion="0" solderexpansion="0.4"><ellipse cx="4398.94" cy="3469.26" rx="3.9" ry="3.9" layerid="8" stroke-width="0" c_etype="pad_outer"/></g><g c_partid="part_pad" c_etype="pinpart" c_origin="4398.94,3518.63" layerid="11" number="1" net="SOLENOID_3+" plated ="Y"  id="gge107" locked="0" c_rotation="0" c_width="7" c_height="7" title="SOLENOID_3+" c_shape="RECT" pasteexpansion="0" solderexpansion="0.4"><polygon points="4395.4395 3515.1304 4402.4395 3515.1304 4402.4395 3522.1304 4395.4395 3522.1304" layerid="8" stroke-width="0.8" c_etype="pad_outer"/></g><g c_partid="part_pad" c_etype="pinpart" c_origin="4398.94,3508.63" layerid="11" number="2" net="SOLENOID_3-" plated ="Y"  id="gge112" locked="0" c_rotation="0" c_width="7" c_height="7" title="SOLENOID_3-" c_shape="ELLIPSE" pasteexpansion="0" solderexpansion="0.4"><ellipse cx="4398.94" cy="3508.63" rx="3.9" ry="3.9" layerid="8" stroke-width="0" c_etype="pad_outer"/></g><g c_partid="part_pad" c_etype="pinpart" c_origin="4398.94,3558.001" layerid="11" number="1" net="SOLENOID_4+" plated ="Y"  id="gge124" locked="0" c_rotation="0" c_width="7" c_height="7" title="SOLENOID_4+" c_shape="RECT" pasteexpansion="0" solderexpansion="0.4"><polygon points="4395.4395 3554.5005 4402.4395 3554.5005 4402.4395 3561.5005 4395.4395 3561.5005" layerid="8" stroke-width="0.8" c_etype="pad_outer"/></g><g c_partid="part_pad" c_etype="pinpart" c_origin="4398.94,3548" layerid="11" number="2" net="SOLENOID_4-" plated ="Y"  id="gge129" locked="0" c_rotation="0" c_width="7" c_height="7" title="SOLENOID_4-" c_shape="ELLIPSE" pasteexpansion="0" solderexpansion="0.4"><ellipse cx="4398.94" cy="3548" rx="3.9" ry="3.9" layerid="8" stroke-width="0" c_etype="pad_outer"/></g><g c_partid="part_pad" c_etype="pinpart" c_origin="4133.704,3448.67" layerid="11" number="3" net="12V+PRERELAY" plated ="Y"  id="gge788" locked="0" c_rotation="0" c_width="9.0551" c_height="9.0551" title="12V+PRERELAY" c_shape="ELLIPSE" pasteexpansion="0" solderexpansion="0.2"><ellipse cx="4133.704" cy="3448.67" rx="4.72755" ry="4.72755" layerid="8" stroke-width="0" c_etype="pad_outer"/></g><g c_partid="part_pad" c_etype="pinpart" c_origin="4143.704,3468.355" layerid="11" number="1" net="RPI-GND" plated ="Y"  id="gge793" locked="0" c_rotation="0" c_width="9.0551" c_height="9.0551" title="RPI-GND" c_shape="ELLIPSE" pasteexpansion="0" solderexpansion="0.2"><ellipse cx="4143.704" cy="3468.355" rx="4.72755" ry="4.72755" layerid="8" stroke-width="0" c_etype="pad_outer"/></g><g c_partid="part_pad" c_etype="pinpart" c_origin="4183.861,3468.355" layerid="11" number="4" net="12V+" plated ="Y"  id="gge798" locked="0" c_rotation="0" c_width="9.0551" c_height="9.0551" title="12V+" c_shape="ELLIPSE" pasteexpansion="0" solderexpansion="0.2"><ellipse cx="4183.861" cy="3468.355" rx="4.72755" ry="4.72755" layerid="8" stroke-width="0" c_etype="pad_outer"/></g><g c_partid="part_pad" c_etype="pinpart" c_origin="4143.704,3428.985" layerid="11" number="2" net="+5V-SNC" plated ="Y"  id="gge803" locked="0" c_rotation="0" c_width="9.0551" c_height="9.0551" title="+5V-SNC" c_shape="ELLIPSE" pasteexpansion="0" solderexpansion="0.2"><ellipse cx="4143.704" cy="3428.985" rx="4.72755" ry="4.72755" layerid="8" stroke-width="0" c_etype="pad_outer"/></g><g c_partid="part_pad" c_etype="pinpart" c_origin="4208.507,3448.67" layerid="11" number="3" net="12V+" plated ="Y"  id="gge834" locked="0" c_rotation="0" c_width="9.0551" c_height="9.0551" title="12V+" c_shape="ELLIPSE" pasteexpansion="0" solderexpansion="0.2"><ellipse cx="4208.507" cy="3448.67" rx="4.72755" ry="4.72755" layerid="8" stroke-width="0" c_etype="pad_outer"/></g><g c_partid="part_pad" c_etype="pinpart" c_origin="4218.507,3468.355" layerid="11" number="1" net="K2_1" plated ="Y"  id="gge839" locked="0" c_rotation="0" c_width="9.0551" c_height="9.0551" title="K2_1" c_shape="ELLIPSE" pasteexpansion="0" solderexpansion="0.2"><ellipse cx="4218.507" cy="3468.355" rx="4.72755" ry="4.72755" layerid="8" stroke-width="0" c_etype="pad_outer"/></g><g c_partid="part_pad" c_etype="pinpart" c_origin="4258.664,3468.355" layerid="11" number="4" net="SOLENOID_1+" plated ="Y"  id="gge844" locked="0" c_rotation="0" c_width="9.0551" c_height="9.0551" title="SOLENOID_1+" c_shape="ELLIPSE" pasteexpansion="0" solderexpansion="0.2"><ellipse cx="4258.664" cy="3468.355" rx="4.72755" ry="4.72755" layerid="8" stroke-width="0" c_etype="pad_outer"/></g><g c_partid="part_pad" c_etype="pinpart" c_origin="4218.507,3428.985" layerid="11" number="2" net="5V+" plated ="Y"  id="gge849" locked="0" c_rotation="0" c_width="9.0551" c_height="9.0551" title="5V+" c_shape="ELLIPSE" pasteexpansion="0" solderexpansion="0.2"><ellipse cx="4218.507" cy="3428.985" rx="4.72755" ry="4.72755" layerid="8" stroke-width="0" c_etype="pad_outer"/></g><g c_partid="part_pad" c_etype="pinpart" c_origin="4283.31,3448.67" layerid="11" number="3" net="12V+" plated ="Y"  id="gge880" locked="0" c_rotation="0" c_width="9.0551" c_height="9.0551" title="12V+" c_shape="ELLIPSE" pasteexpansion="0" solderexpansion="0.2"><ellipse cx="4283.31" cy="3448.67" rx="4.72755" ry="4.72755" layerid="8" stroke-width="0" c_etype="pad_outer"/></g><g c_partid="part_pad" c_etype="pinpart" c_origin="4293.31,3468.355" layerid="11" number="1" net="K3_1" plated ="Y"  id="gge885" locked="0" c_rotation="0" c_width="9.0551" c_height="9.0551" title="K3_1" c_shape="ELLIPSE" pasteexpansion="0" solderexpansion="0.2"><ellipse cx="4293.31" cy="3468.355" rx="4.72755" ry="4.72755" layerid="8" stroke-width="0" c_etype="pad_outer"/></g><g c_partid="part_pad" c_etype="pinpart" c_origin="4333.467,3468.355" layerid="11" number="4" net="SOLENOID_2+" plated ="Y"  id="gge890" locked="0" c_rotation="0" c_width="9.0551" c_height="9.0551" title="SOLENOID_2+" c_shape="ELLIPSE" pasteexpansion="0" solderexpansion="0.2"><ellipse cx="4333.467" cy="3468.355" rx="4.72755" ry="4.72755" layerid="8" stroke-width="0" c_etype="pad_outer"/></g><g c_partid="part_pad" c_etype="pinpart" c_origin="4293.31,3428.985" layerid="11" number="2" net="5V+" plated ="Y"  id="gge895" locked="0" c_rotation="0" c_width="9.0551" c_height="9.0551" title="5V+" c_shape="ELLIPSE" pasteexpansion="0" solderexpansion="0.2"><ellipse cx="4293.31" cy="3428.985" rx="4.72755" ry="4.72755" layerid="8" stroke-width="0" c_etype="pad_outer"/></g><g c_partid="part_pad" c_etype="pinpart" c_origin="4283.31,3507.725" layerid="11" number="3" net="12V+" plated ="Y"  id="gge926" locked="0" c_rotation="0" c_width="9.0551" c_height="9.0551" title="12V+" c_shape="ELLIPSE" pasteexpansion="0" solderexpansion="0.2"><ellipse cx="4283.31" cy="3507.725" rx="4.72755" ry="4.72755" layerid="8" stroke-width="0" c_etype="pad_outer"/></g><g c_partid="part_pad" c_etype="pinpart" c_origin="4293.31,3527.41" layerid="11" number="1" net="K4_1" plated ="Y"  id="gge931" locked="0" c_rotation="0" c_width="9.0551" c_height="9.0551" title="K4_1" c_shape="ELLIPSE" pasteexpansion="0" solderexpansion="0.2"><ellipse cx="4293.31" cy="3527.41" rx="4.72755" ry="4.72755" layerid="8" stroke-width="0" c_etype="pad_outer"/></g><g c_partid="part_pad" c_etype="pinpart" c_origin="4333.467,3527.41" layerid="11" number="4" net="SOLENOID_3+" plated ="Y"  id="gge936" locked="0" c_rotation="0" c_width="9.0551" c_height="9.0551" title="SOLENOID_3+" c_shape="ELLIPSE" pasteexpansion="0" solderexpansion="0.2"><ellipse cx="4333.467" cy="3527.41" rx="4.72755" ry="4.72755" layerid="8" stroke-width="0" c_etype="pad_outer"/></g><g c_partid="part_pad" c_etype="pinpart" c_origin="4293.31,3488.04" layerid="11" number="2" net="5V+" plated ="Y"  id="gge941" locked="0" c_rotation="0" c_width="9.0551" c_height="9.0551" title="5V+" c_shape="ELLIPSE" pasteexpansion="0" solderexpansion="0.2"><ellipse cx="4293.31" cy="3488.04" rx="4.72755" ry="4.72755" layerid="8" stroke-width="0" c_etype="pad_outer"/></g><g c_partid="part_pad" c_etype="pinpart" c_origin="4208.507,3507.725" layerid="11" number="3" net="12V+" plated ="Y"  id="gge972" locked="0" c_rotation="0" c_width="9.0551" c_height="9.0551" title="12V+" c_shape="ELLIPSE" pasteexpansion="0" solderexpansion="0.2"><ellipse cx="4208.507" cy="3507.725" rx="4.72755" ry="4.72755" layerid="8" stroke-width="0" c_etype="pad_outer"/></g><g c_partid="part_pad" c_etype="pinpart" c_origin="4218.507,3527.41" layerid="11" number="1" net="K5_1" plated ="Y"  id="gge977" locked="0" c_rotation="0" c_width="9.0551" c_height="9.0551" title="K5_1" c_shape="ELLIPSE" pasteexpansion="0" solderexpansion="0.2"><ellipse cx="4218.507" cy="3527.41" rx="4.72755" ry="4.72755" layerid="8" stroke-width="0" c_etype="pad_outer"/></g><g c_partid="part_pad" c_etype="pinpart" c_origin="4258.664,3527.41" layerid="11" number="4" net="SOLENOID_4+" plated ="Y"  id="gge982" locked="0" c_rotation="0" c_width="9.0551" c_height="9.0551" title="SOLENOID_4+" c_shape="ELLIPSE" pasteexpansion="0" solderexpansion="0.2"><ellipse cx="4258.664" cy="3527.41" rx="4.72755" ry="4.72755" layerid="8" stroke-width="0" c_etype="pad_outer"/></g><g c_partid="part_pad" c_etype="pinpart" c_origin="4218.507,3488.04" layerid="11" number="2" net="5V+" plated ="Y"  id="gge987" locked="0" c_rotation="0" c_width="9.0551" c_height="9.0551" title="5V+" c_shape="ELLIPSE" pasteexpansion="0" solderexpansion="0.2"><ellipse cx="4218.507" cy="3488.04" rx="4.72755" ry="4.72755" layerid="8" stroke-width="0" c_etype="pad_outer"/></g></g><g transform="matrix(-1, 0, 0, 1, 8454.5, 0)"><polyline points="4423.3409 3434.3391 4423.3409 3554.969" stroke-width="5.9055"  stroke-linecap="round" fill="none" layerid="2" net="GND" id="gge20885" locked="0" /><polyline points="4030.8607 3434.3391 4030.8607 3554.969" stroke-width="5.9055"  stroke-linecap="round" fill="none" layerid="2" net="GND" id="gge20884" locked="0" /><polyline points="4143.7037 3428.9851 4131.9581 3428.9851 4087.1036 3473.8391 4041.8607 3473.8391" stroke-width="1"  stroke-linecap="round" fill="none" layerid="2" net="+5V-SNC" id="gge20883" locked="0" /><polyline points="4176.7179 3540.3982 4153.6939 3563.4221 4110.422 3563.4221 4107.5001 3560.5" stroke-width="1"  stroke-linecap="round" fill="none" layerid="2" net="RN2_6" id="gge20882" locked="0" /><polyline points="4103.0621 3544.759 4103.0621 3545.865 4114.2027 3557.0061 4134.004 3557.0061 4153.274 3537.7361 4178.024 3537.7361 4180.6642 3540.3762" stroke-width="1"  stroke-linecap="round" fill="none" layerid="2" net="RN2_5" id="gge20881" locked="0" /><polyline points="4068.8558 3552.2842 4078.4676 3542.6721 4078.4676 3486.5442" stroke-width="1"  stroke-linecap="round" fill="none" layerid="2" net="RN1_6" id="gge20880" locked="0" /><polyline points="4218.5069 3488.04 4212.0997 3481.6331 4212.0997 3467.4241" stroke-width="1"  stroke-linecap="round" fill="none" layerid="2" net="5V+" id="gge20879" locked="0" /><polyline points="4101.1309 3498.4812 4101.1309 3464.3821 4101.8609 3463.6521" stroke-width="1"  stroke-linecap="round" fill="none" layerid="2" net="5V+" id="gge20878" locked="0" /><polyline points="4211.0592 3460.6572 4218.5069 3453.2092 4218.5069 3428.9851" stroke-width="1"  stroke-linecap="round" fill="none" layerid="2" net="5V+" id="gge20877" locked="0" /><polyline points="4211.0592 3460.6572 4104.856 3460.6572 4101.8609 3463.6521" stroke-width="1"  stroke-linecap="round" fill="none" layerid="2" net="5V+" id="gge20876" locked="0" /><polyline points="4212.0997 3467.4241 4212.0997 3461.698 4211.0592 3460.6572" stroke-width="1"  stroke-linecap="round" fill="none" layerid="2" net="5V+" id="gge20875" locked="0" /><polyline points="4283.3101 3507.7251 4283.3101 3448.6702" stroke-width="4.9213"  stroke-linecap="round" fill="none" layerid="2" net="12V+" id="gge20874" locked="0" /><polyline points="4190.5787 3489.7961 4144.4107 3535.9641" stroke-width="4.9213"  stroke-linecap="round" fill="none" layerid="2" net="12V+" id="gge20873" locked="0" /><polyline points="4208.5069 3507.7251 4190.5787 3489.7961" stroke-width="4.9213"  stroke-linecap="round" fill="none" layerid="2" net="12V+" id="gge20872" locked="0" /><polyline points="4190.5787 3489.7961 4183.8609 3483.0791 4183.8609 3468.3552" stroke-width="4.9213"  stroke-linecap="round" fill="none" layerid="2" net="12V+" id="gge20871" locked="0" /><polyline points="4115.3707 3551.2642 4118.1559 3548.479 4118.1559 3463.0581" stroke-width="1"  stroke-linecap="round" fill="none" layerid="2" net="U3_3" id="gge20870" locked="0" /><polyline points="4115.4059 3554.4402 4114.4391 3554.4402 4105.3697 3545.3711 4105.3697 3543.8032 4094.0909 3532.5242 4094.0909 3470.1162" stroke-width="1"  stroke-linecap="round" fill="none" layerid="2" net="U2_3" id="gge20869" locked="0" /><polyline points="4111.0621 3560.7031 4080.9227 3530.5642 4080.9227 3501.2412" stroke-width="1"  stroke-linecap="round" fill="none" layerid="2" net="U1_3" id="gge20868" locked="0" /><polyline points="4258.6642 3527.4102 4289.254 3558 4398.94 3558" stroke-width="2.9528"  stroke-linecap="round" fill="none" layerid="2" net="SOLENOID_4+" id="gge20867" locked="0" /><polyline points="4333.4669 3527.4102 4384.1988 3527.4102 4392.9791 3518.6301" stroke-width="2.9528"  stroke-linecap="round" fill="none" layerid="2" net="SOLENOID_3+" id="gge20866" locked="0" /><polyline points="4398.94 3518.6301 4392.9791 3518.6301" stroke-width="2.9528"  stroke-linecap="round" fill="none" layerid="2" net="SOLENOID_3+" id="gge20865" locked="0" /><polyline points="4333.4669 3468.3552 4382.0738 3468.3552 4392.9791 3479.26" stroke-width="2.9528"  stroke-linecap="round" fill="none" layerid="2" net="SOLENOID_2+" id="gge20864" locked="0" /><polyline points="4398.94 3479.26 4392.9791 3479.26" stroke-width="2.9528"  stroke-linecap="round" fill="none" layerid="2" net="SOLENOID_2+" id="gge20863" locked="0" /><polyline points="4258.6642 3468.3552 4258.6642 3453.0881 4289.7589 3421.9932 4375.0821 3421.9932 4392.9791 3439.8901" stroke-width="2.9528"  stroke-linecap="round" fill="none" layerid="2" net="SOLENOID_1+" id="gge20862" locked="0" /><polyline points="4398.94 3439.8901 4392.9791 3439.8901" stroke-width="2.9528"  stroke-linecap="round" fill="none" layerid="2" net="SOLENOID_1+" id="gge20861" locked="0" /><polyline points="4218.5069 3527.4102 4220.0138 3525.9031 4220.0138 3512.7322" stroke-width="1"  stroke-linecap="round" fill="none" layerid="2" net="K5_1" id="gge20860" locked="0" /><polyline points="4293.3101 3527.4102 4286.9928 3521.093 4255.796 3521.093 4228.2227 3548.666 4228.2227 3558.979" stroke-width="1"  stroke-linecap="round" fill="none" layerid="2" net="K4_1" id="gge20859" locked="0" /><polyline points="4293.3101 3468.3552 4299.6451 3474.6902 4299.6451 3529.7722 4290.8878 3538.5291" stroke-width="1"  stroke-linecap="round" fill="none" layerid="2" net="K3_1" id="gge20858" locked="0" /><polyline points="4227.9 3540.2622 4227.9 3477.748 4218.5069 3468.3552" stroke-width="1"  stroke-linecap="round" fill="none" layerid="2" net="K2_1" id="gge20857" locked="0" /><polyline points="4101.3609 3436.8591 4101.3609 3437.7891 4087.1556 3451.9941" stroke-width="4.9213"  stroke-linecap="round" fill="none" layerid="2" net="12VGND" id="gge20856" locked="0" /><polyline points="4049.545 3516.155 4075.6317 3542.2432" stroke-width="1"  stroke-linecap="round" fill="none" layerid="2" net="RPI-GND" id="gge20855" locked="0" /><polyline points="4041.8607 3523.8391 4049.545 3516.155" stroke-width="1"  stroke-linecap="round" fill="none" layerid="2" net="RPI-GND" id="gge20854" locked="0" /><polyline points="4049.545 3516.155 4060.8248 3504.875 4060.8248 3494.8381" stroke-width="1"  stroke-linecap="round" fill="none" layerid="2" net="RPI-GND" id="gge20853" locked="0" /></g><g transform="matrix(-1, 0, 0, 1, 8454.5, 0)"><g c_partid="part_pcbtext" c_etype="pinpart" c_origin="4347.861,3441.839" c_rotation="0" c_mirror="1" id="gge18106" locked="0" layerid="4" c_shapetype="group" ><path c_fontsize="8" c_fontfamily="" c_text="Keg Washer Pi (HiCurrent Relay) Rev. 1.11" d="M 4347.8608 3433.7664 L 4347.8608 3441.4027 M 4342.7699 3433.7664 L 4347.8608 3438.8573 M 4346.0426 3437.0391 L 4342.7699 3441.4027 M 4340.3699 3438.4937 L 4336.0063 3438.4937 L 4336.0063 3437.7664 L 4336.3699 3437.0391 L 4336.7335 3436.6755 L 4337.4608 3436.3118 L 4338.5517 3436.3118 L 4339.279 3436.6755 L 4340.0063 3437.4027 L 4340.3699 3438.4937 L 4340.3699 3439.2209 L 4340.0063 3440.3118 L 4339.279 3441.0391 L 4338.5517 3441.4027 L 4337.4608 3441.4027 L 4336.7335 3441.0391 L 4336.0063 3440.3118 M 4329.2426 3436.3118 L 4329.2426 3442.13 L 4329.6063 3443.2209 L 4329.9699 3443.5846 L 4330.6972 3443.9482 L 4331.7881 3443.9482 L 4332.5154 3443.5846 M 4329.2426 3437.4027 L 4329.9699 3436.6755 L 4330.6972 3436.3118 L 4331.7881 3436.3118 L 4332.5154 3436.6755 L 4333.2426 3437.4027 L 4333.6063 3438.4937 L 4333.6063 3439.2209 L 4333.2426 3440.3118 L 4332.5154 3441.0391 L 4331.7881 3441.4027 L 4330.6972 3441.4027 L 4329.9699 3441.0391 L 4329.2426 3440.3118 M 4321.2426 3433.7664 L 4319.4244 3441.4027 M 4317.6063 3433.7664 L 4319.4244 3441.4027 M 4317.6063 3433.7664 L 4315.7881 3441.4027 M 4313.9699 3433.7664 L 4315.7881 3441.4027 M 4307.2063 3436.3118 L 4307.2063 3441.4027 M 4307.2063 3437.4027 L 4307.9335 3436.6755 L 4308.6608 3436.3118 L 4309.7517 3436.3118 L 4310.479 3436.6755 L 4311.2063 3437.4027 L 4311.5699 3438.4937 L 4311.5699 3439.2209 L 4311.2063 3440.3118 L 4310.479 3441.0391 L 4309.7517 3441.4027 L 4308.6608 3441.4027 L 4307.9335 3441.0391 L 4307.2063 3440.3118 M 4300.8063 3437.4027 L 4301.1699 3436.6755 L 4302.2608 3436.3118 L 4303.3517 3436.3118 L 4304.4426 3436.6755 L 4304.8063 3437.4027 L 4304.4426 3438.13 L 4303.7154 3438.4937 L 4301.8972 3438.8573 L 4301.1699 3439.2209 L 4300.8063 3439.9482 L 4300.8063 3440.3118 L 4301.1699 3441.0391 L 4302.2608 3441.4027 L 4303.3517 3441.4027 L 4304.4426 3441.0391 L 4304.8063 3440.3118 M 4298.4063 3433.7664 L 4298.4063 3441.4027 M 4298.4063 3437.7664 L 4297.3154 3436.6755 L 4296.5881 3436.3118 L 4295.4972 3436.3118 L 4294.7699 3436.6755 L 4294.4063 3437.7664 L 4294.4063 3441.4027 M 4292.0063 3438.4937 L 4287.6426 3438.4937 L 4287.6426 3437.7664 L 4288.0063 3437.0391 L 4288.3699 3436.6755 L 4289.0972 3436.3118 L 4290.1881 3436.3118 L 4290.9154 3436.6755 L 4291.6426 3437.4027 L 4292.0063 3438.4937 L 4292.0063 3439.2209 L 4291.6426 3440.3118 L 4290.9154 3441.0391 L 4290.1881 3441.4027 L 4289.0972 3441.4027 L 4288.3699 3441.0391 L 4287.6426 3440.3118 M 4285.2426 3436.3118 L 4285.2426 3441.4027 M 4285.2426 3438.4937 L 4284.879 3437.4027 L 4284.1517 3436.6755 L 4283.4244 3436.3118 L 4282.3335 3436.3118 M 4274.3335 3433.7664 L 4274.3335 3441.4027 M 4274.3335 3433.7664 L 4271.0608 3433.7664 L 4269.9699 3434.13 L 4269.6063 3434.4937 L 4269.2426 3435.2209 L 4269.2426 3436.3118 L 4269.6063 3437.0391 L 4269.9699 3437.4027 L 4271.0608 3437.7664 L 4274.3335 3437.7664 M 4266.8426 3433.7664 L 4266.479 3434.13 L 4266.1154 3433.7664 L 4266.479 3433.4027 L 4266.8426 3433.7664 M 4266.479 3436.3118 L 4266.479 3441.4027 M 4255.5699 3432.3118 L 4256.2972 3433.0391 L 4257.0244 3434.13 L 4257.7517 3435.5846 L 4258.1154 3437.4027 L 4258.1154 3438.8573 L 4257.7517 3440.6755 L 4257.0244 3442.13 L 4256.2972 3443.2209 L 4255.5699 3443.9482 M 4253.1699 3433.7664 L 4253.1699 3441.4027 M 4248.079 3433.7664 L 4248.079 3441.4027 M 4253.1699 3437.4027 L 4248.079 3437.4027 M 4245.679 3433.7664 L 4245.3154 3434.13 L 4244.9517 3433.7664 L 4245.3154 3433.4027 L 4245.679 3433.7664 M 4245.3154 3436.3118 L 4245.3154 3441.4027 M 4237.0972 3435.5846 L 4237.4608 3434.8573 L 4238.1881 3434.13 L 4238.9154 3433.7664 L 4240.3699 3433.7664 L 4241.0972 3434.13 L 4241.8244 3434.8573 L 4242.1881 3435.5846 L 4242.5517 3436.6755 L 4242.5517 3438.4937 L 4242.1881 3439.5846 L 4241.8244 3440.3118 L 4241.0972 3441.0391 L 4240.3699 3441.4027 L 4238.9154 3441.4027 L 4238.1881 3441.0391 L 4237.4608 3440.3118 L 4237.0972 3439.5846 M 4234.6972 3436.3118 L 4234.6972 3439.9482 L 4234.3335 3441.0391 L 4233.6063 3441.4027 L 4232.5154 3441.4027 L 4231.7881 3441.0391 L 4230.6972 3439.9482 M 4230.6972 3436.3118 L 4230.6972 3441.4027 M 4228.2972 3436.3118 L 4228.2972 3441.4027 M 4228.2972 3438.4937 L 4227.9335 3437.4027 L 4227.2063 3436.6755 L 4226.479 3436.3118 L 4225.3881 3436.3118 M 4222.9881 3436.3118 L 4222.9881 3441.4027 M 4222.9881 3438.4937 L 4222.6244 3437.4027 L 4221.8972 3436.6755 L 4221.1699 3436.3118 L 4220.079 3436.3118 M 4217.679 3438.4937 L 4213.3154 3438.4937 L 4213.3154 3437.7664 L 4213.679 3437.0391 L 4214.0426 3436.6755 L 4214.7699 3436.3118 L 4215.8608 3436.3118 L 4216.5881 3436.6755 L 4217.3154 3437.4027 L 4217.679 3438.4937 L 4217.679 3439.2209 L 4217.3154 3440.3118 L 4216.5881 3441.0391 L 4215.8608 3441.4027 L 4214.7699 3441.4027 L 4214.0426 3441.0391 L 4213.3154 3440.3118 M 4210.9154 3436.3118 L 4210.9154 3441.4027 M 4210.9154 3437.7664 L 4209.8244 3436.6755 L 4209.0972 3436.3118 L 4208.0063 3436.3118 L 4207.279 3436.6755 L 4206.9154 3437.7664 L 4206.9154 3441.4027 M 4203.4244 3433.7664 L 4203.4244 3439.9482 L 4203.0608 3441.0391 L 4202.3335 3441.4027 L 4201.6063 3441.4027 M 4204.5154 3436.3118 L 4201.9699 3436.3118 M 4193.6063 3433.7664 L 4193.6063 3441.4027 M 4193.6063 3433.7664 L 4190.3335 3433.7664 L 4189.2426 3434.13 L 4188.879 3434.4937 L 4188.5154 3435.2209 L 4188.5154 3435.9482 L 4188.879 3436.6755 L 4189.2426 3437.0391 L 4190.3335 3437.4027 L 4193.6063 3437.4027 M 4191.0608 3437.4027 L 4188.5154 3441.4027 M 4186.1154 3438.4937 L 4181.7517 3438.4937 L 4181.7517 3437.7664 L 4182.1154 3437.0391 L 4182.479 3436.6755 L 4183.2063 3436.3118 L 4184.2972 3436.3118 L 4185.0244 3436.6755 L 4185.7517 3437.4027 L 4186.1154 3438.4937 L 4186.1154 3439.2209 L 4185.7517 3440.3118 L 4185.0244 3441.0391 L 4184.2972 3441.4027 L 4183.2063 3441.4027 L 4182.479 3441.0391 L 4181.7517 3440.3118 M 4179.3517 3433.7664 L 4179.3517 3441.4027 M 4172.5881 3436.3118 L 4172.5881 3441.4027 M 4172.5881 3437.4027 L 4173.3154 3436.6755 L 4174.0426 3436.3118 L 4175.1335 3436.3118 L 4175.8608 3436.6755 L 4176.5881 3437.4027 L 4176.9517 3438.4937 L 4176.9517 3439.2209 L 4176.5881 3440.3118 L 4175.8608 3441.0391 L 4175.1335 3441.4027 L 4174.0426 3441.4027 L 4173.3154 3441.0391 L 4172.5881 3440.3118 M 4169.8244 3436.3118 L 4167.6426 3441.4027 M 4165.4608 3436.3118 L 4167.6426 3441.4027 L 4168.3699 3442.8573 L 4169.0972 3443.5846 L 4169.8244 3443.9482 L 4170.1881 3443.9482 M 4163.0608 3432.3118 L 4162.3335 3433.0391 L 4161.6063 3434.13 L 4160.879 3435.5846 L 4160.5154 3437.4027 L 4160.5154 3438.8573 L 4160.879 3440.6755 L 4161.6063 3442.13 L 4162.3335 3443.2209 L 4163.0608 3443.9482 M 4152.5154 3433.7664 L 4152.5154 3441.4027 M 4152.5154 3433.7664 L 4149.2426 3433.7664 L 4148.1517 3434.13 L 4147.7881 3434.4937 L 4147.4244 3435.2209 L 4147.4244 3435.9482 L 4147.7881 3436.6755 L 4148.1517 3437.0391 L 4149.2426 3437.4027 L 4152.5154 3437.4027 M 4149.9699 3437.4027 L 4147.4244 3441.4027 M 4145.0244 3438.4937 L 4140.6608 3438.4937 L 4140.6608 3437.7664 L 4141.0244 3437.0391 L 4141.3881 3436.6755 L 4142.1154 3436.3118 L 4143.2063 3436.3118 L 4143.9335 3436.6755 L 4144.6608 3437.4027 L 4145.0244 3438.4937 L 4145.0244 3439.2209 L 4144.6608 3440.3118 L 4143.9335 3441.0391 L 4143.2063 3441.4027 L 4142.1154 3441.4027 L 4141.3881 3441.0391 L 4140.6608 3440.3118 M 4138.2608 3436.3118 L 4136.079 3441.4027 M 4133.8972 3436.3118 L 4136.079 3441.4027 M 4131.1335 3439.5846 L 4131.4972 3439.9482 L 4131.1335 3440.3118 L 4130.7699 3439.9482 L 4131.1335 3439.5846 M 4122.7699 3435.2209 L 4122.0426 3434.8573 L 4120.9517 3433.7664 L 4120.9517 3441.4027 M 4118.1881 3439.5846 L 4118.5517 3439.9482 L 4118.1881 3440.3118 L 4117.8244 3439.9482 L 4118.1881 3439.5846 M 4115.4244 3435.2209 L 4114.6972 3434.8573 L 4113.6063 3433.7664 L 4113.6063 3441.4027 M 4111.2063 3435.2209 L 4110.479 3434.8573 L 4109.3881 3433.7664 L 4109.3881 3441.4027" fill="none"  stroke-width="0.7992"  /></g><g c_partid="part_pcbtext" c_etype="pinpart" c_origin="4338.861,3460.339" c_rotation="0" c_mirror="1" id="gge18112" locked="0" layerid="4" c_shapetype="group" ><path c_fontsize="8" c_fontfamily="NotoSerifCJKsc-Medium" c_text="© 2021 - Kyle Hultman &lt;khultman@gmail.com&gt;" d="M 4335.3308 3458.7691 C 4335.5108 3458.8391 4335.7008 3458.8691 4335.8408 3458.8691 C 4336.5408 3458.8691 4337.0208 3458.3391 4337.0208 3457.3891 C 4337.0208 3456.4091 4336.5008 3455.8891 4335.8308 3455.8891 C 4335.6908 3455.8891 4335.5308 3455.9191 4335.3708 3455.9791 L 4335.2408 3456.6791 L 4334.9008 3456.6791 L 4334.9208 3455.8391 C 4335.2508 3455.6491 4335.5208 3455.5991 4335.9108 3455.5991 C 4336.8908 3455.5991 4337.6208 3456.3391 4337.6208 3457.3891 C 4337.6208 3458.4391 4336.9308 3459.1691 4335.9108 3459.1691 C 4335.5308 3459.1691 4335.1908 3459.0991 4334.8708 3458.9291 L 4334.8508 3458.0891 L 4335.2008 3458.0891 Z  M 4336.0508 3460.1591 C 4337.5408 3460.1591 4338.7008 3459.1091 4338.7008 3457.3891 C 4338.7008 3455.6891 4337.5408 3454.6491 4336.0508 3454.6491 C 4334.5608 3454.6491 4333.4008 3455.6991 4333.4008 3457.3891 C 4333.4008 3459.0791 4334.5608 3460.1591 4336.0508 3460.1591 Z  M 4336.0508 3454.3391 C 4337.7408 3454.3391 4339.1008 3455.4791 4339.1008 3457.3891 C 4339.1008 3459.2991 4337.7408 3460.4691 4336.0508 3460.4691 C 4334.3708 3460.4691 4333.0108 3459.2991 4333.0108 3457.3891 C 4333.0108 3455.4791 4334.3708 3454.3391 4336.0508 3454.3391 Z  M 4329.7008 3459.6591 C 4329.3008 3459.2391 4328.9008 3458.8391 4328.6708 3458.5991 C 4327.3608 3457.2291 4326.9108 3456.6691 4326.9108 3455.9091 C 4326.9108 3454.9991 4327.4208 3454.3591 4328.5408 3454.3591 C 4329.4208 3454.3591 4330.1808 3454.7991 4330.3008 3455.6791 C 4330.2208 3455.8391 4330.0608 3455.9491 4329.8808 3455.9491 C 4329.6608 3455.9491 4329.5008 3455.7991 4329.4008 3455.3991 L 4329.2208 3454.7591 C 4329.0408 3454.7191 4328.8808 3454.6991 4328.7508 3454.6991 C 4328.1008 3454.6991 4327.6808 3455.1991 4327.6808 3455.9491 C 4327.6808 3456.6491 4328.0808 3457.3191 4328.9408 3458.2891 C 4329.3208 3458.7291 4329.7808 3459.2591 4330.2608 3459.7991 L 4330.2608 3460.3391 L 4326.6608 3460.3391 L 4326.6608 3459.6591 Z  M 4325.1708 3457.3591 C 4325.1708 3455.2591 4324.6608 3454.7091 4324.1008 3454.7091 C 4323.5608 3454.7091 4323.0608 3455.2591 4323.0608 3457.3591 C 4323.0608 3459.5391 4323.5608 3460.1191 4324.1008 3460.1191 C 4324.6608 3460.1191 4325.1708 3459.5491 4325.1708 3457.3591 Z  M 4324.1008 3454.3591 C 4325.0408 3454.3591 4325.9408 3455.1691 4325.9408 3457.3591 C 4325.9408 3459.6291 4325.0408 3460.4491 4324.1008 3460.4491 C 4323.1808 3460.4491 4322.2708 3459.6291 4322.2708 3457.3591 C 4322.2708 3455.1691 4323.1808 3454.3591 4324.1008 3454.3591 Z  M 4320.9208 3459.6591 C 4320.5108 3459.2391 4320.1208 3458.8391 4319.8908 3458.5991 C 4318.5808 3457.2291 4318.1308 3456.6691 4318.1308 3455.9091 C 4318.1308 3454.9991 4318.6308 3454.3591 4319.7608 3454.3591 C 4320.6308 3454.3591 4321.4008 3454.7991 4321.5208 3455.6791 C 4321.4308 3455.8391 4321.2808 3455.9491 4321.1008 3455.9491 C 4320.8708 3455.9491 4320.7208 3455.7991 4320.6208 3455.3991 L 4320.4408 3454.7591 C 4320.2608 3454.7191 4320.1008 3454.6991 4319.9708 3454.6991 C 4319.3108 3454.6991 4318.9008 3455.1991 4318.9008 3455.9491 C 4318.9008 3456.6491 4319.3008 3457.3191 4320.1508 3458.2891 C 4320.5408 3458.7291 4321.0008 3459.2591 4321.4808 3459.7991 L 4321.4808 3460.3391 L 4317.8808 3460.3391 L 4317.8808 3459.6591 Z  M 4314.8608 3459.8891 C 4314.8708 3459.4291 4314.8808 3458.9591 4314.8808 3458.4891 L 4314.8808 3455.7391 L 4314.8508 3454.4791 L 4314.9708 3454.3891 L 4316.7708 3454.8591 L 4316.7708 3455.1591 L 4315.6008 3455.0491 L 4315.6008 3458.4891 C 4315.6008 3458.9591 4315.6108 3459.4291 4315.6208 3459.8891 L 4316.8608 3460.0691 L 4316.8608 3460.3391 L 4313.6308 3460.3391 L 4313.6308 3460.0691 Z  M 4310.7308 3458.3991 L 4308.6908 3458.3991 L 4308.6908 3457.8791 L 4310.7308 3457.8791 Z  M 4301.1308 3459.9591 L 4302.9408 3456.6891 L 4301.4608 3454.8791 L 4300.6208 3454.7791 L 4300.6208 3454.4791 L 4302.6308 3454.4791 L 4302.6308 3454.7791 L 4301.9408 3454.8991 L 4304.2908 3457.7991 L 4304.2908 3457.1991 C 4304.2908 3456.4091 4304.2908 3455.6291 4304.2708 3454.8691 L 4303.4408 3454.7791 L 4303.4408 3454.4791 L 4305.9008 3454.4791 L 4305.9008 3454.7791 L 4305.0808 3454.8691 C 4305.0608 3455.6391 4305.0608 3456.4091 4305.0608 3457.1991 L 4305.0608 3457.6291 C 4305.0608 3458.4091 4305.0608 3459.1791 4305.0808 3459.9491 L 4305.9008 3460.0391 L 4305.9008 3460.3391 L 4303.4508 3460.3391 L 4303.4508 3460.0391 L 4304.2708 3459.9391 C 4304.2908 3459.3591 4304.2908 3458.7991 4304.2908 3458.3091 L 4303.4208 3457.2591 L 4301.9708 3459.9491 L 4302.7008 3460.0391 L 4302.7008 3460.3391 L 4300.4508 3460.3391 L 4300.4508 3460.0391 Z  M 4296.3808 3456.1891 L 4298.0708 3456.1891 L 4298.0708 3456.4591 L 4297.2808 3456.5491 L 4298.3808 3459.6591 L 4299.5408 3456.5391 L 4298.7808 3456.4591 L 4298.7808 3456.1891 L 4300.8608 3456.1891 L 4300.8608 3456.4591 L 4300.3608 3456.5191 L 4298.7308 3460.5991 L 4298.7708 3460.6891 C 4298.9708 3461.2191 4299.2208 3461.6891 4299.6208 3461.9991 L 4299.6808 3461.9291 C 4299.9108 3461.7191 4300.0708 3461.6091 4300.3208 3461.6091 C 4300.5808 3461.6091 4300.8208 3461.7191 4300.8808 3461.9691 C 4300.8808 3462.2991 4300.5108 3462.5191 4300.1008 3462.5191 C 4299.4608 3462.5191 4298.9008 3461.9291 4298.3408 3460.4291 L 4296.8608 3456.5391 L 4296.3808 3456.4591 Z  M 4294.8908 3459.9691 C 4294.9008 3459.4891 4294.9008 3458.9791 4294.9008 3458.4991 L 4294.9008 3455.1691 L 4294.8608 3453.9191 L 4294.9808 3453.8591 L 4296.3408 3454.2291 L 4296.3408 3454.4891 L 4295.6208 3454.5591 L 4295.6208 3458.4991 C 4295.6208 3458.9791 4295.6308 3459.4891 4295.6408 3459.9691 L 4296.3408 3460.0691 L 4296.3408 3460.3391 L 4294.1808 3460.3391 L 4294.1808 3460.0691 Z  M 4292.7808 3457.8891 C 4292.6908 3456.8491 4292.1208 3456.3991 4291.5808 3456.3991 C 4291.0208 3456.3991 4290.6208 3456.8791 4290.6208 3457.4191 C 4290.6208 3457.7091 4290.7008 3457.9091 4291.0908 3457.9091 Z  M 4289.9708 3458.2291 C 4289.9308 3458.1091 4289.9008 3457.9391 4289.9008 3457.7391 C 4289.9008 3456.7091 4290.6008 3456.0691 4291.5408 3456.0691 C 4292.6208 3456.0691 4293.5508 3456.9391 4293.5508 3458.2891 C 4293.5508 3459.6591 4292.7508 3460.4491 4291.5808 3460.4491 C 4290.8008 3460.4491 4290.2408 3460.0691 4289.9208 3459.4491 L 4290.1008 3459.3291 C 4290.4108 3459.7091 4290.7508 3459.9591 4291.3308 3459.9591 C 4292.1808 3459.9591 4292.7708 3459.3791 4292.7808 3458.2191 Z  M 4280.9408 3454.7791 L 4280.9408 3454.4791 L 4283.3908 3454.4791 L 4283.3908 3454.7791 L 4282.5808 3454.8691 C 4282.5708 3455.6291 4282.5708 3456.3991 4282.5708 3457.1591 L 4285.4208 3457.1591 C 4285.4208 3456.3891 4285.4208 3455.6191 4285.4108 3454.8691 L 4284.6008 3454.7791 L 4284.6008 3454.4791 L 4287.0608 3454.4791 L 4287.0608 3454.7791 L 4286.2408 3454.8691 C 4286.2208 3455.6391 4286.2208 3456.4091 4286.2208 3457.1991 L 4286.2208 3457.6291 C 4286.2208 3458.4091 4286.2208 3459.1791 4286.2408 3459.9491 L 4287.0608 3460.0391 L 4287.0608 3460.3391 L 4284.6008 3460.3391 L 4284.6008 3460.0391 L 4285.4108 3459.9491 C 4285.4208 3459.1891 4285.4208 3458.3991 4285.4208 3457.5091 L 4282.5708 3457.5091 C 4282.5708 3458.4191 4282.5708 3459.1991 4282.5808 3459.9491 L 4283.3908 3460.0391 L 4283.3908 3460.3391 L 4280.9408 3460.3391 L 4280.9408 3460.0391 L 4281.7508 3459.9491 C 4281.7708 3459.1691 4281.7708 3458.3991 4281.7708 3457.6291 L 4281.7708 3457.1991 C 4281.7708 3456.4091 4281.7708 3455.6291 4281.7508 3454.8691 Z  M 4276.5108 3459.9791 L 4276.5108 3457.4491 L 4276.4908 3456.2091 L 4276.5708 3456.1191 L 4277.8308 3456.2591 L 4277.8308 3456.5191 L 4277.2108 3456.6391 L 4277.2308 3459.3091 C 4277.6208 3459.6891 4278.0308 3459.8791 4278.4608 3459.8791 C 4278.9408 3459.8791 4279.1808 3459.6091 4279.1808 3458.8291 L 4279.1808 3457.4491 L 4279.1408 3456.2091 L 4279.2308 3456.1191 L 4280.5208 3456.2491 L 4280.5208 3456.5091 L 4279.8908 3456.6391 L 4279.9108 3458.8691 C 4279.9208 3460.0391 4279.4808 3460.4491 4278.7708 3460.4491 C 4278.2208 3460.4491 4277.6608 3460.1691 4277.2108 3459.6191 L 4277.1308 3460.4091 L 4275.9108 3460.3391 L 4275.9108 3460.0791 Z  M 4273.9108 3459.9691 C 4273.9208 3459.4891 4273.9308 3458.9791 4273.9308 3458.4991 L 4273.9308 3455.1691 L 4273.8908 3453.9191 L 4274.0108 3453.8591 L 4275.3608 3454.2291 L 4275.3608 3454.4891 L 4274.6508 3454.5591 L 4274.6508 3458.4991 C 4274.6508 3458.9791 4274.6608 3459.4891 4274.6608 3459.9691 L 4275.3608 3460.0691 L 4275.3608 3460.3391 L 4273.2108 3460.3391 L 4273.2108 3460.0691 Z  M 4270.3108 3459.7991 C 4270.5408 3459.9691 4270.7008 3460.0491 4270.9108 3460.0491 C 4271.2208 3460.0491 4271.4208 3459.8591 4271.4208 3459.3991 L 4271.4208 3456.5691 L 4270.2308 3456.5691 L 4270.2308 3456.1891 L 4271.4108 3456.1891 L 4271.3608 3454.9791 L 4271.8608 3454.9791 L 4272.1008 3456.1591 L 4272.8808 3456.2591 L 4272.8808 3456.5691 L 4272.1408 3456.5691 L 4272.1408 3458.6991 C 4272.1408 3459.0291 4272.1408 3459.2191 4272.1408 3459.4291 C 4272.1408 3460.1291 4271.7808 3460.4491 4271.1508 3460.4491 C 4270.7008 3460.4491 4270.3608 3460.2791 4270.1408 3459.9991 Z  M 4263.0908 3459.9691 C 4263.1008 3459.5291 4263.1008 3458.9191 4263.1008 3458.4991 L 4263.1008 3457.5891 C 4263.1008 3456.5091 4263.5108 3456.0691 4264.2208 3456.0691 C 4264.7808 3456.0691 4265.3408 3456.3291 4265.8108 3456.8891 C 4265.9608 3456.3191 4266.3008 3456.0691 4266.8508 3456.0691 C 4267.3808 3456.0691 4267.9408 3456.3791 4268.3808 3456.8691 L 4268.4508 3456.1591 L 4268.5708 3456.0791 L 4269.8008 3456.5591 L 4269.8008 3456.8191 L 4269.1008 3456.8891 C 4269.0808 3457.2391 4269.0808 3457.5491 4269.0808 3458.0391 L 4269.0808 3458.4991 C 4269.0808 3458.9091 4269.0908 3459.5191 4269.1008 3459.9691 L 4269.7408 3460.0691 L 4269.7408 3460.3391 L 4267.7308 3460.3391 L 4267.7308 3460.0691 L 4268.3408 3459.9691 C 4268.3408 3459.5191 4268.3508 3458.9091 4268.3508 3458.4991 L 4268.3508 3457.1991 C 4267.9008 3456.7991 4267.5608 3456.6291 4267.1608 3456.6291 C 4266.6608 3456.6291 4266.4408 3456.8891 4266.4408 3457.6891 L 4266.4408 3458.4991 C 4266.4408 3458.9191 4266.4508 3459.5291 4266.4608 3459.9691 L 4267.1208 3460.0691 L 4267.1208 3460.3391 L 4265.1008 3460.3391 L 4265.1008 3460.0691 L 4265.7008 3459.9691 C 4265.7208 3459.5291 4265.7308 3458.9191 4265.7308 3458.4991 L 4265.7308 3457.6591 C 4265.7308 3457.4891 4265.7408 3457.3491 4265.7508 3457.2091 C 4265.2908 3456.7891 4264.9208 3456.6291 4264.5508 3456.6291 C 4264.0508 3456.6291 4263.8208 3456.8591 4263.8208 3457.6791 L 4263.8208 3458.4991 C 4263.8208 3458.9191 4263.8208 3459.5291 4263.8308 3459.9691 L 4264.4808 3460.0691 L 4264.4808 3460.3391 L 4262.4708 3460.3391 L 4262.4708 3460.0691 Z  M 4259.3508 3459.4291 C 4259.8408 3459.8091 4260.0408 3459.9391 4260.3508 3459.9391 C 4260.7608 3459.9391 4261.0608 3459.7291 4261.0608 3459.2591 C 4261.0608 3458.9391 4260.9308 3458.5991 4260.1608 3458.2991 C 4259.9708 3458.2291 4259.6608 3458.1191 4259.3508 3458.0391 Z  M 4257.9608 3459.8191 C 4258.0708 3459.9591 4258.1708 3460.0391 4258.3108 3460.0391 C 4258.5108 3460.0391 4258.6308 3459.8891 4258.6308 3459.4791 L 4258.6308 3457.5691 C 4258.6308 3456.4791 4259.0708 3456.0691 4259.9908 3456.0691 C 4260.9008 3456.0691 4261.5408 3456.4791 4261.6908 3457.1491 C 4261.6608 3457.3591 4261.5408 3457.4791 4261.3008 3457.4791 C 4261.0708 3457.4791 4260.9308 3457.3491 4260.8608 3457.0791 L 4260.6908 3456.4791 C 4260.5008 3456.4291 4260.3408 3456.3991 4260.1908 3456.3991 C 4259.6008 3456.3991 4259.3508 3456.6291 4259.3508 3457.4891 L 4259.3508 3457.7591 C 4259.7008 3457.8391 4260.0808 3457.9491 4260.3608 3458.0491 C 4261.5008 3458.4591 4261.8108 3458.8391 4261.8108 3459.3791 C 4261.8108 3460.0791 4261.2908 3460.4491 4260.6508 3460.4491 C 4260.1208 3460.4491 4259.8208 3460.2191 4259.3408 3459.7491 C 4259.2608 3460.1691 4258.9808 3460.4391 4258.5508 3460.4391 C 4258.2508 3460.4391 4258.0008 3460.3191 4257.8008 3459.9891 Z  M 4253.3408 3459.9691 C 4253.3508 3459.5291 4253.3608 3458.9191 4253.3608 3458.4991 L 4253.3608 3457.6591 C 4253.3608 3456.5291 4253.7408 3456.0691 4254.4808 3456.0691 C 4255.0208 3456.0691 4255.6108 3456.3791 4256.0608 3456.8791 L 4256.1308 3456.1591 L 4256.2508 3456.0791 L 4257.4808 3456.5591 L 4257.4808 3456.8191 L 4256.7808 3456.8891 C 4256.7708 3457.2391 4256.7608 3457.5491 4256.7608 3458.0391 L 4256.7608 3458.4991 C 4256.7608 3458.9091 4256.7708 3459.5191 4256.7808 3459.9691 L 4257.4208 3460.0691 L 4257.4208 3460.3391 L 4255.4108 3460.3391 L 4255.4108 3460.0691 L 4256.0208 3459.9691 C 4256.0208 3459.5191 4256.0308 3458.9091 4256.0308 3458.4991 L 4256.0308 3457.1991 C 4255.5808 3456.7891 4255.2008 3456.6191 4254.8108 3456.6191 C 4254.3008 3456.6191 4254.0808 3456.8891 4254.0808 3457.6791 L 4254.0808 3458.4991 C 4254.0808 3458.9191 4254.0908 3459.5291 4254.1008 3459.9691 L 4254.7408 3460.0691 L 4254.7408 3460.3391 L 4252.7308 3460.3391 L 4252.7308 3460.0691 Z  M 4246.2808 3455.6791 L 4246.5008 3455.2991 L 4249.9208 3457.2791 L 4249.9208 3457.6091 L 4246.5008 3459.5991 L 4246.2808 3459.2191 L 4249.4208 3457.4391 Z  M 4241.5308 3459.9891 L 4243.0108 3457.5991 L 4242.0008 3456.5891 L 4241.1808 3456.4791 L 4241.1808 3456.1891 L 4243.2008 3456.1891 L 4243.2008 3456.4791 L 4242.5108 3456.6191 L 4244.1008 3458.2491 L 4244.1008 3455.1691 L 4244.0608 3453.9191 L 4244.1808 3453.8591 L 4245.5308 3454.2291 L 4245.5308 3454.4891 L 4244.8208 3454.5591 L 4244.8208 3458.4991 C 4244.8208 3458.9691 4244.8208 3459.4891 4244.8308 3459.9691 L 4245.5208 3460.0691 L 4245.5208 3460.3391 L 4243.3908 3460.3391 L 4243.3908 3460.0691 L 4244.0808 3459.9691 C 4244.0908 3459.5591 4244.1008 3459.1191 4244.1008 3458.6991 L 4243.5108 3458.1091 L 4242.1508 3460.3391 L 4240.9608 3460.3391 L 4240.9608 3460.0691 Z  M 4236.5608 3459.9691 C 4236.5708 3459.5291 4236.5808 3458.9191 4236.5808 3458.4991 L 4236.5808 3457.6691 C 4236.5808 3456.5191 4236.9608 3456.0691 4237.7008 3456.0691 C 4238.2708 3456.0691 4238.8608 3456.3991 4239.3008 3456.8891 L 4239.3008 3455.1691 L 4239.2808 3453.9191 L 4239.3908 3453.8591 L 4240.7208 3454.2291 L 4240.7208 3454.4891 L 4240.0108 3454.5591 L 4240.0108 3458.4991 C 4240.0108 3458.9091 4240.0208 3459.5191 4240.0208 3459.9691 L 4240.6808 3460.0691 L 4240.6808 3460.3391 L 4238.6608 3460.3391 L 4238.6608 3460.0691 L 4239.2708 3459.9691 C 4239.2808 3459.5191 4239.2908 3458.9091 4239.2908 3458.4991 L 4239.2908 3457.1991 C 4238.8108 3456.7591 4238.4308 3456.6191 4238.0308 3456.6191 C 4237.5408 3456.6191 4237.3008 3456.8791 4237.3008 3457.6791 L 4237.3008 3458.4991 C 4237.3008 3458.9191 4237.3008 3459.5291 4237.3108 3459.9691 L 4237.9708 3460.0691 L 4237.9708 3460.3391 L 4235.9508 3460.3391 L 4235.9508 3460.0691 Z  M 4231.4808 3459.9791 L 4231.4808 3457.4491 L 4231.4608 3456.2091 L 4231.5408 3456.1191 L 4232.8008 3456.2591 L 4232.8008 3456.5191 L 4232.1808 3456.6391 L 4232.2008 3459.3091 C 4232.5808 3459.6891 4233.0008 3459.8791 4233.4208 3459.8791 C 4233.9008 3459.8791 4234.1508 3459.6091 4234.1508 3458.8291 L 4234.1508 3457.4491 L 4234.1108 3456.2091 L 4234.2008 3456.1191 L 4235.4908 3456.2491 L 4235.4908 3456.5091 L 4234.8608 3456.6391 L 4234.8808 3458.8691 C 4234.8908 3460.0391 4234.4508 3460.4491 4233.7408 3460.4491 C 4233.1808 3460.4491 4232.6208 3460.1691 4232.1808 3459.6191 L 4232.1008 3460.4091 L 4230.8808 3460.3391 L 4230.8808 3460.0791 Z  M 4228.8808 3459.9691 C 4228.8908 3459.4891 4228.9008 3458.9791 4228.9008 3458.4991 L 4228.9008 3455.1691 L 4228.8608 3453.9191 L 4228.9808 3453.8591 L 4230.3308 3454.2291 L 4230.3308 3454.4891 L 4229.6208 3454.5591 L 4229.6208 3458.4991 C 4229.6208 3458.9791 4229.6208 3459.4891 4229.6308 3459.9691 L 4230.3308 3460.0691 L 4230.3308 3460.3391 L 4228.1808 3460.3391 L 4228.1808 3460.0691 Z  M 4225.2808 3459.7991 C 4225.5108 3459.9691 4225.6708 3460.0491 4225.8808 3460.0491 C 4226.1908 3460.0491 4226.3808 3459.8591 4226.3808 3459.3991 L 4226.3808 3456.5691 L 4225.2008 3456.5691 L 4225.2008 3456.1891 L 4226.3808 3456.1891 L 4226.3308 3454.9791 L 4226.8308 3454.9791 L 4227.0608 3456.1591 L 4227.8508 3456.2591 L 4227.8508 3456.5691 L 4227.1008 3456.5691 L 4227.1008 3458.6991 C 4227.1008 3459.0291 4227.1108 3459.2191 4227.1108 3459.4291 C 4227.1108 3460.1291 4226.7408 3460.4491 4226.1208 3460.4491 C 4225.6708 3460.4491 4225.3308 3460.2791 4225.1008 3459.9991 Z  M 4218.0608 3459.9691 C 4218.0608 3459.5291 4218.0708 3458.9191 4218.0708 3458.4991 L 4218.0708 3457.5891 C 4218.0708 3456.5091 4218.4808 3456.0691 4219.1908 3456.0691 C 4219.7508 3456.0691 4220.3108 3456.3291 4220.7808 3456.8891 C 4220.9308 3456.3191 4221.2708 3456.0691 4221.8208 3456.0691 C 4222.3508 3456.0691 4222.9108 3456.3791 4223.3408 3456.8691 L 4223.4208 3456.1591 L 4223.5408 3456.0791 L 4224.7708 3456.5591 L 4224.7708 3456.8191 L 4224.0708 3456.8891 C 4224.0508 3457.2391 4224.0508 3457.5491 4224.0508 3458.0391 L 4224.0508 3458.4991 C 4224.0508 3458.9091 4224.0608 3459.5191 4224.0608 3459.9691 L 4224.7108 3460.0691 L 4224.7108 3460.3391 L 4222.7008 3460.3391 L 4222.7008 3460.0691 L 4223.3008 3459.9691 C 4223.3108 3459.5191 4223.3208 3458.9091 4223.3208 3458.4991 L 4223.3208 3457.1991 C 4222.8708 3456.7991 4222.5308 3456.6291 4222.1308 3456.6291 C 4221.6308 3456.6291 4221.4108 3456.8891 4221.4108 3457.6891 L 4221.4108 3458.4991 C 4221.4108 3458.9191 4221.4208 3459.5291 4221.4208 3459.9691 L 4222.0908 3460.0691 L 4222.0908 3460.3391 L 4220.0708 3460.3391 L 4220.0708 3460.0691 L 4220.6708 3459.9691 C 4220.6908 3459.5291 4220.7008 3458.9191 4220.7008 3458.4991 L 4220.7008 3457.6591 C 4220.7008 3457.4891 4220.7008 3457.3491 4220.7208 3457.2091 C 4220.2608 3456.7891 4219.8908 3456.6291 4219.5208 3456.6291 C 4219.0208 3456.6291 4218.7808 3456.8591 4218.7808 3457.6791 L 4218.7808 3458.4991 C 4218.7808 3458.9191 4218.7908 3459.5291 4218.8008 3459.9691 L 4219.4508 3460.0691 L 4219.4508 3460.3391 L 4217.4408 3460.3391 L 4217.4408 3460.0691 Z  M 4214.3208 3459.4291 C 4214.8108 3459.8091 4215.0108 3459.9391 4215.3208 3459.9391 C 4215.7308 3459.9391 4216.0308 3459.7291 4216.0308 3459.2591 C 4216.0308 3458.9391 4215.9008 3458.5991 4215.1308 3458.2991 C 4214.9408 3458.2291 4214.6308 3458.1191 4214.3208 3458.0391 Z  M 4212.9308 3459.8191 C 4213.0408 3459.9591 4213.1408 3460.0391 4213.2808 3460.0391 C 4213.4808 3460.0391 4213.6008 3459.8891 4213.6008 3459.4791 L 4213.6008 3457.5691 C 4213.6008 3456.4791 4214.0408 3456.0691 4214.9608 3456.0691 C 4215.8608 3456.0691 4216.5008 3456.4791 4216.6608 3457.1491 C 4216.6308 3457.3591 4216.5008 3457.4791 4216.2608 3457.4791 C 4216.0408 3457.4791 4215.9008 3457.3491 4215.8208 3457.0791 L 4215.6608 3456.4791 C 4215.4708 3456.4291 4215.3108 3456.3991 4215.1608 3456.3991 C 4214.5708 3456.3991 4214.3208 3456.6291 4214.3208 3457.4891 L 4214.3208 3457.7591 C 4214.6708 3457.8391 4215.0508 3457.9491 4215.3308 3458.0491 C 4216.4708 3458.4591 4216.7808 3458.8391 4216.7808 3459.3791 C 4216.7808 3460.0791 4216.2608 3460.4491 4215.6208 3460.4491 C 4215.0908 3460.4491 4214.7808 3460.2191 4214.3008 3459.7491 C 4214.2308 3460.1691 4213.9508 3460.4391 4213.5208 3460.4391 C 4213.2208 3460.4391 4212.9708 3460.3191 4212.7708 3459.9891 Z  M 4208.3108 3459.9691 C 4208.3208 3459.5291 4208.3308 3458.9191 4208.3308 3458.4991 L 4208.3308 3457.6591 C 4208.3308 3456.5291 4208.7008 3456.0691 4209.4508 3456.0691 C 4209.9908 3456.0691 4210.5808 3456.3791 4211.0208 3456.8791 L 4211.1008 3456.1591 L 4211.2208 3456.0791 L 4212.4508 3456.5591 L 4212.4508 3456.8191 L 4211.7508 3456.8891 C 4211.7408 3457.2391 4211.7308 3457.5491 4211.7308 3458.0391 L 4211.7308 3458.4991 C 4211.7308 3458.9091 4211.7408 3459.5191 4211.7408 3459.9691 L 4212.3908 3460.0691 L 4212.3908 3460.3391 L 4210.3808 3460.3391 L 4210.3808 3460.0691 L 4210.9808 3459.9691 C 4210.9908 3459.5191 4211.0008 3458.9091 4211.0008 3458.4991 L 4211.0008 3457.1991 C 4210.5408 3456.7891 4210.1708 3456.6191 4209.7808 3456.6191 C 4209.2608 3456.6191 4209.0508 3456.8891 4209.0508 3457.6791 L 4209.0508 3458.4991 C 4209.0508 3458.9191 4209.0608 3459.5291 4209.0608 3459.9691 L 4209.7108 3460.0691 L 4209.7108 3460.3391 L 4207.7008 3460.3391 L 4207.7008 3460.0691 Z  M 4203.2908 3459.0291 C 4203.7008 3459.3791 4203.9408 3459.4891 4204.1908 3459.4891 C 4204.5908 3459.4891 4204.8008 3459.1991 4204.8008 3458.6291 C 4204.8008 3457.9991 4204.5808 3457.4891 4204.3008 3457.1091 C 4204.0208 3456.7191 4203.6808 3456.5691 4203.4108 3456.5691 C 4203.2208 3456.5691 4203.0408 3456.6491 4202.8808 3456.8691 Z  M 4202.1808 3456.3191 L 4202.3208 3456.2091 L 4202.7908 3456.4491 C 4202.9808 3456.2791 4203.1508 3456.2091 4203.3708 3456.2091 C 4203.8208 3456.2091 4204.2908 3456.4791 4204.6708 3456.9491 C 4205.0708 3457.4191 4205.3908 3458.0791 4205.3908 3458.7991 C 4205.3908 3459.6191 4204.9408 3459.9591 4204.4608 3459.9591 C 4204.0108 3459.9591 4203.6108 3459.6691 4203.2508 3459.2491 C 4203.1808 3459.6491 4202.8708 3459.9591 4202.3508 3459.9591 C 4201.5808 3459.9591 4200.4208 3459.2091 4200.4208 3457.4791 C 4200.4208 3455.8291 4201.4808 3454.6591 4203.2608 3454.6591 C 4205.4608 3454.6591 4207.1208 3456.3791 4207.1208 3458.5591 C 4207.1208 3460.6391 4205.7008 3461.6991 4203.9508 3461.6991 C 4203.4008 3461.6991 4202.7908 3461.5791 4202.2708 3461.3191 L 4202.3608 3461.1091 C 4202.7808 3461.2991 4203.2208 3461.4091 4203.8108 3461.4091 C 4205.3408 3461.4091 4206.6908 3460.4391 4206.6908 3458.4791 C 4206.6908 3456.6391 4205.3008 3454.9591 4203.3008 3454.9591 C 4201.9008 3454.9591 4200.8308 3455.8991 4200.8308 3457.3991 C 4200.8308 3458.9291 4201.6008 3459.6091 4202.2208 3459.6091 C 4202.6208 3459.6091 4202.7808 3459.3591 4202.6908 3458.8791 Z  M 4198.1008 3458.6491 C 4198.6508 3458.6491 4198.9808 3458.1991 4198.9808 3457.5091 C 4198.9808 3456.8391 4198.6308 3456.3691 4198.0708 3456.3691 C 4197.5208 3456.3691 4197.2008 3456.8291 4197.2008 3457.4791 C 4197.2008 3458.1591 4197.5408 3458.6491 4198.1008 3458.6491 Z  M 4197.3908 3460.4591 C 4196.7608 3460.4591 4196.5308 3460.7691 4196.5308 3461.1591 C 4196.5308 3461.6791 4197.0508 3462.0791 4198.0508 3462.0791 C 4198.7408 3462.0791 4199.1908 3461.8191 4199.1908 3461.2391 C 4199.1908 3460.9291 4199.0908 3460.6991 4198.8308 3460.4391 C 4198.7108 3460.4491 4198.5808 3460.4591 4198.4008 3460.4591 Z  M 4195.8508 3456.1591 L 4195.9808 3456.0791 L 4196.9808 3456.4091 C 4197.2508 3456.1791 4197.6308 3456.0691 4198.0808 3456.0691 C 4199.0008 3456.0691 4199.6608 3456.5891 4199.6608 3457.4991 C 4199.6608 3458.0891 4199.4108 3458.5091 4198.9908 3458.7391 C 4199.4308 3459.1491 4199.5908 3459.4291 4199.5908 3459.7091 C 4199.5908 3460.0491 4199.3808 3460.2791 4199.0208 3460.3891 C 4199.6408 3460.6791 4199.8708 3460.9791 4199.8708 3461.3591 C 4199.8708 3461.9891 4199.3208 3462.4391 4198.0508 3462.4391 C 4196.6208 3462.4391 4195.8908 3461.6891 4195.8908 3460.9291 C 4195.8908 3460.2391 4196.3408 3459.8191 4197.3008 3459.8191 L 4198.4608 3459.8191 C 4198.9008 3459.8191 4199.0208 3459.6691 4199.0208 3459.4091 C 4199.0208 3459.1991 4198.9408 3459.0391 4198.7808 3458.8391 C 4198.5708 3458.9091 4198.3408 3458.9491 4198.0808 3458.9491 C 4197.1708 3458.9491 4196.5008 3458.4191 4196.5008 3457.4991 C 4196.5008 3457.1591 4196.5908 3456.8791 4196.7408 3456.6591 L 4195.8508 3456.6791 Z  M 4188.6408 3459.9691 C 4188.6508 3459.5291 4188.6608 3458.9191 4188.6608 3458.4991 L 4188.6608 3457.5891 C 4188.6608 3456.5091 4189.0608 3456.0691 4189.7808 3456.0691 C 4190.3408 3456.0691 4190.9008 3456.3291 4191.3608 3456.8891 C 4191.5108 3456.3191 4191.8608 3456.0691 4192.4008 3456.0691 C 4192.9408 3456.0691 4193.5008 3456.3791 4193.9308 3456.8691 L 4194.0008 3456.1591 L 4194.1208 3456.0791 L 4195.3508 3456.5591 L 4195.3508 3456.8191 L 4194.6608 3456.8891 C 4194.6308 3457.2391 4194.6308 3457.5491 4194.6308 3458.0391 L 4194.6308 3458.4991 C 4194.6308 3458.9091 4194.6408 3459.5191 4194.6508 3459.9691 L 4195.3008 3460.0691 L 4195.3008 3460.3391 L 4193.2808 3460.3391 L 4193.2808 3460.0691 L 4193.8908 3459.9691 C 4193.9008 3459.5191 4193.9008 3458.9091 4193.9008 3458.4991 L 4193.9008 3457.1991 C 4193.4608 3456.7991 4193.1108 3456.6291 4192.7108 3456.6291 C 4192.2208 3456.6291 4191.9908 3456.8891 4191.9908 3457.6891 L 4191.9908 3458.4991 C 4191.9908 3458.9191 4192.0008 3459.5291 4192.0108 3459.9691 L 4192.6708 3460.0691 L 4192.6708 3460.3391 L 4190.6608 3460.3391 L 4190.6608 3460.0691 L 4191.2608 3459.9691 C 4191.2708 3459.5291 4191.2808 3458.9191 4191.2808 3458.4991 L 4191.2808 3457.6591 C 4191.2808 3457.4891 4191.2908 3457.3491 4191.3008 3457.2091 C 4190.8408 3456.7891 4190.4708 3456.6291 4190.1008 3456.6291 C 4189.6008 3456.6291 4189.3708 3456.8591 4189.3708 3457.6791 L 4189.3708 3458.4991 C 4189.3708 3458.9191 4189.3808 3459.5291 4189.3808 3459.9691 L 4190.0308 3460.0691 L 4190.0308 3460.3391 L 4188.0208 3460.3391 L 4188.0208 3460.0691 Z  M 4184.9008 3459.4291 C 4185.3908 3459.8091 4185.5908 3459.9391 4185.9008 3459.9391 C 4186.3108 3459.9391 4186.6208 3459.7291 4186.6208 3459.2591 C 4186.6208 3458.9391 4186.4808 3458.5991 4185.7108 3458.2991 C 4185.5208 3458.2291 4185.2208 3458.1191 4184.9008 3458.0391 Z  M 4183.5108 3459.8191 C 4183.6208 3459.9591 4183.7208 3460.0391 4183.8608 3460.0391 C 4184.0608 3460.0391 4184.1808 3459.8891 4184.1808 3459.4791 L 4184.1808 3457.5691 C 4184.1808 3456.4791 4184.6208 3456.0691 4185.5408 3456.0691 C 4186.4508 3456.0691 4187.0908 3456.4791 4187.2408 3457.1491 C 4187.2208 3457.3591 4187.0908 3457.4791 4186.8508 3457.4791 C 4186.6208 3457.4791 4186.4808 3457.3491 4186.4108 3457.0791 L 4186.2408 3456.4791 C 4186.0608 3456.4291 4185.9008 3456.3991 4185.7408 3456.3991 C 4185.1508 3456.3991 4184.9008 3456.6291 4184.9008 3457.4891 L 4184.9008 3457.7591 C 4185.2608 3457.8391 4185.6308 3457.9491 4185.9108 3458.0491 C 4187.0608 3458.4591 4187.3608 3458.8391 4187.3608 3459.3791 C 4187.3608 3460.0791 4186.8408 3460.4491 4186.2008 3460.4491 C 4185.6708 3460.4491 4185.3708 3460.2191 4184.8908 3459.7491 C 4184.8208 3460.1691 4184.5408 3460.4391 4184.1008 3460.4391 C 4183.8008 3460.4391 4183.5508 3460.3191 4183.3508 3459.9891 Z  M 4181.9508 3455.0691 C 4181.6508 3455.0691 4181.3908 3454.8391 4181.3908 3454.5191 C 4181.3908 3454.1991 4181.6508 3453.9891 4181.9508 3453.9891 C 4182.2708 3453.9891 4182.5208 3454.1991 4182.5208 3454.5191 C 4182.5208 3454.8391 4182.2708 3455.0691 4181.9508 3455.0691 Z  M 4181.5708 3459.9691 C 4181.5808 3459.5191 4181.5808 3458.9091 4181.5808 3458.4991 L 4181.5808 3457.3191 L 4181.5708 3456.1591 L 4181.6908 3456.0791 L 4183.0308 3456.5491 L 4183.0308 3456.8091 L 4182.3208 3456.8791 C 4182.3008 3457.2591 4182.3008 3457.5491 4182.3008 3458.0391 L 4182.3008 3458.4991 C 4182.3008 3458.9091 4182.3008 3459.5191 4182.3108 3459.9691 L 4182.9808 3460.0691 L 4182.9808 3460.3391 L 4180.9708 3460.3391 L 4180.9708 3460.0691 Z  M 4178.9808 3459.9691 C 4178.9808 3459.4891 4178.9908 3458.9791 4178.9908 3458.4991 L 4178.9908 3455.1691 L 4178.9508 3453.9191 L 4179.0708 3453.8591 L 4180.4208 3454.2291 L 4180.4208 3454.4891 L 4179.7108 3454.5591 L 4179.7108 3458.4991 C 4179.7108 3458.9791 4179.7208 3459.4891 4179.7308 3459.9691 L 4180.4208 3460.0691 L 4180.4208 3460.3391 L 4178.2708 3460.3391 L 4178.2708 3460.0691 Z  M 4176.7208 3460.4491 C 4176.3808 3460.4491 4176.1208 3460.1791 4176.1208 3459.8691 C 4176.1208 3459.5291 4176.3808 3459.2591 4176.7208 3459.2591 C 4177.0508 3459.2591 4177.3108 3459.5291 4177.3108 3459.8691 C 4177.3108 3460.1791 4177.0508 3460.4491 4176.7208 3460.4491 Z  M 4171.8608 3459.2991 C 4172.1408 3459.7191 4172.5808 3459.9591 4173.0808 3459.9591 C 4173.9208 3459.9591 4174.5308 3459.3191 4174.5308 3458.1991 C 4174.5308 3457.0591 4173.9808 3456.3991 4173.1808 3456.3991 C 4173.0508 3456.3991 4172.8808 3456.4291 4172.7108 3456.4791 L 4172.5408 3457.0991 C 4172.5008 3457.3491 4172.3608 3457.5091 4172.0808 3457.5091 C 4171.8708 3457.5091 4171.7408 3457.3991 4171.7008 3457.1891 C 4171.8208 3456.5391 4172.4608 3456.0691 4173.2308 3456.0691 C 4174.3008 3456.0691 4175.2808 3456.8891 4175.2808 3458.2791 C 4175.2808 3459.6091 4174.4908 3460.4491 4173.3008 3460.4491 C 4172.4908 3460.4491 4171.9408 3460.0591 4171.6808 3459.3791 Z  M 4168.9708 3460.4491 C 4167.9408 3460.4491 4166.9508 3459.7191 4166.9508 3458.2791 C 4166.9508 3456.8191 4167.9508 3456.0691 4168.9708 3456.0691 C 4169.9908 3456.0691 4170.9808 3456.8291 4170.9808 3458.2791 C 4170.9808 3459.7191 4170.0008 3460.4491 4168.9708 3460.4491 Z  M 4168.9708 3460.1191 C 4169.7408 3460.1191 4170.1808 3459.4791 4170.1808 3458.2791 C 4170.1808 3457.0591 4169.7408 3456.3991 4168.9708 3456.3991 C 4168.2108 3456.3991 4167.7608 3457.0591 4167.7608 3458.2791 C 4167.7608 3459.4791 4168.2108 3460.1191 4168.9708 3460.1191 Z  M 4159.5508 3459.9691 C 4159.5608 3459.5291 4159.5708 3458.9191 4159.5708 3458.4991 L 4159.5708 3457.5891 C 4159.5708 3456.5091 4159.9808 3456.0691 4160.6908 3456.0691 C 4161.2508 3456.0691 4161.8108 3456.3291 4162.2708 3456.8891 C 4162.4208 3456.3191 4162.7708 3456.0691 4163.3108 3456.0691 C 4163.8508 3456.0691 4164.4108 3456.3791 4164.8408 3456.8691 L 4164.9108 3456.1591 L 4165.0308 3456.0791 L 4166.2608 3456.5591 L 4166.2608 3456.8191 L 4165.5708 3456.8891 C 4165.5408 3457.2391 4165.5408 3457.5491 4165.5408 3458.0391 L 4165.5408 3458.4991 C 4165.5408 3458.9091 4165.5508 3459.5191 4165.5608 3459.9691 L 4166.2108 3460.0691 L 4166.2108 3460.3391 L 4164.1908 3460.3391 L 4164.1908 3460.0691 L 4164.8008 3459.9691 C 4164.8108 3459.5191 4164.8208 3458.9091 4164.8208 3458.4991 L 4164.8208 3457.1991 C 4164.3708 3456.7991 4164.0208 3456.6291 4163.6208 3456.6291 C 4163.1308 3456.6291 4162.9008 3456.8891 4162.9008 3457.6891 L 4162.9008 3458.4991 C 4162.9008 3458.9191 4162.9108 3459.5291 4162.9208 3459.9691 L 4163.5808 3460.0691 L 4163.5808 3460.3391 L 4161.5708 3460.3391 L 4161.5708 3460.0691 L 4162.1708 3459.9691 C 4162.1808 3459.5291 4162.1908 3458.9191 4162.1908 3458.4991 L 4162.1908 3457.6591 C 4162.1908 3457.4891 4162.2008 3457.3491 4162.2208 3457.2091 C 4161.7508 3456.7891 4161.3808 3456.6291 4161.0208 3456.6291 C 4160.5108 3456.6291 4160.2808 3456.8591 4160.2808 3457.6791 L 4160.2808 3458.4991 C 4160.2808 3458.9191 4160.2908 3459.5291 4160.3008 3459.9691 L 4160.9408 3460.0691 L 4160.9408 3460.3391 L 4158.9408 3460.3391 L 4158.9408 3460.0691 Z  M 4157.9408 3455.2991 L 4158.1508 3455.6791 L 4155.0208 3457.4391 L 4158.1508 3459.2191 L 4157.9408 3459.5991 L 4154.5208 3457.6091 L 4154.5208 3457.2791 Z "  stroke="none" stroke-width="0.8"  /></g></g><g transform="matrix(-1, 0, 0, 1, 8454.5, 0)"><g c_partid="part_pad" c_etype="pinpart" c_origin="4030.861,3434.339" layerid="11" number="1" net="GND" plated ="Y"  id="gge2301" locked="0" c_rotation="0" c_width="16.5" c_height="16.5" title="GND" c_shape="ELLIPSE" pasteexpansion="0" solderexpansion="1"><ellipse c_etype="pad_shell" cx="4030.861" cy="3434.339" rx="8.25" ry="8.25" layerid="11" stroke-width="0"/><circle c_etype="pad_hole" cx="4030.861" cy="3434.3392" r="8.25" layerid="11" stroke-width="0"/></g><g c_partid="part_pad" c_etype="pinpart" c_origin="4030.861,3554.969" layerid="11" number="1" net="GND" plated ="Y"  id="gge3805" locked="0" c_rotation="0" c_width="16.5" c_height="16.5" title="GND" c_shape="ELLIPSE" pasteexpansion="0" solderexpansion="1"><ellipse c_etype="pad_shell" cx="4030.861" cy="3554.969" rx="8.25" ry="8.25" layerid="11" stroke-width="0"/><circle c_etype="pad_hole" cx="4030.861" cy="3554.9691" r="8.25" layerid="11" stroke-width="0"/></g><g c_partid="part_pad" c_etype="pinpart" c_origin="4423.341,3554.969" layerid="11" number="1" net="GND" plated ="Y"  id="gge3821" locked="0" c_rotation="0" c_width="16.5" c_height="16.5" title="GND" c_shape="ELLIPSE" pasteexpansion="0" solderexpansion="1"><ellipse c_etype="pad_shell" cx="4423.341" cy="3554.969" rx="8.25" ry="8.25" layerid="11" stroke-width="0"/><circle c_etype="pad_hole" cx="4423.3413" cy="3554.9691" r="8.25" layerid="11" stroke-width="0"/></g><g c_partid="part_pad" c_etype="pinpart" c_origin="4423.341,3434.339" layerid="11" number="1" net="GND" plated ="Y"  id="gge3822" locked="0" c_rotation="0" c_width="16.5" c_height="16.5" title="GND" c_shape="ELLIPSE" pasteexpansion="0" solderexpansion="1"><ellipse c_etype="pad_shell" cx="4423.341" cy="3434.339" rx="8.25" ry="8.25" layerid="11" stroke-width="0"/><circle c_etype="pad_hole" cx="4423.3413" cy="3434.3392" r="8.25" layerid="11" stroke-width="0"/></g><g c_partid="part_pad" c_etype="pinpart" c_origin="4041.861,3523.839" layerid="11" number="6" net="RPI-GND" plated ="Y"  id="gge9" locked="0" c_rotation="270" c_width="7" c_height="7" title="RPI-GND" c_shape="ELLIPSE" pasteexpansion="0" solderexpansion="0.4"><ellipse c_etype="pad_shell" cx="4041.861" cy="3523.839" rx="3.5" ry="3.5" layerid="11" stroke-width="0"/><circle c_etype="pad_hole" cx="4041.861" cy="3523.8392" r="2" layerid="11" stroke-width="0"/></g><g c_partid="part_pad" c_etype="pinpart" c_origin="4041.861,3513.839" layerid="11" number="5" net="U4_1" plated ="Y"  id="gge14" locked="0" c_rotation="270" c_width="7" c_height="7" title="U4_1" c_shape="ELLIPSE" pasteexpansion="0" solderexpansion="0.4"><ellipse c_etype="pad_shell" cx="4041.861" cy="3513.839" rx="3.5" ry="3.5" layerid="11" stroke-width="0"/><circle c_etype="pad_hole" cx="4041.861" cy="3513.8392" r="2" layerid="11" stroke-width="0"/></g><g c_partid="part_pad" c_etype="pinpart" c_origin="4041.861,3503.839" layerid="11" number="4" net="U3_1" plated ="Y"  id="gge19" locked="0" c_rotation="270" c_width="7" c_height="7" title="U3_1" c_shape="ELLIPSE" pasteexpansion="0" solderexpansion="0.4"><ellipse c_etype="pad_shell" cx="4041.861" cy="3503.839" rx="3.5" ry="3.5" layerid="11" stroke-width="0"/><circle c_etype="pad_hole" cx="4041.861" cy="3503.8392" r="2" layerid="11" stroke-width="0"/></g><g c_partid="part_pad" c_etype="pinpart" c_origin="4041.861,3493.839" layerid="11" number="3" net="U2_1" plated ="Y"  id="gge24" locked="0" c_rotation="270" c_width="7" c_height="7" title="U2_1" c_shape="ELLIPSE" pasteexpansion="0" solderexpansion="0.4"><ellipse c_etype="pad_shell" cx="4041.861" cy="3493.839" rx="3.5" ry="3.5" layerid="11" stroke-width="0"/><circle c_etype="pad_hole" cx="4041.861" cy="3493.8392" r="2" layerid="11" stroke-width="0"/></g><g c_partid="part_pad" c_etype="pinpart" c_origin="4041.861,3483.839" layerid="11" number="2" net="U1_1" plated ="Y"  id="gge29" locked="0" c_rotation="270" c_width="7" c_height="7" title="U1_1" c_shape="ELLIPSE" pasteexpansion="0" solderexpansion="0.4"><ellipse c_etype="pad_shell" cx="4041.861" cy="3483.839" rx="3.5" ry="3.5" layerid="11" stroke-width="0"/><circle c_etype="pad_hole" cx="4041.861" cy="3483.8392" r="2" layerid="11" stroke-width="0"/></g><g c_partid="part_pad" c_etype="pinpart" c_origin="4041.861,3473.839" layerid="11" number="1" net="+5V-SNC" plated ="Y"  id="gge34" locked="0" c_rotation="270" c_width="7" c_height="7" title="+5V-SNC" c_shape="RECT" pasteexpansion="0" solderexpansion="0.4"><polygon  c_etype="pad_shell" points="4045.3608 3470.3391 4045.3608 3477.3391 4038.3608 3477.3391 4038.3608 3470.3391" layerid="11" stroke-width="0" /><circle c_etype="pad_hole" cx="4041.861" cy="3473.8392" r="2" layerid="11" stroke-width="0"/></g><g c_partid="part_pad" c_etype="pinpart" c_origin="4071.361,3436.859" layerid="11" number="1" net="12V+PRERELAY" plated ="Y"  id="gge46" locked="0" c_rotation="0" c_width="6" c_height="6" title="12V+PRERELAY" c_shape="ELLIPSE" pasteexpansion="0" solderexpansion="0.4"><ellipse c_etype="pad_shell" cx="4071.361" cy="3436.859" rx="3" ry="3" layerid="11" stroke-width="0"/><circle c_etype="pad_hole" cx="4071.361" cy="3436.8589" r="1.8" layerid="11" stroke-width="0"/></g><g c_partid="part_pad" c_etype="pinpart" c_origin="4081.361,3436.859" layerid="11" number="2" net="12V+PRERELAY" plated ="Y"  id="gge51" locked="0" c_rotation="0" c_width="6" c_height="6" title="12V+PRERELAY" c_shape="ELLIPSE" pasteexpansion="0" solderexpansion="0.4"><ellipse c_etype="pad_shell" cx="4081.361" cy="3436.859" rx="3" ry="3" layerid="11" stroke-width="0"/><circle c_etype="pad_hole" cx="4081.361" cy="3436.8589" r="1.8" layerid="11" stroke-width="0"/></g><g c_partid="part_pad" c_etype="pinpart" c_origin="4091.361,3436.859" layerid="11" number="3" net="12VGND" plated ="Y"  id="gge56" locked="0" c_rotation="0" c_width="6" c_height="6" title="12VGND" c_shape="ELLIPSE" pasteexpansion="0" solderexpansion="0.4"><ellipse c_etype="pad_shell" cx="4091.361" cy="3436.859" rx="3" ry="3" layerid="11" stroke-width="0"/><circle c_etype="pad_hole" cx="4091.361" cy="3436.8589" r="1.8" layerid="11" stroke-width="0"/></g><g c_partid="part_pad" c_etype="pinpart" c_origin="4101.361,3436.859" layerid="11" number="4" net="12VGND" plated ="Y"  id="gge61" locked="0" c_rotation="0" c_width="6" c_height="6" title="12VGND" c_shape="ELLIPSE" pasteexpansion="0" solderexpansion="0.4"><ellipse c_etype="pad_shell" cx="4101.361" cy="3436.859" rx="3" ry="3" layerid="11" stroke-width="0"/><circle c_etype="pad_hole" cx="4101.361" cy="3436.8589" r="1.8" layerid="11" stroke-width="0"/></g><g c_partid="part_pad" c_etype="pinpart" c_origin="4398.94,3439.89" layerid="11" number="1" net="SOLENOID_1+" plated ="Y"  id="gge73" locked="0" c_rotation="0" c_width="7" c_height="7" title="SOLENOID_1+" c_shape="RECT" pasteexpansion="0" solderexpansion="0.4"><polygon  c_etype="pad_shell" points="4395.4395 3436.3903 4402.4395 3436.3903 4402.4395 3443.3903 4395.4395 3443.3903" layerid="11" stroke-width="0" /><circle c_etype="pad_hole" cx="4398.9397" cy="3439.8904" r="2" layerid="11" stroke-width="0"/></g><g c_partid="part_pad" c_etype="pinpart" c_origin="4398.94,3429.89" layerid="11" number="2" net="SOLENOID_1-" plated ="Y"  id="gge78" locked="0" c_rotation="0" c_width="7" c_height="7" title="SOLENOID_1-" c_shape="ELLIPSE" pasteexpansion="0" solderexpansion="0.4"><ellipse c_etype="pad_shell" cx="4398.94" cy="3429.89" rx="3.5" ry="3.5" layerid="11" stroke-width="0"/><circle c_etype="pad_hole" cx="4398.9397" cy="3429.8904" r="2" layerid="11" stroke-width="0"/></g><g c_partid="part_pad" c_etype="pinpart" c_origin="4398.94,3479.26" layerid="11" number="1" net="SOLENOID_2+" plated ="Y"  id="gge90" locked="0" c_rotation="0" c_width="7" c_height="7" title="SOLENOID_2+" c_shape="RECT" pasteexpansion="0" solderexpansion="0.4"><polygon  c_etype="pad_shell" points="4395.4395 3475.7604 4402.4395 3475.7604 4402.4395 3482.7604 4395.4395 3482.7604" layerid="11" stroke-width="0" /><circle c_etype="pad_hole" cx="4398.9397" cy="3479.2605" r="2" layerid="11" stroke-width="0"/></g><g c_partid="part_pad" c_etype="pinpart" c_origin="4398.94,3469.26" layerid="11" number="2" net="SOLENOID_2-" plated ="Y"  id="gge95" locked="0" c_rotation="0" c_width="7" c_height="7" title="SOLENOID_2-" c_shape="ELLIPSE" pasteexpansion="0" solderexpansion="0.4"><ellipse c_etype="pad_shell" cx="4398.94" cy="3469.26" rx="3.5" ry="3.5" layerid="11" stroke-width="0"/><circle c_etype="pad_hole" cx="4398.9397" cy="3469.2605" r="2" layerid="11" stroke-width="0"/></g><g c_partid="part_pad" c_etype="pinpart" c_origin="4398.94,3518.63" layerid="11" number="1" net="SOLENOID_3+" plated ="Y"  id="gge107" locked="0" c_rotation="0" c_width="7" c_height="7" title="SOLENOID_3+" c_shape="RECT" pasteexpansion="0" solderexpansion="0.4"><polygon  c_etype="pad_shell" points="4395.4395 3515.1304 4402.4395 3515.1304 4402.4395 3522.1304 4395.4395 3522.1304" layerid="11" stroke-width="0" /><circle c_etype="pad_hole" cx="4398.9397" cy="3518.6305" r="2" layerid="11" stroke-width="0"/></g><g c_partid="part_pad" c_etype="pinpart" c_origin="4398.94,3508.63" layerid="11" number="2" net="SOLENOID_3-" plated ="Y"  id="gge112" locked="0" c_rotation="0" c_width="7" c_height="7" title="SOLENOID_3-" c_shape="ELLIPSE" pasteexpansion="0" solderexpansion="0.4"><ellipse c_etype="pad_shell" cx="4398.94" cy="3508.63" rx="3.5" ry="3.5" layerid="11" stroke-width="0"/><circle c_etype="pad_hole" cx="4398.9397" cy="3508.6305" r="2" layerid="11" stroke-width="0"/></g><g c_partid="part_pad" c_etype="pinpart" c_origin="4398.94,3558.001" layerid="11" number="1" net="SOLENOID_4+" plated ="Y"  id="gge124" locked="0" c_rotation="0" c_width="7" c_height="7" title="SOLENOID_4+" c_shape="RECT" pasteexpansion="0" solderexpansion="0.4"><polygon  c_etype="pad_shell" points="4395.4395 3554.5005 4402.4395 3554.5005 4402.4395 3561.5005 4395.4395 3561.5005" layerid="11" stroke-width="0" /><circle c_etype="pad_hole" cx="4398.9397" cy="3558.0006" r="2" layerid="11" stroke-width="0"/></g><g c_partid="part_pad" c_etype="pinpart" c_origin="4398.94,3548" layerid="11" number="2" net="SOLENOID_4-" plated ="Y"  id="gge129" locked="0" c_rotation="0" c_width="7" c_height="7" title="SOLENOID_4-" c_shape="ELLIPSE" pasteexpansion="0" solderexpansion="0.4"><ellipse c_etype="pad_shell" cx="4398.94" cy="3548" rx="3.5" ry="3.5" layerid="11" stroke-width="0"/><circle c_etype="pad_hole" cx="4398.9397" cy="3548.0006" r="2" layerid="11" stroke-width="0"/></g><g c_partid="part_pad" c_etype="pinpart" c_origin="4133.704,3448.67" layerid="11" number="3" net="12V+PRERELAY" plated ="Y"  id="gge788" locked="0" c_rotation="0" c_width="9.0551" c_height="9.0551" title="12V+PRERELAY" c_shape="ELLIPSE" pasteexpansion="0" solderexpansion="0.2"><ellipse c_etype="pad_shell" cx="4133.704" cy="3448.67" rx="4.52755" ry="4.52755" layerid="11" stroke-width="0"/><circle c_etype="pad_hole" cx="4133.7038" cy="3448.6699" r="2.9528" layerid="11" stroke-width="0"/></g><g c_partid="part_pad" c_etype="pinpart" c_origin="4143.704,3468.355" layerid="11" number="1" net="RPI-GND" plated ="Y"  id="gge793" locked="0" c_rotation="0" c_width="9.0551" c_height="9.0551" title="RPI-GND" c_shape="ELLIPSE" pasteexpansion="0" solderexpansion="0.2"><ellipse c_etype="pad_shell" cx="4143.704" cy="3468.355" rx="4.52755" ry="4.52755" layerid="11" stroke-width="0"/><circle c_etype="pad_hole" cx="4143.7038" cy="3468.3549" r="2.9528" layerid="11" stroke-width="0"/></g><g c_partid="part_pad" c_etype="pinpart" c_origin="4183.861,3468.355" layerid="11" number="4" net="12V+" plated ="Y"  id="gge798" locked="0" c_rotation="0" c_width="9.0551" c_height="9.0551" title="12V+" c_shape="ELLIPSE" pasteexpansion="0" solderexpansion="0.2"><ellipse c_etype="pad_shell" cx="4183.861" cy="3468.355" rx="4.52755" ry="4.52755" layerid="11" stroke-width="0"/><circle c_etype="pad_hole" cx="4183.8608" cy="3468.3549" r="2.9528" layerid="11" stroke-width="0"/></g><g c_partid="part_pad" c_etype="pinpart" c_origin="4143.704,3428.985" layerid="11" number="2" net="+5V-SNC" plated ="Y"  id="gge803" locked="0" c_rotation="0" c_width="9.0551" c_height="9.0551" title="+5V-SNC" c_shape="ELLIPSE" pasteexpansion="0" solderexpansion="0.2"><ellipse c_etype="pad_shell" cx="4143.704" cy="3428.985" rx="4.52755" ry="4.52755" layerid="11" stroke-width="0"/><circle c_etype="pad_hole" cx="4143.7038" cy="3428.9849" r="2.9528" layerid="11" stroke-width="0"/></g><g c_partid="part_pad" c_etype="pinpart" c_origin="4208.507,3448.67" layerid="11" number="3" net="12V+" plated ="Y"  id="gge834" locked="0" c_rotation="0" c_width="9.0551" c_height="9.0551" title="12V+" c_shape="ELLIPSE" pasteexpansion="0" solderexpansion="0.2"><ellipse c_etype="pad_shell" cx="4208.507" cy="3448.67" rx="4.52755" ry="4.52755" layerid="11" stroke-width="0"/><circle c_etype="pad_hole" cx="4208.5069" cy="3448.6699" r="2.9528" layerid="11" stroke-width="0"/></g><g c_partid="part_pad" c_etype="pinpart" c_origin="4218.507,3468.355" layerid="11" number="1" net="K2_1" plated ="Y"  id="gge839" locked="0" c_rotation="0" c_width="9.0551" c_height="9.0551" title="K2_1" c_shape="ELLIPSE" pasteexpansion="0" solderexpansion="0.2"><ellipse c_etype="pad_shell" cx="4218.507" cy="3468.355" rx="4.52755" ry="4.52755" layerid="11" stroke-width="0"/><circle c_etype="pad_hole" cx="4218.5069" cy="3468.3549" r="2.9528" layerid="11" stroke-width="0"/></g><g c_partid="part_pad" c_etype="pinpart" c_origin="4258.664,3468.355" layerid="11" number="4" net="SOLENOID_1+" plated ="Y"  id="gge844" locked="0" c_rotation="0" c_width="9.0551" c_height="9.0551" title="SOLENOID_1+" c_shape="ELLIPSE" pasteexpansion="0" solderexpansion="0.2"><ellipse c_etype="pad_shell" cx="4258.664" cy="3468.355" rx="4.52755" ry="4.52755" layerid="11" stroke-width="0"/><circle c_etype="pad_hole" cx="4258.6639" cy="3468.3549" r="2.9528" layerid="11" stroke-width="0"/></g><g c_partid="part_pad" c_etype="pinpart" c_origin="4218.507,3428.985" layerid="11" number="2" net="5V+" plated ="Y"  id="gge849" locked="0" c_rotation="0" c_width="9.0551" c_height="9.0551" title="5V+" c_shape="ELLIPSE" pasteexpansion="0" solderexpansion="0.2"><ellipse c_etype="pad_shell" cx="4218.507" cy="3428.985" rx="4.52755" ry="4.52755" layerid="11" stroke-width="0"/><circle c_etype="pad_hole" cx="4218.5069" cy="3428.9849" r="2.9528" layerid="11" stroke-width="0"/></g><g c_partid="part_pad" c_etype="pinpart" c_origin="4283.31,3448.67" layerid="11" number="3" net="12V+" plated ="Y"  id="gge880" locked="0" c_rotation="0" c_width="9.0551" c_height="9.0551" title="12V+" c_shape="ELLIPSE" pasteexpansion="0" solderexpansion="0.2"><ellipse c_etype="pad_shell" cx="4283.31" cy="3448.67" rx="4.52755" ry="4.52755" layerid="11" stroke-width="0"/><circle c_etype="pad_hole" cx="4283.3101" cy="3448.6699" r="2.9528" layerid="11" stroke-width="0"/></g><g c_partid="part_pad" c_etype="pinpart" c_origin="4293.31,3468.355" layerid="11" number="1" net="K3_1" plated ="Y"  id="gge885" locked="0" c_rotation="0" c_width="9.0551" c_height="9.0551" title="K3_1" c_shape="ELLIPSE" pasteexpansion="0" solderexpansion="0.2"><ellipse c_etype="pad_shell" cx="4293.31" cy="3468.355" rx="4.52755" ry="4.52755" layerid="11" stroke-width="0"/><circle c_etype="pad_hole" cx="4293.3101" cy="3468.3549" r="2.9528" layerid="11" stroke-width="0"/></g><g c_partid="part_pad" c_etype="pinpart" c_origin="4333.467,3468.355" layerid="11" number="4" net="SOLENOID_2+" plated ="Y"  id="gge890" locked="0" c_rotation="0" c_width="9.0551" c_height="9.0551" title="SOLENOID_2+" c_shape="ELLIPSE" pasteexpansion="0" solderexpansion="0.2"><ellipse c_etype="pad_shell" cx="4333.467" cy="3468.355" rx="4.52755" ry="4.52755" layerid="11" stroke-width="0"/><circle c_etype="pad_hole" cx="4333.4671" cy="3468.3549" r="2.9528" layerid="11" stroke-width="0"/></g><g c_partid="part_pad" c_etype="pinpart" c_origin="4293.31,3428.985" layerid="11" number="2" net="5V+" plated ="Y"  id="gge895" locked="0" c_rotation="0" c_width="9.0551" c_height="9.0551" title="5V+" c_shape="ELLIPSE" pasteexpansion="0" solderexpansion="0.2"><ellipse c_etype="pad_shell" cx="4293.31" cy="3428.985" rx="4.52755" ry="4.52755" layerid="11" stroke-width="0"/><circle c_etype="pad_hole" cx="4293.3101" cy="3428.9849" r="2.9528" layerid="11" stroke-width="0"/></g><g c_partid="part_pad" c_etype="pinpart" c_origin="4283.31,3507.725" layerid="11" number="3" net="12V+" plated ="Y"  id="gge926" locked="0" c_rotation="0" c_width="9.0551" c_height="9.0551" title="12V+" c_shape="ELLIPSE" pasteexpansion="0" solderexpansion="0.2"><ellipse c_etype="pad_shell" cx="4283.31" cy="3507.725" rx="4.52755" ry="4.52755" layerid="11" stroke-width="0"/><circle c_etype="pad_hole" cx="4283.3101" cy="3507.725" r="2.9528" layerid="11" stroke-width="0"/></g><g c_partid="part_pad" c_etype="pinpart" c_origin="4293.31,3527.41" layerid="11" number="1" net="K4_1" plated ="Y"  id="gge931" locked="0" c_rotation="0" c_width="9.0551" c_height="9.0551" title="K4_1" c_shape="ELLIPSE" pasteexpansion="0" solderexpansion="0.2"><ellipse c_etype="pad_shell" cx="4293.31" cy="3527.41" rx="4.52755" ry="4.52755" layerid="11" stroke-width="0"/><circle c_etype="pad_hole" cx="4293.3101" cy="3527.41" r="2.9528" layerid="11" stroke-width="0"/></g><g c_partid="part_pad" c_etype="pinpart" c_origin="4333.467,3527.41" layerid="11" number="4" net="SOLENOID_3+" plated ="Y"  id="gge936" locked="0" c_rotation="0" c_width="9.0551" c_height="9.0551" title="SOLENOID_3+" c_shape="ELLIPSE" pasteexpansion="0" solderexpansion="0.2"><ellipse c_etype="pad_shell" cx="4333.467" cy="3527.41" rx="4.52755" ry="4.52755" layerid="11" stroke-width="0"/><circle c_etype="pad_hole" cx="4333.4671" cy="3527.41" r="2.9528" layerid="11" stroke-width="0"/></g><g c_partid="part_pad" c_etype="pinpart" c_origin="4293.31,3488.04" layerid="11" number="2" net="5V+" plated ="Y"  id="gge941" locked="0" c_rotation="0" c_width="9.0551" c_height="9.0551" title="5V+" c_shape="ELLIPSE" pasteexpansion="0" solderexpansion="0.2"><ellipse c_etype="pad_shell" cx="4293.31" cy="3488.04" rx="4.52755" ry="4.52755" layerid="11" stroke-width="0"/><circle c_etype="pad_hole" cx="4293.3101" cy="3488.04" r="2.9528" layerid="11" stroke-width="0"/></g><g c_partid="part_pad" c_etype="pinpart" c_origin="4208.507,3507.725" layerid="11" number="3" net="12V+" plated ="Y"  id="gge972" locked="0" c_rotation="0" c_width="9.0551" c_height="9.0551" title="12V+" c_shape="ELLIPSE" pasteexpansion="0" solderexpansion="0.2"><ellipse c_etype="pad_shell" cx="4208.507" cy="3507.725" rx="4.52755" ry="4.52755" layerid="11" stroke-width="0"/><circle c_etype="pad_hole" cx="4208.5069" cy="3507.725" r="2.9528" layerid="11" stroke-width="0"/></g><g c_partid="part_pad" c_etype="pinpart" c_origin="4218.507,3527.41" layerid="11" number="1" net="K5_1" plated ="Y"  id="gge977" locked="0" c_rotation="0" c_width="9.0551" c_height="9.0551" title="K5_1" c_shape="ELLIPSE" pasteexpansion="0" solderexpansion="0.2"><ellipse c_etype="pad_shell" cx="4218.507" cy="3527.41" rx="4.52755" ry="4.52755" layerid="11" stroke-width="0"/><circle c_etype="pad_hole" cx="4218.5069" cy="3527.41" r="2.9528" layerid="11" stroke-width="0"/></g><g c_partid="part_pad" c_etype="pinpart" c_origin="4258.664,3527.41" layerid="11" number="4" net="SOLENOID_4+" plated ="Y"  id="gge982" locked="0" c_rotation="0" c_width="9.0551" c_height="9.0551" title="SOLENOID_4+" c_shape="ELLIPSE" pasteexpansion="0" solderexpansion="0.2"><ellipse c_etype="pad_shell" cx="4258.664" cy="3527.41" rx="4.52755" ry="4.52755" layerid="11" stroke-width="0"/><circle c_etype="pad_hole" cx="4258.6639" cy="3527.41" r="2.9528" layerid="11" stroke-width="0"/></g><g c_partid="part_pad" c_etype="pinpart" c_origin="4218.507,3488.04" layerid="11" number="2" net="5V+" plated ="Y"  id="gge987" locked="0" c_rotation="0" c_width="9.0551" c_height="9.0551" title="5V+" c_shape="ELLIPSE" pasteexpansion="0" solderexpansion="0.2"><ellipse c_etype="pad_shell" cx="4218.507" cy="3488.04" rx="4.52755" ry="4.52755" layerid="11" stroke-width="0"/><circle c_etype="pad_hole" cx="4218.5069" cy="3488.04" r="2.9528" layerid="11" stroke-width="0"/></g><g c_partid="part_via" c_etype="pinpart" c_shapetype="group" net="RPI-GND" c_origin="4075.632,3542.243" layerid="11" id="gge19528" locked="0" solderexpansion=""><circle cx="4075.632" cy="3542.243" r="1.2008" stroke-width="0" c_etype="pad_shell"/><circle cx="4075.632" cy="3542.243" r="0.6004"  stroke-width="0" c_etype="pad_hole"/></g><g c_partid="part_via" c_etype="pinpart" c_shapetype="group" net="RPI-GND" c_origin="4060.825,3494.838" layerid="11" id="gge19529" locked="0" solderexpansion=""><circle cx="4060.825" cy="3494.838" r="1.2008" stroke-width="0" c_etype="pad_shell"/><circle cx="4060.825" cy="3494.838" r="0.6004"  stroke-width="0" c_etype="pad_hole"/></g><g c_partid="part_via" c_etype="pinpart" c_shapetype="group" net="12VGND" c_origin="4087.156,3451.994" layerid="11" id="gge19597" locked="0" solderexpansion=""><circle cx="4087.156" cy="3451.994" r="1.4764" stroke-width="0" c_etype="pad_shell"/><circle cx="4087.156" cy="3451.994" r="0.7874"  stroke-width="0" c_etype="pad_hole"/></g><g c_partid="part_via" c_etype="pinpart" c_shapetype="group" net="K2_1" c_origin="4227.9,3540.262" layerid="11" id="gge19606" locked="0" solderexpansion=""><circle cx="4227.9" cy="3540.262" r="1.2008" stroke-width="0" c_etype="pad_shell"/><circle cx="4227.9" cy="3540.262" r="0.6004"  stroke-width="0" c_etype="pad_hole"/></g><g c_partid="part_via" c_etype="pinpart" c_shapetype="group" net="K3_1" c_origin="4290.888,3538.529" layerid="11" id="gge19616" locked="0" solderexpansion=""><circle cx="4290.888" cy="3538.529" r="1.2008" stroke-width="0" c_etype="pad_shell"/><circle cx="4290.888" cy="3538.529" r="0.6004"  stroke-width="0" c_etype="pad_hole"/></g><g c_partid="part_via" c_etype="pinpart" c_shapetype="group" net="K4_1" c_origin="4228.223,3558.979" layerid="11" id="gge19624" locked="0" solderexpansion=""><circle cx="4228.223" cy="3558.979" r="1.2008" stroke-width="0" c_etype="pad_shell"/><circle cx="4228.223" cy="3558.979" r="0.6004"  stroke-width="0" c_etype="pad_hole"/></g><g c_partid="part_via" c_etype="pinpart" c_shapetype="group" net="K5_1" c_origin="4220.014,3512.732" layerid="11" id="gge19633" locked="0" solderexpansion=""><circle cx="4220.014" cy="3512.732" r="1.2008" stroke-width="0" c_etype="pad_shell"/><circle cx="4220.014" cy="3512.732" r="0.6004"  stroke-width="0" c_etype="pad_hole"/></g><g c_partid="part_via" c_etype="pinpart" c_shapetype="group" net="U1_3" c_origin="4111.062,3560.703" layerid="11" id="gge19654" locked="0" solderexpansion=""><circle cx="4111.062" cy="3560.703" r="1.2008" stroke-width="0" c_etype="pad_shell"/><circle cx="4111.062" cy="3560.703" r="0.6004"  stroke-width="0" c_etype="pad_hole"/></g><g c_partid="part_via" c_etype="pinpart" c_shapetype="group" net="U1_3" c_origin="4080.922,3501.241" layerid="11" id="gge19655" locked="0" solderexpansion=""><circle cx="4080.922" cy="3501.241" r="1.2008" stroke-width="0" c_etype="pad_shell"/><circle cx="4080.922" cy="3501.241" r="0.6004"  stroke-width="0" c_etype="pad_hole"/></g><g c_partid="part_via" c_etype="pinpart" c_shapetype="group" net="U2_3" c_origin="4115.406,3554.44" layerid="11" id="gge19661" locked="0" solderexpansion=""><circle cx="4115.406" cy="3554.44" r="1.2008" stroke-width="0" c_etype="pad_shell"/><circle cx="4115.406" cy="3554.44" r="0.6004"  stroke-width="0" c_etype="pad_hole"/></g><g c_partid="part_via" c_etype="pinpart" c_shapetype="group" net="U2_3" c_origin="4094.091,3470.116" layerid="11" id="gge19662" locked="0" solderexpansion=""><circle cx="4094.091" cy="3470.116" r="1.2008" stroke-width="0" c_etype="pad_shell"/><circle cx="4094.091" cy="3470.116" r="0.6004"  stroke-width="0" c_etype="pad_hole"/></g><g c_partid="part_via" c_etype="pinpart" c_shapetype="group" net="U3_3" c_origin="4115.371,3551.264" layerid="11" id="gge19668" locked="0" solderexpansion=""><circle cx="4115.371" cy="3551.264" r="1.2008" stroke-width="0" c_etype="pad_shell"/><circle cx="4115.371" cy="3551.264" r="0.6004"  stroke-width="0" c_etype="pad_hole"/></g><g c_partid="part_via" c_etype="pinpart" c_shapetype="group" net="U3_3" c_origin="4118.156,3463.058" layerid="11" id="gge19669" locked="0" solderexpansion=""><circle cx="4118.156" cy="3463.058" r="1.2008" stroke-width="0" c_etype="pad_shell"/><circle cx="4118.156" cy="3463.058" r="0.6004"  stroke-width="0" c_etype="pad_hole"/></g><g c_partid="part_via" c_etype="pinpart" c_shapetype="group" net="12V+" c_origin="4144.411,3535.964" layerid="11" id="gge19684" locked="0" solderexpansion=""><circle cx="4144.411" cy="3535.964" r="1.4764" stroke-width="0" c_etype="pad_shell"/><circle cx="4144.411" cy="3535.964" r="0.7874"  stroke-width="0" c_etype="pad_hole"/></g><g c_partid="part_via" c_etype="pinpart" c_shapetype="group" net="5V+" c_origin="4101.861,3463.652" layerid="11" id="gge19721" locked="0" solderexpansion=""><circle cx="4101.861" cy="3463.652" r="1.2008" stroke-width="0" c_etype="pad_shell"/><circle cx="4101.861" cy="3463.652" r="0.6004"  stroke-width="0" c_etype="pad_hole"/></g><g c_partid="part_via" c_etype="pinpart" c_shapetype="group" net="5V+" c_origin="4101.131,3498.481" layerid="11" id="gge19722" locked="0" solderexpansion=""><circle cx="4101.131" cy="3498.481" r="1.2008" stroke-width="0" c_etype="pad_shell"/><circle cx="4101.131" cy="3498.481" r="0.6004"  stroke-width="0" c_etype="pad_hole"/></g><g c_partid="part_via" c_etype="pinpart" c_shapetype="group" net="5V+" c_origin="4212.1,3467.424" layerid="11" id="gge19723" locked="0" solderexpansion=""><circle cx="4212.1" cy="3467.424" r="1.2008" stroke-width="0" c_etype="pad_shell"/><circle cx="4212.1" cy="3467.424" r="0.6004"  stroke-width="0" c_etype="pad_hole"/></g><g c_partid="part_via" c_etype="pinpart" c_shapetype="group" net="RN1_6" c_origin="4068.856,3552.284" layerid="11" id="gge19754" locked="0" solderexpansion=""><circle cx="4068.856" cy="3552.284" r="1.2008" stroke-width="0" c_etype="pad_shell"/><circle cx="4068.856" cy="3552.284" r="0.6004"  stroke-width="0" c_etype="pad_hole"/></g><g c_partid="part_via" c_etype="pinpart" c_shapetype="group" net="RN1_6" c_origin="4078.468,3486.544" layerid="11" id="gge19755" locked="0" solderexpansion=""><circle cx="4078.468" cy="3486.544" r="1.2008" stroke-width="0" c_etype="pad_shell"/><circle cx="4078.468" cy="3486.544" r="0.6004"  stroke-width="0" c_etype="pad_hole"/></g><g c_partid="part_via" c_etype="pinpart" c_shapetype="group" net="RN2_5" c_origin="4103.062,3544.759" layerid="11" id="gge19764" locked="0" solderexpansion=""><circle cx="4103.062" cy="3544.759" r="1.2008" stroke-width="0" c_etype="pad_shell"/><circle cx="4103.062" cy="3544.759" r="0.6004"  stroke-width="0" c_etype="pad_hole"/></g><g c_partid="part_via" c_etype="pinpart" c_shapetype="group" net="RN2_5" c_origin="4180.664,3540.376" layerid="11" id="gge19765" locked="0" solderexpansion=""><circle cx="4180.664" cy="3540.376" r="1.2008" stroke-width="0" c_etype="pad_shell"/><circle cx="4180.664" cy="3540.376" r="0.6004"  stroke-width="0" c_etype="pad_hole"/></g><g c_partid="part_via" c_etype="pinpart" c_shapetype="group" net="RN2_6" c_origin="4176.718,3540.398" layerid="11" id="gge19773" locked="0" solderexpansion=""><circle cx="4176.718" cy="3540.398" r="1.2008" stroke-width="0" c_etype="pad_shell"/><circle cx="4176.718" cy="3540.398" r="0.6004"  stroke-width="0" c_etype="pad_hole"/></g><g c_partid="part_via" c_etype="pinpart" c_shapetype="group" net="RN2_6" c_origin="4107.5,3560.5" layerid="11" id="gge19774" locked="0" solderexpansion=""><circle cx="4107.5" cy="3560.5" r="1.2008" stroke-width="0" c_etype="pad_shell"/><circle cx="4107.5" cy="3560.5" r="0.6004"  stroke-width="0" c_etype="pad_hole"/></g></g><g transform="matrix(-1, 0, 0, 1, 8454.5, 0)"><polyline points="4020.5 3567.5 4020.5 3414.5 4434 3414.5 4434 3567.5 4020.5 3567.5" stroke-width="1"  stroke-linecap="round" fill="none" layerid="10" net="S$2295" id="gge20852" locked="0" /></g></svg>