<svg xmlns="http://www.w3.org/2000/svg" xmlns:xlink="http://www.w3.org/1999/xlink" width="111.76mm" height="50.8mm" viewBox="4010 3378 440 200"><title></title><style type="text/css">
*[layerid="1"] {stroke:#FF0000;fill:#FF0000;}
*[layerid="2"] {stroke:#0000FF;fill:#0000FF;}
*[layerid="3"] {stroke:#FFCC00;fill:#FFCC00;}
*[layerid="4"] {stroke:#66CC33;fill:#66CC33;}
*[layerid="5"] {stroke:#808080;fill:#808080;}
*[layerid="6"] {stroke:#800000;fill:#800000;}
*[layerid="7"] {stroke:#800080;fill:#800080;stroke-opacity:0.7;fill-opacity:0.7;}
*[layerid="8"] {stroke:#AA00FF;fill:#AA00FF;stroke-opacity:0.7;fill-opacity:0.7;}
*[layerid="9"] {stroke:#6464FF;fill:#6464FF;}
*[layerid="10"] {stroke:#FF00FF;fill:#FF00FF;}
*[layerid="11"] {stroke:#C0C0C0;fill:#C0C0C0;}
*[layerid="12"] {stroke:#FFFFFF;fill:#FFFFFF;}
*[layerid="13"] {stroke:#33CC99;fill:#33CC99;}
*[layerid="14"] {stroke:#5555FF;fill:#5555FF;}
*[layerid="15"] {stroke:#F022F0;fill:#F022F0;}
*[layerid="19"] {stroke:#66CCFF;fill:#66CCFF;}
*[layerid="21"] {stroke:#999966;fill:#999966;}
*[layerid="22"] {stroke:#008000;fill:#008000;}
*[layerid="23"] {stroke:#00FF00;fill:#00FF00;}
*[layerid="24"] {stroke:#BC8E00;fill:#BC8E00;}
*[layerid="25"] {stroke:#70DBFA;fill:#70DBFA;}
*[layerid="26"] {stroke:#00CC66;fill:#00CC66;}
*[layerid="27"] {stroke:#9966FF;fill:#9966FF;}
*[layerid="28"] {stroke:#800080;fill:#800080;}
*[layerid="29"] {stroke:#008080;fill:#008080;}
*[layerid="30"] {stroke:#15935F;fill:#15935F;}
*[layerid="31"] {stroke:#000080;fill:#000080;}
*[layerid="32"] {stroke:#00B400;fill:#00B400;}
*[layerid="33"] {stroke:#2E4756;fill:#2E4756;}
*[layerid="34"] {stroke:#99842F;fill:#99842F;}
*[layerid="35"] {stroke:#FFFFAA;fill:#FFFFAA;}
*[layerid="36"] {stroke:#99842F;fill:#99842F;}
*[layerid="37"] {stroke:#2E4756;fill:#2E4756;}
*[layerid="38"] {stroke:#3535FF;fill:#3535FF;}
*[layerid="39"] {stroke:#8000BC;fill:#8000BC;}
*[layerid="40"] {stroke:#43AE5F;fill:#43AE5F;}
*[layerid="41"] {stroke:#C3ECCE;fill:#C3ECCE;}
*[layerid="42"] {stroke:#728978;fill:#728978;}
*[layerid="43"] {stroke:#39503F;fill:#39503F;}
*[layerid="44"] {stroke:#0C715D;fill:#0C715D;}
*[layerid="45"] {stroke:#5A8A80;fill:#5A8A80;}
*[layerid="46"] {stroke:#2B937E;fill:#2B937E;}
*[layerid="47"] {stroke:#23999D;fill:#23999D;}
*[layerid="48"] {stroke:#45B4E3;fill:#45B4E3;}
*[layerid="49"] {stroke:#215DA1;fill:#215DA1;}
*[layerid="50"] {stroke:#4564D7;fill:#4564D7;}
*[layerid="51"] {stroke:#6969E9;fill:#6969E9;}
*[layerid="52"] {stroke:#9069E9;fill:#9069E9;}
*[layerid="99"] {stroke:#00CCCC;fill:#00CCCC;}
*[layerid="100"] {stroke:#CC9999;fill:#CC9999;}
*[layerid="101"] {stroke:#66FFCC;fill:#66FFCC;}
*[layerid="Hole"] {stroke:#222222;fill:#222222;}
*[layerid="DRCError"] {stroke:#FAD609;fill:#FAD609;}
*[fill="none"] {fill: none;}
*[stroke="none"] {stroke: none;}
path, polyline, polygon, line {stroke-linecap:round;}
g[c_partid="part_pad"][layerid="1"] ellipse:not([c_etype="pad_outer"]) {fill:#FF0000;}
g[c_partid="part_pad"][layerid="1"] polygon:not([c_etype="pad_outer"]) {fill:#FF0000;}
g[c_partid="part_pad"][layerid="1"] polyline:not([c_etype="pad_outer"]) {stroke:#FF0000;}
g[c_partid="part_pad"][layerid="2"] ellipse:not([c_etype="pad_outer"]) {fill:#0000FF;}
g[c_partid="part_pad"][layerid="2"] polygon:not([c_etype="pad_outer"]) {fill:#0000FF;}
g[c_partid="part_pad"][layerid="2"] polyline:not([c_etype="pad_outer"]) {stroke:#0000FF;}
g[c_partid="part_pad"][layerid="11"] ellipse:not([c_etype="pad_outer"]) {fill:#C0C0C0;}
g[c_partid="part_pad"][layerid="11"] polygon:not([c_etype="pad_outer"]) {fill:#C0C0C0;}
g[c_partid="part_pad"][layerid="11"] polyline:not([c_etype="pad_outer"]) {stroke:#C0C0C0;}
g[c_partid="part_pad"][layerid="11"] circle {fill:#222222;}
g[c_partid="part_pad"][layerid="11"] > polyline:nth-of-type(2) {stroke:#222222;}
g[c_partid="part_pad"][layerid="11"][c_shape="ELLIPSE"]  polyline:nth-last-of-type(1) {stroke:#222222;}
g[c_partid="part_pad"][layerid="11"][c_shape="RECT"]  polyline:nth-last-of-type(1) {stroke:#222222;}
g[c_partid="part_pad"][layerid="11"][c_shape="POLYGON"]  polyline:nth-last-of-type(1) {stroke:#222222;}
g[c_partid="part_via"] > * + circle, #gCurParts g[c_partid="part_via"] > * + circle {fill:#222222;}
g[c_partid="part_pad"] > polygon[c_etype="pad_outer"], #gCurParts g[c_partid="part_pad"] > polygon[c_etype="pad_outer"] {stroke-linejoin: miter;stroke-miterlimit: 100;}
g[c_partid="part_hole"] > circle {fill: #222222;}path, polyline, polygon {stroke-linejoin:round;}
rect, circle, ellipse, polyline, line, polygon, path {shape-rendering:crispEdges;}
</style>
<rect x="4010" y="3378" width="440" height="200" fill="#000000" stroke="none"/><g transform="matrix(-1, 0, 0, 1, 8460, 0)"><g c_partid="part_pad" c_etype="pinpart" c_origin="4035,3408" layerid="11" number="1" net="GND" plated ="Y"  id="gge2301" locked="0" c_rotation="0" c_width="16.5" c_height="16.5" title="GND" c_shape="ELLIPSE" pasteexpansion="0" solderexpansion="1"><ellipse cx="4035" cy="3408" rx="9.25" ry="9.25" layerid="8" stroke-width="0" c_etype="pad_outer"/></g><g c_partid="part_pad" c_etype="pinpart" c_origin="4035,3548" layerid="11" number="1" net="GND" plated ="Y"  id="gge3805" locked="0" c_rotation="0" c_width="16.5" c_height="16.5" title="GND" c_shape="ELLIPSE" pasteexpansion="0" solderexpansion="1"><ellipse cx="4035" cy="3548" rx="9.25" ry="9.25" layerid="8" stroke-width="0" c_etype="pad_outer"/></g><g c_partid="part_pad" c_etype="pinpart" c_origin="4425,3548" layerid="11" number="1" net="GND" plated ="Y"  id="gge3821" locked="0" c_rotation="0" c_width="16.5" c_height="16.5" title="GND" c_shape="ELLIPSE" pasteexpansion="0" solderexpansion="1"><ellipse cx="4425" cy="3548" rx="9.25" ry="9.25" layerid="8" stroke-width="0" c_etype="pad_outer"/></g><g c_partid="part_pad" c_etype="pinpart" c_origin="4425,3408" layerid="11" number="1" net="GND" plated ="Y"  id="gge3822" locked="0" c_rotation="0" c_width="16.5" c_height="16.5" title="GND" c_shape="ELLIPSE" pasteexpansion="0" solderexpansion="1"><ellipse cx="4425" cy="3408" rx="9.25" ry="9.25" layerid="8" stroke-width="0" c_etype="pad_outer"/></g><g c_partid="part_pad" c_etype="pinpart" c_origin="4046,3497.5" layerid="11" number="6" net="RPI-GND" plated ="Y"  id="gge9" locked="0" c_rotation="270" c_width="7" c_height="7" title="RPI-GND" c_shape="ELLIPSE" pasteexpansion="0" solderexpansion="0.4"><ellipse cx="4046" cy="3497.5" rx="3.9" ry="3.9" layerid="8" stroke-width="0" c_etype="pad_outer"/></g><g c_partid="part_pad" c_etype="pinpart" c_origin="4046,3487.5" layerid="11" number="5" net="LED4_1" plated ="Y"  id="gge14" locked="0" c_rotation="270" c_width="7" c_height="7" title="LED4_1" c_shape="ELLIPSE" pasteexpansion="0" solderexpansion="0.4"><ellipse cx="4046" cy="3487.5" rx="3.9" ry="3.9" layerid="8" stroke-width="0" c_etype="pad_outer"/></g><g c_partid="part_pad" c_etype="pinpart" c_origin="4046,3477.5" layerid="11" number="4" net="LED3_1" plated ="Y"  id="gge19" locked="0" c_rotation="270" c_width="7" c_height="7" title="LED3_1" c_shape="ELLIPSE" pasteexpansion="0" solderexpansion="0.4"><ellipse cx="4046" cy="3477.5" rx="3.9" ry="3.9" layerid="8" stroke-width="0" c_etype="pad_outer"/></g><g c_partid="part_pad" c_etype="pinpart" c_origin="4046,3467.5" layerid="11" number="3" net="LED2_1" plated ="Y"  id="gge24" locked="0" c_rotation="270" c_width="7" c_height="7" title="LED2_1" c_shape="ELLIPSE" pasteexpansion="0" solderexpansion="0.4"><ellipse cx="4046" cy="3467.5" rx="3.9" ry="3.9" layerid="8" stroke-width="0" c_etype="pad_outer"/></g><g c_partid="part_pad" c_etype="pinpart" c_origin="4046,3457.5" layerid="11" number="2" net="LED1_1" plated ="Y"  id="gge29" locked="0" c_rotation="270" c_width="7" c_height="7" title="LED1_1" c_shape="ELLIPSE" pasteexpansion="0" solderexpansion="0.4"><ellipse cx="4046" cy="3457.5" rx="3.9" ry="3.9" layerid="8" stroke-width="0" c_etype="pad_outer"/></g><g c_partid="part_pad" c_etype="pinpart" c_origin="4046,3447.5" layerid="11" number="1" net="+5V-SNC" plated ="Y"  id="gge34" locked="0" c_rotation="270" c_width="7" c_height="7" title="+5V-SNC" c_shape="RECT" pasteexpansion="0" solderexpansion="0.4"><polygon points="4049.5 3444 4049.5 3451 4042.5 3451 4042.5 3444" layerid="8" stroke-width="0.8" c_etype="pad_outer"/></g><g c_partid="part_pad" c_etype="pinpart" c_origin="4075.5,3410.52" layerid="11" number="1" net="12V+PRERELAY" plated ="Y"  id="gge46" locked="0" c_rotation="0" c_width="6" c_height="6" title="12V+PRERELAY" c_shape="ELLIPSE" pasteexpansion="0" solderexpansion="0.4"><ellipse cx="4075.5" cy="3410.52" rx="3.4" ry="3.4" layerid="8" stroke-width="0" c_etype="pad_outer"/></g><g c_partid="part_pad" c_etype="pinpart" c_origin="4085.5,3410.52" layerid="11" number="2" net="12V+PRERELAY" plated ="Y"  id="gge51" locked="0" c_rotation="0" c_width="6" c_height="6" title="12V+PRERELAY" c_shape="ELLIPSE" pasteexpansion="0" solderexpansion="0.4"><ellipse cx="4085.5" cy="3410.52" rx="3.4" ry="3.4" layerid="8" stroke-width="0" c_etype="pad_outer"/></g><g c_partid="part_pad" c_etype="pinpart" c_origin="4095.5,3410.52" layerid="11" number="3" net="12VGND" plated ="Y"  id="gge56" locked="0" c_rotation="0" c_width="6" c_height="6" title="12VGND" c_shape="ELLIPSE" pasteexpansion="0" solderexpansion="0.4"><ellipse cx="4095.5" cy="3410.52" rx="3.4" ry="3.4" layerid="8" stroke-width="0" c_etype="pad_outer"/></g><g c_partid="part_pad" c_etype="pinpart" c_origin="4105.5,3410.52" layerid="11" number="4" net="12VGND" plated ="Y"  id="gge61" locked="0" c_rotation="0" c_width="6" c_height="6" title="12VGND" c_shape="ELLIPSE" pasteexpansion="0" solderexpansion="0.4"><ellipse cx="4105.5" cy="3410.52" rx="3.4" ry="3.4" layerid="8" stroke-width="0" c_etype="pad_outer"/></g><g c_partid="part_pad" c_etype="pinpart" c_origin="4403.079,3413.551" layerid="11" number="1" net="SOLENOID_1+" plated ="Y"  id="gge73" locked="0" c_rotation="0" c_width="7" c_height="7" title="SOLENOID_1+" c_shape="RECT" pasteexpansion="0" solderexpansion="0.4"><polygon points="4399.5787 3410.0512 4406.5787 3410.0512 4406.5787 3417.0512 4399.5787 3417.0512" layerid="8" stroke-width="0.8" c_etype="pad_outer"/></g><g c_partid="part_pad" c_etype="pinpart" c_origin="4403.079,3403.551" layerid="11" number="2" net="SOLENOID_1-" plated ="Y"  id="gge78" locked="0" c_rotation="0" c_width="7" c_height="7" title="SOLENOID_1-" c_shape="ELLIPSE" pasteexpansion="0" solderexpansion="0.4"><ellipse cx="4403.079" cy="3403.551" rx="3.9" ry="3.9" layerid="8" stroke-width="0" c_etype="pad_outer"/></g><g c_partid="part_pad" c_etype="pinpart" c_origin="4403.079,3452.921" layerid="11" number="1" net="SOLENOID_2+" plated ="Y"  id="gge90" locked="0" c_rotation="0" c_width="7" c_height="7" title="SOLENOID_2+" c_shape="RECT" pasteexpansion="0" solderexpansion="0.4"><polygon points="4399.5787 3449.4213 4406.5787 3449.4213 4406.5787 3456.4213 4399.5787 3456.4213" layerid="8" stroke-width="0.8" c_etype="pad_outer"/></g><g c_partid="part_pad" c_etype="pinpart" c_origin="4403.079,3442.921" layerid="11" number="2" net="SOLENOID_2-" plated ="Y"  id="gge95" locked="0" c_rotation="0" c_width="7" c_height="7" title="SOLENOID_2-" c_shape="ELLIPSE" pasteexpansion="0" solderexpansion="0.4"><ellipse cx="4403.079" cy="3442.921" rx="3.9" ry="3.9" layerid="8" stroke-width="0" c_etype="pad_outer"/></g><g c_partid="part_pad" c_etype="pinpart" c_origin="4403.079,3492.291" layerid="11" number="1" net="SOLENOID_3+" plated ="Y"  id="gge107" locked="0" c_rotation="0" c_width="7" c_height="7" title="SOLENOID_3+" c_shape="RECT" pasteexpansion="0" solderexpansion="0.4"><polygon points="4399.5787 3488.7913 4406.5787 3488.7913 4406.5787 3495.7913 4399.5787 3495.7913" layerid="8" stroke-width="0.8" c_etype="pad_outer"/></g><g c_partid="part_pad" c_etype="pinpart" c_origin="4403.079,3482.291" layerid="11" number="2" net="SOLENOID_3-" plated ="Y"  id="gge112" locked="0" c_rotation="0" c_width="7" c_height="7" title="SOLENOID_3-" c_shape="ELLIPSE" pasteexpansion="0" solderexpansion="0.4"><ellipse cx="4403.079" cy="3482.291" rx="3.9" ry="3.9" layerid="8" stroke-width="0" c_etype="pad_outer"/></g><g c_partid="part_pad" c_etype="pinpart" c_origin="4403.079,3531.661" layerid="11" number="1" net="SOLENOID_4+" plated ="Y"  id="gge124" locked="0" c_rotation="0" c_width="7" c_height="7" title="SOLENOID_4+" c_shape="RECT" pasteexpansion="0" solderexpansion="0.4"><polygon points="4399.5787 3528.1614 4406.5787 3528.1614 4406.5787 3535.1614 4399.5787 3535.1614" layerid="8" stroke-width="0.8" c_etype="pad_outer"/></g><g c_partid="part_pad" c_etype="pinpart" c_origin="4403.079,3521.661" layerid="11" number="2" net="SOLENOID_4-" plated ="Y"  id="gge129" locked="0" c_rotation="0" c_width="7" c_height="7" title="SOLENOID_4-" c_shape="ELLIPSE" pasteexpansion="0" solderexpansion="0.4"><ellipse cx="4403.079" cy="3521.661" rx="3.9" ry="3.9" layerid="8" stroke-width="0" c_etype="pad_outer"/></g><g c_partid="part_pad" c_etype="pinpart" c_origin="4137.843,3422.331" layerid="11" number="3" net="12V+PRERELAY" plated ="Y"  id="gge788" locked="0" c_rotation="0" c_width="9.0551" c_height="9.0551" title="12V+PRERELAY" c_shape="ELLIPSE" pasteexpansion="0" solderexpansion="0.2"><ellipse cx="4137.843" cy="3422.331" rx="4.72755" ry="4.72755" layerid="8" stroke-width="0" c_etype="pad_outer"/></g><g c_partid="part_pad" c_etype="pinpart" c_origin="4147.843,3442.016" layerid="11" number="1" net="RPI-GND" plated ="Y"  id="gge793" locked="0" c_rotation="0" c_width="9.0551" c_height="9.0551" title="RPI-GND" c_shape="ELLIPSE" pasteexpansion="0" solderexpansion="0.2"><ellipse cx="4147.843" cy="3442.016" rx="4.72755" ry="4.72755" layerid="8" stroke-width="0" c_etype="pad_outer"/></g><g c_partid="part_pad" c_etype="pinpart" c_origin="4188,3442.016" layerid="11" number="4" net="12V+" plated ="Y"  id="gge798" locked="0" c_rotation="0" c_width="9.0551" c_height="9.0551" title="12V+" c_shape="ELLIPSE" pasteexpansion="0" solderexpansion="0.2"><ellipse cx="4188" cy="3442.016" rx="4.72755" ry="4.72755" layerid="8" stroke-width="0" c_etype="pad_outer"/></g><g c_partid="part_pad" c_etype="pinpart" c_origin="4147.843,3402.646" layerid="11" number="2" net="+5V-SNC" plated ="Y"  id="gge803" locked="0" c_rotation="0" c_width="9.0551" c_height="9.0551" title="+5V-SNC" c_shape="ELLIPSE" pasteexpansion="0" solderexpansion="0.2"><ellipse cx="4147.843" cy="3402.646" rx="4.72755" ry="4.72755" layerid="8" stroke-width="0" c_etype="pad_outer"/></g><g c_partid="part_pad" c_etype="pinpart" c_origin="4212.646,3422.331" layerid="11" number="3" net="12V+" plated ="Y"  id="gge834" locked="0" c_rotation="0" c_width="9.0551" c_height="9.0551" title="12V+" c_shape="ELLIPSE" pasteexpansion="0" solderexpansion="0.2"><ellipse cx="4212.646" cy="3422.331" rx="4.72755" ry="4.72755" layerid="8" stroke-width="0" c_etype="pad_outer"/></g><g c_partid="part_pad" c_etype="pinpart" c_origin="4222.646,3442.016" layerid="11" number="1" net="K2_1" plated ="Y"  id="gge839" locked="0" c_rotation="0" c_width="9.0551" c_height="9.0551" title="K2_1" c_shape="ELLIPSE" pasteexpansion="0" solderexpansion="0.2"><ellipse cx="4222.646" cy="3442.016" rx="4.72755" ry="4.72755" layerid="8" stroke-width="0" c_etype="pad_outer"/></g><g c_partid="part_pad" c_etype="pinpart" c_origin="4262.803,3442.016" layerid="11" number="4" net="SOLENOID_1+" plated ="Y"  id="gge844" locked="0" c_rotation="0" c_width="9.0551" c_height="9.0551" title="SOLENOID_1+" c_shape="ELLIPSE" pasteexpansion="0" solderexpansion="0.2"><ellipse cx="4262.803" cy="3442.016" rx="4.72755" ry="4.72755" layerid="8" stroke-width="0" c_etype="pad_outer"/></g><g c_partid="part_pad" c_etype="pinpart" c_origin="4222.646,3402.646" layerid="11" number="2" net="5V+" plated ="Y"  id="gge849" locked="0" c_rotation="0" c_width="9.0551" c_height="9.0551" title="5V+" c_shape="ELLIPSE" pasteexpansion="0" solderexpansion="0.2"><ellipse cx="4222.646" cy="3402.646" rx="4.72755" ry="4.72755" layerid="8" stroke-width="0" c_etype="pad_outer"/></g><g c_partid="part_pad" c_etype="pinpart" c_origin="4287.449,3422.331" layerid="11" number="3" net="12V+" plated ="Y"  id="gge880" locked="0" c_rotation="0" c_width="9.0551" c_height="9.0551" title="12V+" c_shape="ELLIPSE" pasteexpansion="0" solderexpansion="0.2"><ellipse cx="4287.449" cy="3422.331" rx="4.72755" ry="4.72755" layerid="8" stroke-width="0" c_etype="pad_outer"/></g><g c_partid="part_pad" c_etype="pinpart" c_origin="4297.449,3442.016" layerid="11" number="1" net="K3_1" plated ="Y"  id="gge885" locked="0" c_rotation="0" c_width="9.0551" c_height="9.0551" title="K3_1" c_shape="ELLIPSE" pasteexpansion="0" solderexpansion="0.2"><ellipse cx="4297.449" cy="3442.016" rx="4.72755" ry="4.72755" layerid="8" stroke-width="0" c_etype="pad_outer"/></g><g c_partid="part_pad" c_etype="pinpart" c_origin="4337.606,3442.016" layerid="11" number="4" net="SOLENOID_2+" plated ="Y"  id="gge890" locked="0" c_rotation="0" c_width="9.0551" c_height="9.0551" title="SOLENOID_2+" c_shape="ELLIPSE" pasteexpansion="0" solderexpansion="0.2"><ellipse cx="4337.606" cy="3442.016" rx="4.72755" ry="4.72755" layerid="8" stroke-width="0" c_etype="pad_outer"/></g><g c_partid="part_pad" c_etype="pinpart" c_origin="4297.449,3402.646" layerid="11" number="2" net="5V+" plated ="Y"  id="gge895" locked="0" c_rotation="0" c_width="9.0551" c_height="9.0551" title="5V+" c_shape="ELLIPSE" pasteexpansion="0" solderexpansion="0.2"><ellipse cx="4297.449" cy="3402.646" rx="4.72755" ry="4.72755" layerid="8" stroke-width="0" c_etype="pad_outer"/></g><g c_partid="part_pad" c_etype="pinpart" c_origin="4287.449,3481.386" layerid="11" number="3" net="12V+" plated ="Y"  id="gge926" locked="0" c_rotation="0" c_width="9.0551" c_height="9.0551" title="12V+" c_shape="ELLIPSE" pasteexpansion="0" solderexpansion="0.2"><ellipse cx="4287.449" cy="3481.386" rx="4.72755" ry="4.72755" layerid="8" stroke-width="0" c_etype="pad_outer"/></g><g c_partid="part_pad" c_etype="pinpart" c_origin="4297.449,3501.071" layerid="11" number="1" net="K4_1" plated ="Y"  id="gge931" locked="0" c_rotation="0" c_width="9.0551" c_height="9.0551" title="K4_1" c_shape="ELLIPSE" pasteexpansion="0" solderexpansion="0.2"><ellipse cx="4297.449" cy="3501.071" rx="4.72755" ry="4.72755" layerid="8" stroke-width="0" c_etype="pad_outer"/></g><g c_partid="part_pad" c_etype="pinpart" c_origin="4337.606,3501.071" layerid="11" number="4" net="SOLENOID_3+" plated ="Y"  id="gge936" locked="0" c_rotation="0" c_width="9.0551" c_height="9.0551" title="SOLENOID_3+" c_shape="ELLIPSE" pasteexpansion="0" solderexpansion="0.2"><ellipse cx="4337.606" cy="3501.071" rx="4.72755" ry="4.72755" layerid="8" stroke-width="0" c_etype="pad_outer"/></g><g c_partid="part_pad" c_etype="pinpart" c_origin="4297.449,3461.701" layerid="11" number="2" net="5V+" plated ="Y"  id="gge941" locked="0" c_rotation="0" c_width="9.0551" c_height="9.0551" title="5V+" c_shape="ELLIPSE" pasteexpansion="0" solderexpansion="0.2"><ellipse cx="4297.449" cy="3461.701" rx="4.72755" ry="4.72755" layerid="8" stroke-width="0" c_etype="pad_outer"/></g><g c_partid="part_pad" c_etype="pinpart" c_origin="4212.646,3481.386" layerid="11" number="3" net="12V+" plated ="Y"  id="gge972" locked="0" c_rotation="0" c_width="9.0551" c_height="9.0551" title="12V+" c_shape="ELLIPSE" pasteexpansion="0" solderexpansion="0.2"><ellipse cx="4212.646" cy="3481.386" rx="4.72755" ry="4.72755" layerid="8" stroke-width="0" c_etype="pad_outer"/></g><g c_partid="part_pad" c_etype="pinpart" c_origin="4222.646,3501.071" layerid="11" number="1" net="K5_1" plated ="Y"  id="gge977" locked="0" c_rotation="0" c_width="9.0551" c_height="9.0551" title="K5_1" c_shape="ELLIPSE" pasteexpansion="0" solderexpansion="0.2"><ellipse cx="4222.646" cy="3501.071" rx="4.72755" ry="4.72755" layerid="8" stroke-width="0" c_etype="pad_outer"/></g><g c_partid="part_pad" c_etype="pinpart" c_origin="4262.803,3501.071" layerid="11" number="4" net="SOLENOID_4+" plated ="Y"  id="gge982" locked="0" c_rotation="0" c_width="9.0551" c_height="9.0551" title="SOLENOID_4+" c_shape="ELLIPSE" pasteexpansion="0" solderexpansion="0.2"><ellipse cx="4262.803" cy="3501.071" rx="4.72755" ry="4.72755" layerid="8" stroke-width="0" c_etype="pad_outer"/></g><g c_partid="part_pad" c_etype="pinpart" c_origin="4222.646,3461.701" layerid="11" number="2" net="5V+" plated ="Y"  id="gge987" locked="0" c_rotation="0" c_width="9.0551" c_height="9.0551" title="5V+" c_shape="ELLIPSE" pasteexpansion="0" solderexpansion="0.2"><ellipse cx="4222.646" cy="3461.701" rx="4.72755" ry="4.72755" layerid="8" stroke-width="0" c_etype="pad_outer"/></g></g><g transform="matrix(-1, 0, 0, 1, 8460, 0)"><polyline points="4355.37 3501.88 4355.37 3520.29 4386.41 3551.34" stroke-width="1.0236"  stroke-linecap="round" fill="none" layerid="2" net="LED15_1" id="gge18074" locked="0" /><polyline points="4225.4 3557.35 4225.4 3524.37 4228.87 3520.91" stroke-width="1.0236"  stroke-linecap="round" fill="none" layerid="2" net="LED8_2" id="gge18027" locked="0" /><polyline points="4147.84 3402.65 4102.99 3447.5 4046 3447.5" stroke-width="1.0236"  stroke-linecap="round" fill="none" layerid="2" net="+5V-SNC" id="gge17939" locked="0" /><polyline points="4046 3497.5 4041.32 3492.82 4041.32 3465.04 4043.86 3462.5 4059.06 3462.5 4070.88 3450.68 4139.18 3450.68 4147.84 3442.02" stroke-width="1.0236"  stroke-linecap="round" fill="none" layerid="2" net="RPI-GND" id="gge17933" locked="0" /><polyline points="4262.8 3442.02 4262.8 3427.6 4294.79 3395.61 4379.37 3395.61 4397.31 3413.55" stroke-width="2.9528"  stroke-linecap="round" fill="none" layerid="2" net="SOLENOID_1+" id="gge17932" locked="0" /><polyline points="4403.08 3413.55 4397.31 3413.55" stroke-width="2.9528"  stroke-linecap="round" fill="none" layerid="2" net="SOLENOID_1+" id="gge17931" locked="0" /><polyline points="4337.61 3442.02 4386.41 3442.02 4397.31 3452.92" stroke-width="2.9528"  stroke-linecap="round" fill="none" layerid="2" net="SOLENOID_2+" id="gge17927" locked="0" /><polyline points="4403.08 3452.92 4397.31 3452.92" stroke-width="2.9528"  stroke-linecap="round" fill="none" layerid="2" net="SOLENOID_2+" id="gge17926" locked="0" /><polyline points="4337.61 3501.07 4337.61 3474.43 4351.58 3460.46 4365.48 3460.46 4397.31 3492.29" stroke-width="2.9528"  stroke-linecap="round" fill="none" layerid="2" net="SOLENOID_3+" id="gge17922" locked="0" /><polyline points="4403.08 3492.29 4397.31 3492.29" stroke-width="2.9528"  stroke-linecap="round" fill="none" layerid="2" net="SOLENOID_3+" id="gge17921" locked="0" /><polyline points="4262.8 3501.07 4316.54 3554.8 4388.4 3554.8 4403.08 3540.12 4403.08 3531.66" stroke-width="2.9528"  stroke-linecap="round" fill="none" layerid="2" net="SOLENOID_4+" id="gge17917" locked="0" /><polyline points="4287.45 3481.39 4287.45 3422.33" stroke-width="4.9213"  stroke-linecap="round" fill="none" layerid="2" net="12V+" id="gge17907" locked="0" /><polyline points="4212.65 3422.33 4207.69 3422.33 4188 3442.02" stroke-width="4.9213"  stroke-linecap="round" fill="none" layerid="2" net="12V+" id="gge17905" locked="0" /><polyline points="4212.65 3481.39 4212.65 3466.66 4188 3442.02" stroke-width="4.9213"  stroke-linecap="round" fill="none" layerid="2" net="12V+" id="gge17904" locked="0" /><polyline points="4084.71 3556.38 4084.71 3510.92 4075.13 3501.34 4075.13 3500.1" stroke-width="1.0236"  stroke-linecap="round" fill="none" layerid="2" net="U1_1" id="gge17899" locked="0" /><polyline points="4185.52 3557.35 4185.52 3521.74 4181.46 3517.68" stroke-width="1.0236"  stroke-linecap="round" fill="none" layerid="2" net="LED6_2" id="gge17893" locked="0" /><polyline points="4111.04 3547.99 4109.47 3549.56 4097.55 3549.56 4094.67 3546.68 4094.67 3518.52 4077.49 3501.34 4077.49 3498.99 4056 3477.5 4046 3477.5" stroke-width="1.0236"  stroke-linecap="round" fill="none" layerid="2" net="LED3_1" id="gge17887" locked="0" /><polyline points="4098.5 3547.17 4097.69 3546.35 4097.69 3519.19 4079.15 3500.65 4079.15 3498.3 4048.36 3467.5 4046 3467.5" stroke-width="1.0236"  stroke-linecap="round" fill="none" layerid="2" net="LED2_1" id="gge17884" locked="0" /><polyline points="4046 3457.5 4039.65 3463.85 4039.65 3517.6 4072.7 3550.65" stroke-width="1.0236"  stroke-linecap="round" fill="none" layerid="2" net="LED1_1" id="gge17882" locked="0" /><polyline points="4212.43 3509.28 4212.43 3495.71 4218.92 3489.22 4218.92 3467.05 4216.91 3465.05 4216.91 3442.02" stroke-width="1.0236"  stroke-linecap="round" fill="none" layerid="2" net="K2_1" id="gge17868" locked="0" /><polyline points="4222.65 3442.02 4216.91 3442.02" stroke-width="1.0236"  stroke-linecap="round" fill="none" layerid="2" net="K2_1" id="gge17867" locked="0" /><polyline points="4216.91 3442.02 4204.26 3442.02 4199.58 3437.33" stroke-width="1.0236"  stroke-linecap="round" fill="none" layerid="2" net="K2_1" id="gge17866" locked="0" /><polyline points="4222.65 3461.7 4228.37 3455.98 4228.37 3408.37 4222.65 3402.65" stroke-width="1.0236"  stroke-linecap="round" fill="none" layerid="2" net="5V+" id="gge17856" locked="0" /><polyline points="4297.45 3402.65 4303.27 3408.46 4303.27 3455.88 4297.45 3461.7" stroke-width="1.0236"  stroke-linecap="round" fill="none" layerid="2" net="5V+" id="gge17855" locked="0" /><polyline points="4297.45 3442.02 4291.61 3447.86 4291.61 3467.38 4303.24 3479.01 4303.24 3503.34 4288.58 3518.01" stroke-width="1.0236"  stroke-linecap="round" fill="none" layerid="2" net="K3_1" id="gge17827" locked="0" /><polyline points="4288.58 3518.01 4265.61 3495.04 4260.06 3495.04 4244.64 3510.45 4244.64 3523.41 4231.7 3536.36" stroke-width="1.0236"  stroke-linecap="round" fill="none" layerid="2" net="K3_1" id="gge17824" locked="0" /><polyline points="4232.36 3532.24 4242.6 3522 4242.6 3510.14 4259.37 3493.37 4289.75 3493.37 4297.45 3501.07" stroke-width="1.0236"  stroke-linecap="round" fill="none" layerid="2" net="K4_1" id="gge17816" locked="0" /><polyline points="4110.02 3453.23 4107.58 3455.68 4107.58 3512.91 4119.59 3524.93" stroke-width="1.0236"  stroke-linecap="round" fill="none" layerid="2" net="U3_3" id="gge17811" locked="0" /><polyline points="4071.86 3453.03 4091.89 3473.06 4091.89 3501.1 4118.87 3528.07 4120.91 3528.07 4120.91 3528.08" stroke-width="1.0236"  stroke-linecap="round" fill="none" layerid="2" net="U2_3" id="gge17806" locked="0" /><polyline points="4100.04 3540.43 4100.04 3519.18 4081.41 3500.55 4081.41 3472.54 4070.83 3461.96" stroke-width="1.0236"  stroke-linecap="round" fill="none" layerid="2" net="U2_1" id="gge17801" locked="0" /><polyline points="4110.18 3457.44 4125.41 3472.67 4125.41 3554.02 4122.08 3557.35" stroke-width="1.0236"  stroke-linecap="round" fill="none" layerid="2" net="U3_1" id="gge17793" locked="0" /><polyline points="4346.47 3550.46 4331.71 3535.71 4331.71 3469.65 4355.8 3445.55" stroke-width="1.0236"  stroke-linecap="round" fill="none" layerid="2" net="LED13_1" id="gge17788" locked="0" /><polyline points="4353.22 3464.39 4353.02 3464.6 4353.02 3543.52 4358.89 3549.4" stroke-width="1.0236"  stroke-linecap="round" fill="none" layerid="2" net="LED14_1" id="gge17779" locked="0" /><polyline points="4116.5 3481.79 4123.74 3489.04 4123.74 3531.16 4120.48 3534.42 4117.94 3534.42" stroke-width="1.0236"  stroke-linecap="round" fill="none" layerid="2" net="U4_3" id="gge17774" locked="0" /><polyline points="4119.48 3531.62 4088.33 3500.47 4088.33 3474.9" stroke-width="1.0236"  stroke-linecap="round" fill="none" layerid="2" net="U1_3" id="gge17768" locked="0" /><polyline points="4046 3487.5 4079.3 3520.8 4079.3 3555.04 4084.14 3559.88 4133.33 3559.88 4141.98 3551.23" stroke-width="1.0236"  stroke-linecap="round" fill="none" layerid="2" net="LED4_1" id="gge17764" locked="0" /><polyline points="4214.68 3556.7 4214.68 3524.22 4213 3522.53" stroke-width="1.0236"  stroke-linecap="round" fill="none" layerid="2" net="LED7_2" id="gge17754" locked="0" /><polyline points="4222.65 3501.07 4231.38 3509.8 4231.38 3529.1" stroke-width="1.0236"  stroke-linecap="round" fill="none" layerid="2" net="K5_1" id="gge17744" locked="0" /><polyline points="4425 3408 4425 3548" stroke-width="5.9055"  stroke-linecap="round" fill="none" layerid="2" net="GND" id="gge17743" locked="0" /><polyline points="4035 3408 4035 3548" stroke-width="5.9055"  stroke-linecap="round" fill="none" layerid="2" net="GND" id="gge17741" locked="0" /></g><g transform="matrix(-1, 0, 0, 1, 8460, 0)"><g c_partid="part_pcbtext" c_etype="pinpart" c_origin="4352,3415.5" c_rotation="0" c_mirror="1" id="gge18106" locked="0" layerid="4" c_shapetype="group" ><path c_fontsize="8" c_fontfamily="" c_text="Keg Washer Pi (HiCurrent Relay) Rev. 1.10" d="M 4352 3407.43 L 4352 3415.06 M 4346.91 3407.43 L 4352 3412.52 M 4350.18 3410.7 L 4346.91 3415.06 M 4344.51 3412.15 L 4340.15 3412.15 L 4340.15 3411.43 L 4340.51 3410.7 L 4340.87 3410.34 L 4341.6 3409.97 L 4342.69 3409.97 L 4343.42 3410.34 L 4344.15 3411.06 L 4344.51 3412.15 L 4344.51 3412.88 L 4344.15 3413.97 L 4343.42 3414.7 L 4342.69 3415.06 L 4341.6 3415.06 L 4340.87 3414.7 L 4340.15 3413.97 M 4333.38 3409.97 L 4333.38 3415.79 L 4333.75 3416.88 L 4334.11 3417.25 L 4334.84 3417.61 L 4335.93 3417.61 L 4336.65 3417.25 M 4333.38 3411.06 L 4334.11 3410.34 L 4334.84 3409.97 L 4335.93 3409.97 L 4336.65 3410.34 L 4337.38 3411.06 L 4337.75 3412.15 L 4337.75 3412.88 L 4337.38 3413.97 L 4336.65 3414.7 L 4335.93 3415.06 L 4334.84 3415.06 L 4334.11 3414.7 L 4333.38 3413.97 M 4325.38 3407.43 L 4323.56 3415.06 M 4321.75 3407.43 L 4323.56 3415.06 M 4321.75 3407.43 L 4319.93 3415.06 M 4318.11 3407.43 L 4319.93 3415.06 M 4311.35 3409.97 L 4311.35 3415.06 M 4311.35 3411.06 L 4312.07 3410.34 L 4312.8 3409.97 L 4313.89 3409.97 L 4314.62 3410.34 L 4315.35 3411.06 L 4315.71 3412.15 L 4315.71 3412.88 L 4315.35 3413.97 L 4314.62 3414.7 L 4313.89 3415.06 L 4312.8 3415.06 L 4312.07 3414.7 L 4311.35 3413.97 M 4304.95 3411.06 L 4305.31 3410.34 L 4306.4 3409.97 L 4307.49 3409.97 L 4308.58 3410.34 L 4308.95 3411.06 L 4308.58 3411.79 L 4307.85 3412.15 L 4306.04 3412.52 L 4305.31 3412.88 L 4304.95 3413.61 L 4304.95 3413.97 L 4305.31 3414.7 L 4306.4 3415.06 L 4307.49 3415.06 L 4308.58 3414.7 L 4308.95 3413.97 M 4302.55 3407.43 L 4302.55 3415.06 M 4302.55 3411.43 L 4301.45 3410.34 L 4300.73 3409.97 L 4299.64 3409.97 L 4298.91 3410.34 L 4298.55 3411.43 L 4298.55 3415.06 M 4296.15 3412.15 L 4291.78 3412.15 L 4291.78 3411.43 L 4292.15 3410.7 L 4292.51 3410.34 L 4293.24 3409.97 L 4294.33 3409.97 L 4295.05 3410.34 L 4295.78 3411.06 L 4296.15 3412.15 L 4296.15 3412.88 L 4295.78 3413.97 L 4295.05 3414.7 L 4294.33 3415.06 L 4293.24 3415.06 L 4292.51 3414.7 L 4291.78 3413.97 M 4289.38 3409.97 L 4289.38 3415.06 M 4289.38 3412.15 L 4289.02 3411.06 L 4288.29 3410.34 L 4287.56 3409.97 L 4286.47 3409.97 M 4278.47 3407.43 L 4278.47 3415.06 M 4278.47 3407.43 L 4275.2 3407.43 L 4274.11 3407.79 L 4273.75 3408.15 L 4273.38 3408.88 L 4273.38 3409.97 L 4273.75 3410.7 L 4274.11 3411.06 L 4275.2 3411.43 L 4278.47 3411.43 M 4270.98 3407.43 L 4270.62 3407.79 L 4270.25 3407.43 L 4270.62 3407.06 L 4270.98 3407.43 M 4270.62 3409.97 L 4270.62 3415.06 M 4259.71 3405.97 L 4260.44 3406.7 L 4261.16 3407.79 L 4261.89 3409.25 L 4262.25 3411.06 L 4262.25 3412.52 L 4261.89 3414.34 L 4261.16 3415.79 L 4260.44 3416.88 L 4259.71 3417.61 M 4257.31 3407.43 L 4257.31 3415.06 M 4252.22 3407.43 L 4252.22 3415.06 M 4257.31 3411.06 L 4252.22 3411.06 M 4249.82 3407.43 L 4249.45 3407.79 L 4249.09 3407.43 L 4249.45 3407.06 L 4249.82 3407.43 M 4249.45 3409.97 L 4249.45 3415.06 M 4241.24 3409.25 L 4241.6 3408.52 L 4242.33 3407.79 L 4243.05 3407.43 L 4244.51 3407.43 L 4245.24 3407.79 L 4245.96 3408.52 L 4246.33 3409.25 L 4246.69 3410.34 L 4246.69 3412.15 L 4246.33 3413.25 L 4245.96 3413.97 L 4245.24 3414.7 L 4244.51 3415.06 L 4243.05 3415.06 L 4242.33 3414.7 L 4241.6 3413.97 L 4241.24 3413.25 M 4238.84 3409.97 L 4238.84 3413.61 L 4238.47 3414.7 L 4237.75 3415.06 L 4236.65 3415.06 L 4235.93 3414.7 L 4234.84 3413.61 M 4234.84 3409.97 L 4234.84 3415.06 M 4232.44 3409.97 L 4232.44 3415.06 M 4232.44 3412.15 L 4232.07 3411.06 L 4231.35 3410.34 L 4230.62 3409.97 L 4229.53 3409.97 M 4227.13 3409.97 L 4227.13 3415.06 M 4227.13 3412.15 L 4226.76 3411.06 L 4226.04 3410.34 L 4225.31 3409.97 L 4224.22 3409.97 M 4221.82 3412.15 L 4217.45 3412.15 L 4217.45 3411.43 L 4217.82 3410.7 L 4218.18 3410.34 L 4218.91 3409.97 L 4220 3409.97 L 4220.73 3410.34 L 4221.45 3411.06 L 4221.82 3412.15 L 4221.82 3412.88 L 4221.45 3413.97 L 4220.73 3414.7 L 4220 3415.06 L 4218.91 3415.06 L 4218.18 3414.7 L 4217.45 3413.97 M 4215.05 3409.97 L 4215.05 3415.06 M 4215.05 3411.43 L 4213.96 3410.34 L 4213.24 3409.97 L 4212.15 3409.97 L 4211.42 3410.34 L 4211.05 3411.43 L 4211.05 3415.06 M 4207.56 3407.43 L 4207.56 3413.61 L 4207.2 3414.7 L 4206.47 3415.06 L 4205.75 3415.06 M 4208.65 3409.97 L 4206.11 3409.97 M 4197.75 3407.43 L 4197.75 3415.06 M 4197.75 3407.43 L 4194.47 3407.43 L 4193.38 3407.79 L 4193.02 3408.15 L 4192.65 3408.88 L 4192.65 3409.61 L 4193.02 3410.34 L 4193.38 3410.7 L 4194.47 3411.06 L 4197.75 3411.06 M 4195.2 3411.06 L 4192.65 3415.06 M 4190.25 3412.15 L 4185.89 3412.15 L 4185.89 3411.43 L 4186.25 3410.7 L 4186.62 3410.34 L 4187.35 3409.97 L 4188.44 3409.97 L 4189.16 3410.34 L 4189.89 3411.06 L 4190.25 3412.15 L 4190.25 3412.88 L 4189.89 3413.97 L 4189.16 3414.7 L 4188.44 3415.06 L 4187.35 3415.06 L 4186.62 3414.7 L 4185.89 3413.97 M 4183.49 3407.43 L 4183.49 3415.06 M 4176.73 3409.97 L 4176.73 3415.06 M 4176.73 3411.06 L 4177.45 3410.34 L 4178.18 3409.97 L 4179.27 3409.97 L 4180 3410.34 L 4180.73 3411.06 L 4181.09 3412.15 L 4181.09 3412.88 L 4180.73 3413.97 L 4180 3414.7 L 4179.27 3415.06 L 4178.18 3415.06 L 4177.45 3414.7 L 4176.73 3413.97 M 4173.96 3409.97 L 4171.78 3415.06 M 4169.6 3409.97 L 4171.78 3415.06 L 4172.51 3416.52 L 4173.24 3417.25 L 4173.96 3417.61 L 4174.33 3417.61 M 4167.2 3405.97 L 4166.47 3406.7 L 4165.75 3407.79 L 4165.02 3409.25 L 4164.65 3411.06 L 4164.65 3412.52 L 4165.02 3414.34 L 4165.75 3415.79 L 4166.47 3416.88 L 4167.2 3417.61 M 4156.65 3407.43 L 4156.65 3415.06 M 4156.65 3407.43 L 4153.38 3407.43 L 4152.29 3407.79 L 4151.93 3408.15 L 4151.56 3408.88 L 4151.56 3409.61 L 4151.93 3410.34 L 4152.29 3410.7 L 4153.38 3411.06 L 4156.65 3411.06 M 4154.11 3411.06 L 4151.56 3415.06 M 4149.16 3412.15 L 4144.8 3412.15 L 4144.8 3411.43 L 4145.16 3410.7 L 4145.53 3410.34 L 4146.25 3409.97 L 4147.35 3409.97 L 4148.07 3410.34 L 4148.8 3411.06 L 4149.16 3412.15 L 4149.16 3412.88 L 4148.8 3413.97 L 4148.07 3414.7 L 4147.35 3415.06 L 4146.25 3415.06 L 4145.53 3414.7 L 4144.8 3413.97 M 4142.4 3409.97 L 4140.22 3415.06 M 4138.04 3409.97 L 4140.22 3415.06 M 4135.27 3413.25 L 4135.64 3413.61 L 4135.27 3413.97 L 4134.91 3413.61 L 4135.27 3413.25 M 4126.91 3408.88 L 4126.18 3408.52 L 4125.09 3407.43 L 4125.09 3415.06 M 4122.33 3413.25 L 4122.69 3413.61 L 4122.33 3413.97 L 4121.96 3413.61 L 4122.33 3413.25 M 4119.56 3408.88 L 4118.84 3408.52 L 4117.75 3407.43 L 4117.75 3415.06 M 4113.16 3407.43 L 4114.25 3407.79 L 4114.98 3408.88 L 4115.35 3410.7 L 4115.35 3411.79 L 4114.98 3413.61 L 4114.25 3414.7 L 4113.16 3415.06 L 4112.44 3415.06 L 4111.35 3414.7 L 4110.62 3413.61 L 4110.25 3411.79 L 4110.25 3410.7 L 4110.62 3408.88 L 4111.35 3407.79 L 4112.44 3407.43 L 4113.16 3407.43" fill="none"  stroke-width="0.7992"  /></g><g c_partid="part_pcbtext" c_etype="pinpart" c_origin="4343,3434" c_rotation="0" c_mirror="1" id="gge18112" locked="0" layerid="4" c_shapetype="group" ><path c_fontsize="8" c_fontfamily="NotoSerifCJKsc-Medium" c_text="© 2021 - Kyle Hultman &lt;khultman@gmail.com&gt;" d="M 4339.47 3432.43 C 4339.65 3432.5 4339.84 3432.53 4339.98 3432.53 C 4340.68 3432.53 4341.16 3432 4341.16 3431.05 C 4341.16 3430.07 4340.64 3429.55 4339.97 3429.55 C 4339.83 3429.55 4339.67 3429.58 4339.51 3429.64 L 4339.38 3430.34 L 4339.04 3430.34 L 4339.06 3429.5 C 4339.39 3429.31 4339.66 3429.26 4340.05 3429.26 C 4341.03 3429.26 4341.76 3430 4341.76 3431.05 C 4341.76 3432.1 4341.07 3432.83 4340.05 3432.83 C 4339.67 3432.83 4339.33 3432.76 4339.01 3432.59 L 4338.99 3431.75 L 4339.34 3431.75 Z  M 4340.19 3433.82 C 4341.68 3433.82 4342.84 3432.77 4342.84 3431.05 C 4342.84 3429.35 4341.68 3428.31 4340.19 3428.31 C 4338.7 3428.31 4337.54 3429.36 4337.54 3431.05 C 4337.54 3432.74 4338.7 3433.82 4340.19 3433.82 Z  M 4340.19 3428 C 4341.88 3428 4343.24 3429.14 4343.24 3431.05 C 4343.24 3432.96 4341.88 3434.13 4340.19 3434.13 C 4338.51 3434.13 4337.15 3432.96 4337.15 3431.05 C 4337.15 3429.14 4338.51 3428 4340.19 3428 Z  M 4333.84 3433.32 C 4333.44 3432.9 4333.04 3432.5 4332.81 3432.26 C 4331.5 3430.89 4331.05 3430.33 4331.05 3429.57 C 4331.05 3428.66 4331.56 3428.02 4332.68 3428.02 C 4333.56 3428.02 4334.32 3428.46 4334.44 3429.34 C 4334.36 3429.5 4334.2 3429.61 4334.02 3429.61 C 4333.8 3429.61 4333.64 3429.46 4333.54 3429.06 L 4333.36 3428.42 C 4333.18 3428.38 4333.02 3428.36 4332.89 3428.36 C 4332.24 3428.36 4331.82 3428.86 4331.82 3429.61 C 4331.82 3430.31 4332.22 3430.98 4333.08 3431.95 C 4333.46 3432.39 4333.92 3432.92 4334.4 3433.46 L 4334.4 3434 L 4330.8 3434 L 4330.8 3433.32 Z  M 4329.31 3431.02 C 4329.31 3428.92 4328.8 3428.37 4328.24 3428.37 C 4327.7 3428.37 4327.2 3428.92 4327.2 3431.02 C 4327.2 3433.2 4327.7 3433.78 4328.24 3433.78 C 4328.8 3433.78 4329.31 3433.21 4329.31 3431.02 Z  M 4328.24 3428.02 C 4329.18 3428.02 4330.08 3428.83 4330.08 3431.02 C 4330.08 3433.29 4329.18 3434.11 4328.24 3434.11 C 4327.32 3434.11 4326.41 3433.29 4326.41 3431.02 C 4326.41 3428.83 4327.32 3428.02 4328.24 3428.02 Z  M 4325.06 3433.32 C 4324.65 3432.9 4324.26 3432.5 4324.03 3432.26 C 4322.72 3430.89 4322.27 3430.33 4322.27 3429.57 C 4322.27 3428.66 4322.77 3428.02 4323.9 3428.02 C 4324.77 3428.02 4325.54 3428.46 4325.66 3429.34 C 4325.57 3429.5 4325.42 3429.61 4325.24 3429.61 C 4325.01 3429.61 4324.86 3429.46 4324.76 3429.06 L 4324.58 3428.42 C 4324.4 3428.38 4324.24 3428.36 4324.11 3428.36 C 4323.45 3428.36 4323.04 3428.86 4323.04 3429.61 C 4323.04 3430.31 4323.44 3430.98 4324.29 3431.95 C 4324.68 3432.39 4325.14 3432.92 4325.62 3433.46 L 4325.62 3434 L 4322.02 3434 L 4322.02 3433.32 Z  M 4319 3433.55 C 4319.01 3433.09 4319.02 3432.62 4319.02 3432.15 L 4319.02 3429.4 L 4318.99 3428.14 L 4319.11 3428.05 L 4320.91 3428.52 L 4320.91 3428.82 L 4319.74 3428.71 L 4319.74 3432.15 C 4319.74 3432.62 4319.75 3433.09 4319.76 3433.55 L 4321 3433.73 L 4321 3434 L 4317.77 3434 L 4317.77 3433.73 Z  M 4314.87 3432.06 L 4312.83 3432.06 L 4312.83 3431.54 L 4314.87 3431.54 Z  M 4305.27 3433.62 L 4307.08 3430.35 L 4305.6 3428.54 L 4304.76 3428.44 L 4304.76 3428.14 L 4306.77 3428.14 L 4306.77 3428.44 L 4306.08 3428.56 L 4308.43 3431.46 L 4308.43 3430.86 C 4308.43 3430.07 4308.43 3429.29 4308.41 3428.53 L 4307.58 3428.44 L 4307.58 3428.14 L 4310.04 3428.14 L 4310.04 3428.44 L 4309.22 3428.53 C 4309.2 3429.3 4309.2 3430.07 4309.2 3430.86 L 4309.2 3431.29 C 4309.2 3432.07 4309.2 3432.84 4309.22 3433.61 L 4310.04 3433.7 L 4310.04 3434 L 4307.59 3434 L 4307.59 3433.7 L 4308.41 3433.6 C 4308.43 3433.02 4308.43 3432.46 4308.43 3431.97 L 4307.56 3430.92 L 4306.11 3433.61 L 4306.84 3433.7 L 4306.84 3434 L 4304.59 3434 L 4304.59 3433.7 Z  M 4300.52 3429.85 L 4302.21 3429.85 L 4302.21 3430.12 L 4301.42 3430.21 L 4302.52 3433.32 L 4303.68 3430.2 L 4302.92 3430.12 L 4302.92 3429.85 L 4305 3429.85 L 4305 3430.12 L 4304.5 3430.18 L 4302.87 3434.26 L 4302.91 3434.35 C 4303.11 3434.88 4303.36 3435.35 4303.76 3435.66 L 4303.82 3435.59 C 4304.05 3435.38 4304.21 3435.27 4304.46 3435.27 C 4304.72 3435.27 4304.96 3435.38 4305.02 3435.63 C 4305.02 3435.96 4304.65 3436.18 4304.24 3436.18 C 4303.6 3436.18 4303.04 3435.59 4302.48 3434.09 L 4301 3430.2 L 4300.52 3430.12 Z  M 4299.03 3433.63 C 4299.04 3433.15 4299.04 3432.64 4299.04 3432.16 L 4299.04 3428.83 L 4299 3427.58 L 4299.12 3427.52 L 4300.48 3427.89 L 4300.48 3428.15 L 4299.76 3428.22 L 4299.76 3432.16 C 4299.76 3432.64 4299.77 3433.15 4299.78 3433.63 L 4300.48 3433.73 L 4300.48 3434 L 4298.32 3434 L 4298.32 3433.73 Z  M 4296.92 3431.55 C 4296.83 3430.51 4296.26 3430.06 4295.72 3430.06 C 4295.16 3430.06 4294.76 3430.54 4294.76 3431.08 C 4294.76 3431.37 4294.84 3431.57 4295.23 3431.57 Z  M 4294.11 3431.89 C 4294.07 3431.77 4294.04 3431.6 4294.04 3431.4 C 4294.04 3430.37 4294.74 3429.73 4295.68 3429.73 C 4296.76 3429.73 4297.69 3430.6 4297.69 3431.95 C 4297.69 3433.32 4296.89 3434.11 4295.72 3434.11 C 4294.94 3434.11 4294.38 3433.73 4294.06 3433.11 L 4294.24 3432.99 C 4294.55 3433.37 4294.89 3433.62 4295.47 3433.62 C 4296.32 3433.62 4296.91 3433.04 4296.92 3431.88 Z  M 4285.08 3428.44 L 4285.08 3428.14 L 4287.53 3428.14 L 4287.53 3428.44 L 4286.72 3428.53 C 4286.71 3429.29 4286.71 3430.06 4286.71 3430.82 L 4289.56 3430.82 C 4289.56 3430.05 4289.56 3429.28 4289.55 3428.53 L 4288.74 3428.44 L 4288.74 3428.14 L 4291.2 3428.14 L 4291.2 3428.44 L 4290.38 3428.53 C 4290.36 3429.3 4290.36 3430.07 4290.36 3430.86 L 4290.36 3431.29 C 4290.36 3432.07 4290.36 3432.84 4290.38 3433.61 L 4291.2 3433.7 L 4291.2 3434 L 4288.74 3434 L 4288.74 3433.7 L 4289.55 3433.61 C 4289.56 3432.85 4289.56 3432.06 4289.56 3431.17 L 4286.71 3431.17 C 4286.71 3432.08 4286.71 3432.86 4286.72 3433.61 L 4287.53 3433.7 L 4287.53 3434 L 4285.08 3434 L 4285.08 3433.7 L 4285.89 3433.61 C 4285.91 3432.83 4285.91 3432.06 4285.91 3431.29 L 4285.91 3430.86 C 4285.91 3430.07 4285.91 3429.29 4285.89 3428.53 Z  M 4280.65 3433.64 L 4280.65 3431.11 L 4280.63 3429.87 L 4280.71 3429.78 L 4281.97 3429.92 L 4281.97 3430.18 L 4281.35 3430.3 L 4281.37 3432.97 C 4281.76 3433.35 4282.17 3433.54 4282.6 3433.54 C 4283.08 3433.54 4283.32 3433.27 4283.32 3432.49 L 4283.32 3431.11 L 4283.28 3429.87 L 4283.37 3429.78 L 4284.66 3429.91 L 4284.66 3430.17 L 4284.03 3430.3 L 4284.05 3432.53 C 4284.06 3433.7 4283.62 3434.11 4282.91 3434.11 C 4282.36 3434.11 4281.8 3433.83 4281.35 3433.28 L 4281.27 3434.07 L 4280.05 3434 L 4280.05 3433.74 Z  M 4278.05 3433.63 C 4278.06 3433.15 4278.07 3432.64 4278.07 3432.16 L 4278.07 3428.83 L 4278.03 3427.58 L 4278.15 3427.52 L 4279.5 3427.89 L 4279.5 3428.15 L 4278.79 3428.22 L 4278.79 3432.16 C 4278.79 3432.64 4278.8 3433.15 4278.8 3433.63 L 4279.5 3433.73 L 4279.5 3434 L 4277.35 3434 L 4277.35 3433.73 Z  M 4274.45 3433.46 C 4274.68 3433.63 4274.84 3433.71 4275.05 3433.71 C 4275.36 3433.71 4275.56 3433.52 4275.56 3433.06 L 4275.56 3430.23 L 4274.37 3430.23 L 4274.37 3429.85 L 4275.55 3429.85 L 4275.5 3428.64 L 4276 3428.64 L 4276.24 3429.82 L 4277.02 3429.92 L 4277.02 3430.23 L 4276.28 3430.23 L 4276.28 3432.36 C 4276.28 3432.69 4276.28 3432.88 4276.28 3433.09 C 4276.28 3433.79 4275.92 3434.11 4275.29 3434.11 C 4274.84 3434.11 4274.5 3433.94 4274.28 3433.66 Z  M 4267.23 3433.63 C 4267.24 3433.19 4267.24 3432.58 4267.24 3432.16 L 4267.24 3431.25 C 4267.24 3430.17 4267.65 3429.73 4268.36 3429.73 C 4268.92 3429.73 4269.48 3429.99 4269.95 3430.55 C 4270.1 3429.98 4270.44 3429.73 4270.99 3429.73 C 4271.52 3429.73 4272.08 3430.04 4272.52 3430.53 L 4272.59 3429.82 L 4272.71 3429.74 L 4273.94 3430.22 L 4273.94 3430.48 L 4273.24 3430.55 C 4273.22 3430.9 4273.22 3431.21 4273.22 3431.7 L 4273.22 3432.16 C 4273.22 3432.57 4273.23 3433.18 4273.24 3433.63 L 4273.88 3433.73 L 4273.88 3434 L 4271.87 3434 L 4271.87 3433.73 L 4272.48 3433.63 C 4272.48 3433.18 4272.49 3432.57 4272.49 3432.16 L 4272.49 3430.86 C 4272.04 3430.46 4271.7 3430.29 4271.3 3430.29 C 4270.8 3430.29 4270.58 3430.55 4270.58 3431.35 L 4270.58 3432.16 C 4270.58 3432.58 4270.59 3433.19 4270.6 3433.63 L 4271.26 3433.73 L 4271.26 3434 L 4269.24 3434 L 4269.24 3433.73 L 4269.84 3433.63 C 4269.86 3433.19 4269.87 3432.58 4269.87 3432.16 L 4269.87 3431.32 C 4269.87 3431.15 4269.88 3431.01 4269.89 3430.87 C 4269.43 3430.45 4269.06 3430.29 4268.69 3430.29 C 4268.19 3430.29 4267.96 3430.52 4267.96 3431.34 L 4267.96 3432.16 C 4267.96 3432.58 4267.96 3433.19 4267.97 3433.63 L 4268.62 3433.73 L 4268.62 3434 L 4266.61 3434 L 4266.61 3433.73 Z  M 4263.49 3433.09 C 4263.98 3433.47 4264.18 3433.6 4264.49 3433.6 C 4264.9 3433.6 4265.2 3433.39 4265.2 3432.92 C 4265.2 3432.6 4265.07 3432.26 4264.3 3431.96 C 4264.11 3431.89 4263.8 3431.78 4263.49 3431.7 Z  M 4262.1 3433.48 C 4262.21 3433.62 4262.31 3433.7 4262.45 3433.7 C 4262.65 3433.7 4262.77 3433.55 4262.77 3433.14 L 4262.77 3431.23 C 4262.77 3430.14 4263.21 3429.73 4264.13 3429.73 C 4265.04 3429.73 4265.68 3430.14 4265.83 3430.81 C 4265.8 3431.02 4265.68 3431.14 4265.44 3431.14 C 4265.21 3431.14 4265.07 3431.01 4265 3430.74 L 4264.83 3430.14 C 4264.64 3430.09 4264.48 3430.06 4264.33 3430.06 C 4263.74 3430.06 4263.49 3430.29 4263.49 3431.15 L 4263.49 3431.42 C 4263.84 3431.5 4264.22 3431.61 4264.5 3431.71 C 4265.64 3432.12 4265.95 3432.5 4265.95 3433.04 C 4265.95 3433.74 4265.43 3434.11 4264.79 3434.11 C 4264.26 3434.11 4263.96 3433.88 4263.48 3433.41 C 4263.4 3433.83 4263.12 3434.1 4262.69 3434.1 C 4262.39 3434.1 4262.14 3433.98 4261.94 3433.65 Z  M 4257.48 3433.63 C 4257.49 3433.19 4257.5 3432.58 4257.5 3432.16 L 4257.5 3431.32 C 4257.5 3430.19 4257.88 3429.73 4258.62 3429.73 C 4259.16 3429.73 4259.75 3430.04 4260.2 3430.54 L 4260.27 3429.82 L 4260.39 3429.74 L 4261.62 3430.22 L 4261.62 3430.48 L 4260.92 3430.55 C 4260.91 3430.9 4260.9 3431.21 4260.9 3431.7 L 4260.9 3432.16 C 4260.9 3432.57 4260.91 3433.18 4260.92 3433.63 L 4261.56 3433.73 L 4261.56 3434 L 4259.55 3434 L 4259.55 3433.73 L 4260.16 3433.63 C 4260.16 3433.18 4260.17 3432.57 4260.17 3432.16 L 4260.17 3430.86 C 4259.72 3430.45 4259.34 3430.28 4258.95 3430.28 C 4258.44 3430.28 4258.22 3430.55 4258.22 3431.34 L 4258.22 3432.16 C 4258.22 3432.58 4258.23 3433.19 4258.24 3433.63 L 4258.88 3433.73 L 4258.88 3434 L 4256.87 3434 L 4256.87 3433.73 Z  M 4250.42 3429.34 L 4250.64 3428.96 L 4254.06 3430.94 L 4254.06 3431.27 L 4250.64 3433.26 L 4250.42 3432.88 L 4253.56 3431.1 Z  M 4245.67 3433.65 L 4247.15 3431.26 L 4246.14 3430.25 L 4245.32 3430.14 L 4245.32 3429.85 L 4247.34 3429.85 L 4247.34 3430.14 L 4246.65 3430.28 L 4248.24 3431.91 L 4248.24 3428.83 L 4248.2 3427.58 L 4248.32 3427.52 L 4249.67 3427.89 L 4249.67 3428.15 L 4248.96 3428.22 L 4248.96 3432.16 C 4248.96 3432.63 4248.96 3433.15 4248.97 3433.63 L 4249.66 3433.73 L 4249.66 3434 L 4247.53 3434 L 4247.53 3433.73 L 4248.22 3433.63 C 4248.23 3433.22 4248.24 3432.78 4248.24 3432.36 L 4247.65 3431.77 L 4246.29 3434 L 4245.1 3434 L 4245.1 3433.73 Z  M 4240.7 3433.63 C 4240.71 3433.19 4240.72 3432.58 4240.72 3432.16 L 4240.72 3431.33 C 4240.72 3430.18 4241.1 3429.73 4241.84 3429.73 C 4242.41 3429.73 4243 3430.06 4243.44 3430.55 L 4243.44 3428.83 L 4243.42 3427.58 L 4243.53 3427.52 L 4244.86 3427.89 L 4244.86 3428.15 L 4244.15 3428.22 L 4244.15 3432.16 C 4244.15 3432.57 4244.16 3433.18 4244.16 3433.63 L 4244.82 3433.73 L 4244.82 3434 L 4242.8 3434 L 4242.8 3433.73 L 4243.41 3433.63 C 4243.42 3433.18 4243.43 3432.57 4243.43 3432.16 L 4243.43 3430.86 C 4242.95 3430.42 4242.57 3430.28 4242.17 3430.28 C 4241.68 3430.28 4241.44 3430.54 4241.44 3431.34 L 4241.44 3432.16 C 4241.44 3432.58 4241.44 3433.19 4241.45 3433.63 L 4242.11 3433.73 L 4242.11 3434 L 4240.09 3434 L 4240.09 3433.73 Z  M 4235.62 3433.64 L 4235.62 3431.11 L 4235.6 3429.87 L 4235.68 3429.78 L 4236.94 3429.92 L 4236.94 3430.18 L 4236.32 3430.3 L 4236.34 3432.97 C 4236.72 3433.35 4237.14 3433.54 4237.56 3433.54 C 4238.04 3433.54 4238.29 3433.27 4238.29 3432.49 L 4238.29 3431.11 L 4238.25 3429.87 L 4238.34 3429.78 L 4239.63 3429.91 L 4239.63 3430.17 L 4239 3430.3 L 4239.02 3432.53 C 4239.03 3433.7 4238.59 3434.11 4237.88 3434.11 C 4237.32 3434.11 4236.76 3433.83 4236.32 3433.28 L 4236.24 3434.07 L 4235.02 3434 L 4235.02 3433.74 Z  M 4233.02 3433.63 C 4233.03 3433.15 4233.04 3432.64 4233.04 3432.16 L 4233.04 3428.83 L 4233 3427.58 L 4233.12 3427.52 L 4234.47 3427.89 L 4234.47 3428.15 L 4233.76 3428.22 L 4233.76 3432.16 C 4233.76 3432.64 4233.76 3433.15 4233.77 3433.63 L 4234.47 3433.73 L 4234.47 3434 L 4232.32 3434 L 4232.32 3433.73 Z  M 4229.42 3433.46 C 4229.65 3433.63 4229.81 3433.71 4230.02 3433.71 C 4230.33 3433.71 4230.52 3433.52 4230.52 3433.06 L 4230.52 3430.23 L 4229.34 3430.23 L 4229.34 3429.85 L 4230.52 3429.85 L 4230.47 3428.64 L 4230.97 3428.64 L 4231.2 3429.82 L 4231.99 3429.92 L 4231.99 3430.23 L 4231.24 3430.23 L 4231.24 3432.36 C 4231.24 3432.69 4231.25 3432.88 4231.25 3433.09 C 4231.25 3433.79 4230.88 3434.11 4230.26 3434.11 C 4229.81 3434.11 4229.47 3433.94 4229.24 3433.66 Z  M 4222.2 3433.63 C 4222.2 3433.19 4222.21 3432.58 4222.21 3432.16 L 4222.21 3431.25 C 4222.21 3430.17 4222.62 3429.73 4223.33 3429.73 C 4223.89 3429.73 4224.45 3429.99 4224.92 3430.55 C 4225.07 3429.98 4225.41 3429.73 4225.96 3429.73 C 4226.49 3429.73 4227.05 3430.04 4227.48 3430.53 L 4227.56 3429.82 L 4227.68 3429.74 L 4228.91 3430.22 L 4228.91 3430.48 L 4228.21 3430.55 C 4228.19 3430.9 4228.19 3431.21 4228.19 3431.7 L 4228.19 3432.16 C 4228.19 3432.57 4228.2 3433.18 4228.2 3433.63 L 4228.85 3433.73 L 4228.85 3434 L 4226.84 3434 L 4226.84 3433.73 L 4227.44 3433.63 C 4227.45 3433.18 4227.46 3432.57 4227.46 3432.16 L 4227.46 3430.86 C 4227.01 3430.46 4226.67 3430.29 4226.27 3430.29 C 4225.77 3430.29 4225.55 3430.55 4225.55 3431.35 L 4225.55 3432.16 C 4225.55 3432.58 4225.56 3433.19 4225.56 3433.63 L 4226.23 3433.73 L 4226.23 3434 L 4224.21 3434 L 4224.21 3433.73 L 4224.81 3433.63 C 4224.83 3433.19 4224.84 3432.58 4224.84 3432.16 L 4224.84 3431.32 C 4224.84 3431.15 4224.84 3431.01 4224.86 3430.87 C 4224.4 3430.45 4224.03 3430.29 4223.66 3430.29 C 4223.16 3430.29 4222.92 3430.52 4222.92 3431.34 L 4222.92 3432.16 C 4222.92 3432.58 4222.93 3433.19 4222.94 3433.63 L 4223.59 3433.73 L 4223.59 3434 L 4221.58 3434 L 4221.58 3433.73 Z  M 4218.46 3433.09 C 4218.95 3433.47 4219.15 3433.6 4219.46 3433.6 C 4219.87 3433.6 4220.17 3433.39 4220.17 3432.92 C 4220.17 3432.6 4220.04 3432.26 4219.27 3431.96 C 4219.08 3431.89 4218.77 3431.78 4218.46 3431.7 Z  M 4217.07 3433.48 C 4217.18 3433.62 4217.28 3433.7 4217.42 3433.7 C 4217.62 3433.7 4217.74 3433.55 4217.74 3433.14 L 4217.74 3431.23 C 4217.74 3430.14 4218.18 3429.73 4219.1 3429.73 C 4220 3429.73 4220.64 3430.14 4220.8 3430.81 C 4220.77 3431.02 4220.64 3431.14 4220.4 3431.14 C 4220.18 3431.14 4220.04 3431.01 4219.96 3430.74 L 4219.8 3430.14 C 4219.61 3430.09 4219.45 3430.06 4219.3 3430.06 C 4218.71 3430.06 4218.46 3430.29 4218.46 3431.15 L 4218.46 3431.42 C 4218.81 3431.5 4219.19 3431.61 4219.47 3431.71 C 4220.61 3432.12 4220.92 3432.5 4220.92 3433.04 C 4220.92 3433.74 4220.4 3434.11 4219.76 3434.11 C 4219.23 3434.11 4218.92 3433.88 4218.44 3433.41 C 4218.37 3433.83 4218.09 3434.1 4217.66 3434.1 C 4217.36 3434.1 4217.11 3433.98 4216.91 3433.65 Z  M 4212.45 3433.63 C 4212.46 3433.19 4212.47 3432.58 4212.47 3432.16 L 4212.47 3431.32 C 4212.47 3430.19 4212.84 3429.73 4213.59 3429.73 C 4214.13 3429.73 4214.72 3430.04 4215.16 3430.54 L 4215.24 3429.82 L 4215.36 3429.74 L 4216.59 3430.22 L 4216.59 3430.48 L 4215.89 3430.55 C 4215.88 3430.9 4215.87 3431.21 4215.87 3431.7 L 4215.87 3432.16 C 4215.87 3432.57 4215.88 3433.18 4215.88 3433.63 L 4216.53 3433.73 L 4216.53 3434 L 4214.52 3434 L 4214.52 3433.73 L 4215.12 3433.63 C 4215.13 3433.18 4215.14 3432.57 4215.14 3432.16 L 4215.14 3430.86 C 4214.68 3430.45 4214.31 3430.28 4213.92 3430.28 C 4213.4 3430.28 4213.19 3430.55 4213.19 3431.34 L 4213.19 3432.16 C 4213.19 3432.58 4213.2 3433.19 4213.2 3433.63 L 4213.85 3433.73 L 4213.85 3434 L 4211.84 3434 L 4211.84 3433.73 Z  M 4207.43 3432.69 C 4207.84 3433.04 4208.08 3433.15 4208.33 3433.15 C 4208.73 3433.15 4208.94 3432.86 4208.94 3432.29 C 4208.94 3431.66 4208.72 3431.15 4208.44 3430.77 C 4208.16 3430.38 4207.82 3430.23 4207.55 3430.23 C 4207.36 3430.23 4207.18 3430.31 4207.02 3430.53 Z  M 4206.32 3429.98 L 4206.46 3429.87 L 4206.93 3430.11 C 4207.12 3429.94 4207.29 3429.87 4207.51 3429.87 C 4207.96 3429.87 4208.43 3430.14 4208.81 3430.61 C 4209.21 3431.08 4209.53 3431.74 4209.53 3432.46 C 4209.53 3433.28 4209.08 3433.62 4208.6 3433.62 C 4208.15 3433.62 4207.75 3433.33 4207.39 3432.91 C 4207.32 3433.31 4207.01 3433.62 4206.49 3433.62 C 4205.72 3433.62 4204.56 3432.87 4204.56 3431.14 C 4204.56 3429.49 4205.62 3428.32 4207.4 3428.32 C 4209.6 3428.32 4211.26 3430.04 4211.26 3432.22 C 4211.26 3434.3 4209.84 3435.36 4208.09 3435.36 C 4207.54 3435.36 4206.93 3435.24 4206.41 3434.98 L 4206.5 3434.77 C 4206.92 3434.96 4207.36 3435.07 4207.95 3435.07 C 4209.48 3435.07 4210.83 3434.1 4210.83 3432.14 C 4210.83 3430.3 4209.44 3428.62 4207.44 3428.62 C 4206.04 3428.62 4204.97 3429.56 4204.97 3431.06 C 4204.97 3432.59 4205.74 3433.27 4206.36 3433.27 C 4206.76 3433.27 4206.92 3433.02 4206.83 3432.54 Z  M 4202.24 3432.31 C 4202.79 3432.31 4203.12 3431.86 4203.12 3431.17 C 4203.12 3430.5 4202.77 3430.03 4202.21 3430.03 C 4201.66 3430.03 4201.34 3430.49 4201.34 3431.14 C 4201.34 3431.82 4201.68 3432.31 4202.24 3432.31 Z  M 4201.53 3434.12 C 4200.9 3434.12 4200.67 3434.43 4200.67 3434.82 C 4200.67 3435.34 4201.19 3435.74 4202.19 3435.74 C 4202.88 3435.74 4203.33 3435.48 4203.33 3434.9 C 4203.33 3434.59 4203.23 3434.36 4202.97 3434.1 C 4202.85 3434.11 4202.72 3434.12 4202.54 3434.12 Z  M 4199.99 3429.82 L 4200.12 3429.74 L 4201.12 3430.07 C 4201.39 3429.84 4201.77 3429.73 4202.22 3429.73 C 4203.14 3429.73 4203.8 3430.25 4203.8 3431.16 C 4203.8 3431.75 4203.55 3432.17 4203.13 3432.4 C 4203.57 3432.81 4203.73 3433.09 4203.73 3433.37 C 4203.73 3433.71 4203.52 3433.94 4203.16 3434.05 C 4203.78 3434.34 4204.01 3434.64 4204.01 3435.02 C 4204.01 3435.65 4203.46 3436.1 4202.19 3436.1 C 4200.76 3436.1 4200.03 3435.35 4200.03 3434.59 C 4200.03 3433.9 4200.48 3433.48 4201.44 3433.48 L 4202.6 3433.48 C 4203.04 3433.48 4203.16 3433.33 4203.16 3433.07 C 4203.16 3432.86 4203.08 3432.7 4202.92 3432.5 C 4202.71 3432.57 4202.48 3432.61 4202.22 3432.61 C 4201.31 3432.61 4200.64 3432.08 4200.64 3431.16 C 4200.64 3430.82 4200.73 3430.54 4200.88 3430.32 L 4199.99 3430.34 Z  M 4192.78 3433.63 C 4192.79 3433.19 4192.8 3432.58 4192.8 3432.16 L 4192.8 3431.25 C 4192.8 3430.17 4193.2 3429.73 4193.92 3429.73 C 4194.48 3429.73 4195.04 3429.99 4195.5 3430.55 C 4195.65 3429.98 4196 3429.73 4196.54 3429.73 C 4197.08 3429.73 4197.64 3430.04 4198.07 3430.53 L 4198.14 3429.82 L 4198.26 3429.74 L 4199.49 3430.22 L 4199.49 3430.48 L 4198.8 3430.55 C 4198.77 3430.9 4198.77 3431.21 4198.77 3431.7 L 4198.77 3432.16 C 4198.77 3432.57 4198.78 3433.18 4198.79 3433.63 L 4199.44 3433.73 L 4199.44 3434 L 4197.42 3434 L 4197.42 3433.73 L 4198.03 3433.63 C 4198.04 3433.18 4198.04 3432.57 4198.04 3432.16 L 4198.04 3430.86 C 4197.6 3430.46 4197.25 3430.29 4196.85 3430.29 C 4196.36 3430.29 4196.13 3430.55 4196.13 3431.35 L 4196.13 3432.16 C 4196.13 3432.58 4196.14 3433.19 4196.15 3433.63 L 4196.81 3433.73 L 4196.81 3434 L 4194.8 3434 L 4194.8 3433.73 L 4195.4 3433.63 C 4195.41 3433.19 4195.42 3432.58 4195.42 3432.16 L 4195.42 3431.32 C 4195.42 3431.15 4195.43 3431.01 4195.44 3430.87 C 4194.98 3430.45 4194.61 3430.29 4194.24 3430.29 C 4193.74 3430.29 4193.51 3430.52 4193.51 3431.34 L 4193.51 3432.16 C 4193.51 3432.58 4193.52 3433.19 4193.52 3433.63 L 4194.17 3433.73 L 4194.17 3434 L 4192.16 3434 L 4192.16 3433.73 Z  M 4189.04 3433.09 C 4189.53 3433.47 4189.73 3433.6 4190.04 3433.6 C 4190.45 3433.6 4190.76 3433.39 4190.76 3432.92 C 4190.76 3432.6 4190.62 3432.26 4189.85 3431.96 C 4189.66 3431.89 4189.36 3431.78 4189.04 3431.7 Z  M 4187.65 3433.48 C 4187.76 3433.62 4187.86 3433.7 4188 3433.7 C 4188.2 3433.7 4188.32 3433.55 4188.32 3433.14 L 4188.32 3431.23 C 4188.32 3430.14 4188.76 3429.73 4189.68 3429.73 C 4190.59 3429.73 4191.23 3430.14 4191.38 3430.81 C 4191.36 3431.02 4191.23 3431.14 4190.99 3431.14 C 4190.76 3431.14 4190.62 3431.01 4190.55 3430.74 L 4190.38 3430.14 C 4190.2 3430.09 4190.04 3430.06 4189.88 3430.06 C 4189.29 3430.06 4189.04 3430.29 4189.04 3431.15 L 4189.04 3431.42 C 4189.4 3431.5 4189.77 3431.61 4190.05 3431.71 C 4191.2 3432.12 4191.5 3432.5 4191.5 3433.04 C 4191.5 3433.74 4190.98 3434.11 4190.34 3434.11 C 4189.81 3434.11 4189.51 3433.88 4189.03 3433.41 C 4188.96 3433.83 4188.68 3434.1 4188.24 3434.1 C 4187.94 3434.1 4187.69 3433.98 4187.49 3433.65 Z  M 4186.09 3428.73 C 4185.79 3428.73 4185.53 3428.5 4185.53 3428.18 C 4185.53 3427.86 4185.79 3427.65 4186.09 3427.65 C 4186.41 3427.65 4186.66 3427.86 4186.66 3428.18 C 4186.66 3428.5 4186.41 3428.73 4186.09 3428.73 Z  M 4185.71 3433.63 C 4185.72 3433.18 4185.72 3432.57 4185.72 3432.16 L 4185.72 3430.98 L 4185.71 3429.82 L 4185.83 3429.74 L 4187.17 3430.21 L 4187.17 3430.47 L 4186.46 3430.54 C 4186.44 3430.92 4186.44 3431.21 4186.44 3431.7 L 4186.44 3432.16 C 4186.44 3432.57 4186.44 3433.18 4186.45 3433.63 L 4187.12 3433.73 L 4187.12 3434 L 4185.11 3434 L 4185.11 3433.73 Z  M 4183.12 3433.63 C 4183.12 3433.15 4183.13 3432.64 4183.13 3432.16 L 4183.13 3428.83 L 4183.09 3427.58 L 4183.21 3427.52 L 4184.56 3427.89 L 4184.56 3428.15 L 4183.85 3428.22 L 4183.85 3432.16 C 4183.85 3432.64 4183.86 3433.15 4183.87 3433.63 L 4184.56 3433.73 L 4184.56 3434 L 4182.41 3434 L 4182.41 3433.73 Z  M 4180.86 3434.11 C 4180.52 3434.11 4180.26 3433.84 4180.26 3433.53 C 4180.26 3433.19 4180.52 3432.92 4180.86 3432.92 C 4181.19 3432.92 4181.45 3433.19 4181.45 3433.53 C 4181.45 3433.84 4181.19 3434.11 4180.86 3434.11 Z  M 4176 3432.96 C 4176.28 3433.38 4176.72 3433.62 4177.22 3433.62 C 4178.06 3433.62 4178.67 3432.98 4178.67 3431.86 C 4178.67 3430.72 4178.12 3430.06 4177.32 3430.06 C 4177.19 3430.06 4177.02 3430.09 4176.85 3430.14 L 4176.68 3430.76 C 4176.64 3431.01 4176.5 3431.17 4176.22 3431.17 C 4176.01 3431.17 4175.88 3431.06 4175.84 3430.85 C 4175.96 3430.2 4176.6 3429.73 4177.37 3429.73 C 4178.44 3429.73 4179.42 3430.55 4179.42 3431.94 C 4179.42 3433.27 4178.63 3434.11 4177.44 3434.11 C 4176.63 3434.11 4176.08 3433.72 4175.82 3433.04 Z  M 4173.11 3434.11 C 4172.08 3434.11 4171.09 3433.38 4171.09 3431.94 C 4171.09 3430.48 4172.09 3429.73 4173.11 3429.73 C 4174.13 3429.73 4175.12 3430.49 4175.12 3431.94 C 4175.12 3433.38 4174.14 3434.11 4173.11 3434.11 Z  M 4173.11 3433.78 C 4173.88 3433.78 4174.32 3433.14 4174.32 3431.94 C 4174.32 3430.72 4173.88 3430.06 4173.11 3430.06 C 4172.35 3430.06 4171.9 3430.72 4171.9 3431.94 C 4171.9 3433.14 4172.35 3433.78 4173.11 3433.78 Z  M 4163.69 3433.63 C 4163.7 3433.19 4163.71 3432.58 4163.71 3432.16 L 4163.71 3431.25 C 4163.71 3430.17 4164.12 3429.73 4164.83 3429.73 C 4165.39 3429.73 4165.95 3429.99 4166.41 3430.55 C 4166.56 3429.98 4166.91 3429.73 4167.45 3429.73 C 4167.99 3429.73 4168.55 3430.04 4168.98 3430.53 L 4169.05 3429.82 L 4169.17 3429.74 L 4170.4 3430.22 L 4170.4 3430.48 L 4169.71 3430.55 C 4169.68 3430.9 4169.68 3431.21 4169.68 3431.7 L 4169.68 3432.16 C 4169.68 3432.57 4169.69 3433.18 4169.7 3433.63 L 4170.35 3433.73 L 4170.35 3434 L 4168.33 3434 L 4168.33 3433.73 L 4168.94 3433.63 C 4168.95 3433.18 4168.96 3432.57 4168.96 3432.16 L 4168.96 3430.86 C 4168.51 3430.46 4168.16 3430.29 4167.76 3430.29 C 4167.27 3430.29 4167.04 3430.55 4167.04 3431.35 L 4167.04 3432.16 C 4167.04 3432.58 4167.05 3433.19 4167.06 3433.63 L 4167.72 3433.73 L 4167.72 3434 L 4165.71 3434 L 4165.71 3433.73 L 4166.31 3433.63 C 4166.32 3433.19 4166.33 3432.58 4166.33 3432.16 L 4166.33 3431.32 C 4166.33 3431.15 4166.34 3431.01 4166.36 3430.87 C 4165.89 3430.45 4165.52 3430.29 4165.16 3430.29 C 4164.65 3430.29 4164.42 3430.52 4164.42 3431.34 L 4164.42 3432.16 C 4164.42 3432.58 4164.43 3433.19 4164.44 3433.63 L 4165.08 3433.73 L 4165.08 3434 L 4163.08 3434 L 4163.08 3433.73 Z  M 4162.08 3428.96 L 4162.29 3429.34 L 4159.16 3431.1 L 4162.29 3432.88 L 4162.08 3433.26 L 4158.66 3431.27 L 4158.66 3430.94 Z "  stroke="none" stroke-width="0.8"  /></g></g><g transform="matrix(-1, 0, 0, 1, 8460, 0)"><g c_partid="part_pad" c_etype="pinpart" c_origin="4035,3408" layerid="11" number="1" net="GND" plated ="Y"  id="gge2301" locked="0" c_rotation="0" c_width="16.5" c_height="16.5" title="GND" c_shape="ELLIPSE" pasteexpansion="0" solderexpansion="1"><ellipse c_etype="pad_shell" cx="4035" cy="3408" rx="8.25" ry="8.25" layerid="11" stroke-width="0"/><circle c_etype="pad_hole" cx="4035" cy="3408" r="8.25" layerid="11" stroke-width="0"/></g><g c_partid="part_pad" c_etype="pinpart" c_origin="4035,3548" layerid="11" number="1" net="GND" plated ="Y"  id="gge3805" locked="0" c_rotation="0" c_width="16.5" c_height="16.5" title="GND" c_shape="ELLIPSE" pasteexpansion="0" solderexpansion="1"><ellipse c_etype="pad_shell" cx="4035" cy="3548" rx="8.25" ry="8.25" layerid="11" stroke-width="0"/><circle c_etype="pad_hole" cx="4035" cy="3548" r="8.25" layerid="11" stroke-width="0"/></g><g c_partid="part_pad" c_etype="pinpart" c_origin="4425,3548" layerid="11" number="1" net="GND" plated ="Y"  id="gge3821" locked="0" c_rotation="0" c_width="16.5" c_height="16.5" title="GND" c_shape="ELLIPSE" pasteexpansion="0" solderexpansion="1"><ellipse c_etype="pad_shell" cx="4425" cy="3548" rx="8.25" ry="8.25" layerid="11" stroke-width="0"/><circle c_etype="pad_hole" cx="4425" cy="3548" r="8.25" layerid="11" stroke-width="0"/></g><g c_partid="part_pad" c_etype="pinpart" c_origin="4425,3408" layerid="11" number="1" net="GND" plated ="Y"  id="gge3822" locked="0" c_rotation="0" c_width="16.5" c_height="16.5" title="GND" c_shape="ELLIPSE" pasteexpansion="0" solderexpansion="1"><ellipse c_etype="pad_shell" cx="4425" cy="3408" rx="8.25" ry="8.25" layerid="11" stroke-width="0"/><circle c_etype="pad_hole" cx="4425" cy="3408" r="8.25" layerid="11" stroke-width="0"/></g><g c_partid="part_pad" c_etype="pinpart" c_origin="4046,3497.5" layerid="11" number="6" net="RPI-GND" plated ="Y"  id="gge9" locked="0" c_rotation="270" c_width="7" c_height="7" title="RPI-GND" c_shape="ELLIPSE" pasteexpansion="0" solderexpansion="0.4"><ellipse c_etype="pad_shell" cx="4046" cy="3497.5" rx="3.5" ry="3.5" layerid="11" stroke-width="0"/><circle c_etype="pad_hole" cx="4046" cy="3497.5" r="2" layerid="11" stroke-width="0"/></g><g c_partid="part_pad" c_etype="pinpart" c_origin="4046,3487.5" layerid="11" number="5" net="LED4_1" plated ="Y"  id="gge14" locked="0" c_rotation="270" c_width="7" c_height="7" title="LED4_1" c_shape="ELLIPSE" pasteexpansion="0" solderexpansion="0.4"><ellipse c_etype="pad_shell" cx="4046" cy="3487.5" rx="3.5" ry="3.5" layerid="11" stroke-width="0"/><circle c_etype="pad_hole" cx="4046" cy="3487.5" r="2" layerid="11" stroke-width="0"/></g><g c_partid="part_pad" c_etype="pinpart" c_origin="4046,3477.5" layerid="11" number="4" net="LED3_1" plated ="Y"  id="gge19" locked="0" c_rotation="270" c_width="7" c_height="7" title="LED3_1" c_shape="ELLIPSE" pasteexpansion="0" solderexpansion="0.4"><ellipse c_etype="pad_shell" cx="4046" cy="3477.5" rx="3.5" ry="3.5" layerid="11" stroke-width="0"/><circle c_etype="pad_hole" cx="4046" cy="3477.5" r="2" layerid="11" stroke-width="0"/></g><g c_partid="part_pad" c_etype="pinpart" c_origin="4046,3467.5" layerid="11" number="3" net="LED2_1" plated ="Y"  id="gge24" locked="0" c_rotation="270" c_width="7" c_height="7" title="LED2_1" c_shape="ELLIPSE" pasteexpansion="0" solderexpansion="0.4"><ellipse c_etype="pad_shell" cx="4046" cy="3467.5" rx="3.5" ry="3.5" layerid="11" stroke-width="0"/><circle c_etype="pad_hole" cx="4046" cy="3467.5" r="2" layerid="11" stroke-width="0"/></g><g c_partid="part_pad" c_etype="pinpart" c_origin="4046,3457.5" layerid="11" number="2" net="LED1_1" plated ="Y"  id="gge29" locked="0" c_rotation="270" c_width="7" c_height="7" title="LED1_1" c_shape="ELLIPSE" pasteexpansion="0" solderexpansion="0.4"><ellipse c_etype="pad_shell" cx="4046" cy="3457.5" rx="3.5" ry="3.5" layerid="11" stroke-width="0"/><circle c_etype="pad_hole" cx="4046" cy="3457.5" r="2" layerid="11" stroke-width="0"/></g><g c_partid="part_pad" c_etype="pinpart" c_origin="4046,3447.5" layerid="11" number="1" net="+5V-SNC" plated ="Y"  id="gge34" locked="0" c_rotation="270" c_width="7" c_height="7" title="+5V-SNC" c_shape="RECT" pasteexpansion="0" solderexpansion="0.4"><polygon  c_etype="pad_shell" points="4049.5 3444 4049.5 3451 4042.5 3451 4042.5 3444" layerid="11" stroke-width="0" /><circle c_etype="pad_hole" cx="4046" cy="3447.5" r="2" layerid="11" stroke-width="0"/></g><g c_partid="part_pad" c_etype="pinpart" c_origin="4075.5,3410.52" layerid="11" number="1" net="12V+PRERELAY" plated ="Y"  id="gge46" locked="0" c_rotation="0" c_width="6" c_height="6" title="12V+PRERELAY" c_shape="ELLIPSE" pasteexpansion="0" solderexpansion="0.4"><ellipse c_etype="pad_shell" cx="4075.5" cy="3410.52" rx="3" ry="3" layerid="11" stroke-width="0"/><circle c_etype="pad_hole" cx="4075.5" cy="3410.5197" r="1.8" layerid="11" stroke-width="0"/></g><g c_partid="part_pad" c_etype="pinpart" c_origin="4085.5,3410.52" layerid="11" number="2" net="12V+PRERELAY" plated ="Y"  id="gge51" locked="0" c_rotation="0" c_width="6" c_height="6" title="12V+PRERELAY" c_shape="ELLIPSE" pasteexpansion="0" solderexpansion="0.4"><ellipse c_etype="pad_shell" cx="4085.5" cy="3410.52" rx="3" ry="3" layerid="11" stroke-width="0"/><circle c_etype="pad_hole" cx="4085.5" cy="3410.5197" r="1.8" layerid="11" stroke-width="0"/></g><g c_partid="part_pad" c_etype="pinpart" c_origin="4095.5,3410.52" layerid="11" number="3" net="12VGND" plated ="Y"  id="gge56" locked="0" c_rotation="0" c_width="6" c_height="6" title="12VGND" c_shape="ELLIPSE" pasteexpansion="0" solderexpansion="0.4"><ellipse c_etype="pad_shell" cx="4095.5" cy="3410.52" rx="3" ry="3" layerid="11" stroke-width="0"/><circle c_etype="pad_hole" cx="4095.5" cy="3410.5197" r="1.8" layerid="11" stroke-width="0"/></g><g c_partid="part_pad" c_etype="pinpart" c_origin="4105.5,3410.52" layerid="11" number="4" net="12VGND" plated ="Y"  id="gge61" locked="0" c_rotation="0" c_width="6" c_height="6" title="12VGND" c_shape="ELLIPSE" pasteexpansion="0" solderexpansion="0.4"><ellipse c_etype="pad_shell" cx="4105.5" cy="3410.52" rx="3" ry="3" layerid="11" stroke-width="0"/><circle c_etype="pad_hole" cx="4105.5" cy="3410.5197" r="1.8" layerid="11" stroke-width="0"/></g><g c_partid="part_pad" c_etype="pinpart" c_origin="4403.079,3413.551" layerid="11" number="1" net="SOLENOID_1+" plated ="Y"  id="gge73" locked="0" c_rotation="0" c_width="7" c_height="7" title="SOLENOID_1+" c_shape="RECT" pasteexpansion="0" solderexpansion="0.4"><polygon  c_etype="pad_shell" points="4399.5787 3410.0512 4406.5787 3410.0512 4406.5787 3417.0512 4399.5787 3417.0512" layerid="11" stroke-width="0" /><circle c_etype="pad_hole" cx="4403.0787" cy="3413.5512" r="2" layerid="11" stroke-width="0"/></g><g c_partid="part_pad" c_etype="pinpart" c_origin="4403.079,3403.551" layerid="11" number="2" net="SOLENOID_1-" plated ="Y"  id="gge78" locked="0" c_rotation="0" c_width="7" c_height="7" title="SOLENOID_1-" c_shape="ELLIPSE" pasteexpansion="0" solderexpansion="0.4"><ellipse c_etype="pad_shell" cx="4403.079" cy="3403.551" rx="3.5" ry="3.5" layerid="11" stroke-width="0"/><circle c_etype="pad_hole" cx="4403.0787" cy="3403.5512" r="2" layerid="11" stroke-width="0"/></g><g c_partid="part_pad" c_etype="pinpart" c_origin="4403.079,3452.921" layerid="11" number="1" net="SOLENOID_2+" plated ="Y"  id="gge90" locked="0" c_rotation="0" c_width="7" c_height="7" title="SOLENOID_2+" c_shape="RECT" pasteexpansion="0" solderexpansion="0.4"><polygon  c_etype="pad_shell" points="4399.5787 3449.4213 4406.5787 3449.4213 4406.5787 3456.4213 4399.5787 3456.4213" layerid="11" stroke-width="0" /><circle c_etype="pad_hole" cx="4403.0787" cy="3452.9213" r="2" layerid="11" stroke-width="0"/></g><g c_partid="part_pad" c_etype="pinpart" c_origin="4403.079,3442.921" layerid="11" number="2" net="SOLENOID_2-" plated ="Y"  id="gge95" locked="0" c_rotation="0" c_width="7" c_height="7" title="SOLENOID_2-" c_shape="ELLIPSE" pasteexpansion="0" solderexpansion="0.4"><ellipse c_etype="pad_shell" cx="4403.079" cy="3442.921" rx="3.5" ry="3.5" layerid="11" stroke-width="0"/><circle c_etype="pad_hole" cx="4403.0787" cy="3442.9213" r="2" layerid="11" stroke-width="0"/></g><g c_partid="part_pad" c_etype="pinpart" c_origin="4403.079,3492.291" layerid="11" number="1" net="SOLENOID_3+" plated ="Y"  id="gge107" locked="0" c_rotation="0" c_width="7" c_height="7" title="SOLENOID_3+" c_shape="RECT" pasteexpansion="0" solderexpansion="0.4"><polygon  c_etype="pad_shell" points="4399.5787 3488.7913 4406.5787 3488.7913 4406.5787 3495.7913 4399.5787 3495.7913" layerid="11" stroke-width="0" /><circle c_etype="pad_hole" cx="4403.0787" cy="3492.2913" r="2" layerid="11" stroke-width="0"/></g><g c_partid="part_pad" c_etype="pinpart" c_origin="4403.079,3482.291" layerid="11" number="2" net="SOLENOID_3-" plated ="Y"  id="gge112" locked="0" c_rotation="0" c_width="7" c_height="7" title="SOLENOID_3-" c_shape="ELLIPSE" pasteexpansion="0" solderexpansion="0.4"><ellipse c_etype="pad_shell" cx="4403.079" cy="3482.291" rx="3.5" ry="3.5" layerid="11" stroke-width="0"/><circle c_etype="pad_hole" cx="4403.0787" cy="3482.2913" r="2" layerid="11" stroke-width="0"/></g><g c_partid="part_pad" c_etype="pinpart" c_origin="4403.079,3531.661" layerid="11" number="1" net="SOLENOID_4+" plated ="Y"  id="gge124" locked="0" c_rotation="0" c_width="7" c_height="7" title="SOLENOID_4+" c_shape="RECT" pasteexpansion="0" solderexpansion="0.4"><polygon  c_etype="pad_shell" points="4399.5787 3528.1614 4406.5787 3528.1614 4406.5787 3535.1614 4399.5787 3535.1614" layerid="11" stroke-width="0" /><circle c_etype="pad_hole" cx="4403.0787" cy="3531.6614" r="2" layerid="11" stroke-width="0"/></g><g c_partid="part_pad" c_etype="pinpart" c_origin="4403.079,3521.661" layerid="11" number="2" net="SOLENOID_4-" plated ="Y"  id="gge129" locked="0" c_rotation="0" c_width="7" c_height="7" title="SOLENOID_4-" c_shape="ELLIPSE" pasteexpansion="0" solderexpansion="0.4"><ellipse c_etype="pad_shell" cx="4403.079" cy="3521.661" rx="3.5" ry="3.5" layerid="11" stroke-width="0"/><circle c_etype="pad_hole" cx="4403.0787" cy="3521.6614" r="2" layerid="11" stroke-width="0"/></g><g c_partid="part_pad" c_etype="pinpart" c_origin="4137.843,3422.331" layerid="11" number="3" net="12V+PRERELAY" plated ="Y"  id="gge788" locked="0" c_rotation="0" c_width="9.0551" c_height="9.0551" title="12V+PRERELAY" c_shape="ELLIPSE" pasteexpansion="0" solderexpansion="0.2"><ellipse c_etype="pad_shell" cx="4137.843" cy="3422.331" rx="4.52755" ry="4.52755" layerid="11" stroke-width="0"/><circle c_etype="pad_hole" cx="4137.8428" cy="3422.3307" r="2.9528" layerid="11" stroke-width="0"/></g><g c_partid="part_pad" c_etype="pinpart" c_origin="4147.843,3442.016" layerid="11" number="1" net="RPI-GND" plated ="Y"  id="gge793" locked="0" c_rotation="0" c_width="9.0551" c_height="9.0551" title="RPI-GND" c_shape="ELLIPSE" pasteexpansion="0" solderexpansion="0.2"><ellipse c_etype="pad_shell" cx="4147.843" cy="3442.016" rx="4.52755" ry="4.52755" layerid="11" stroke-width="0"/><circle c_etype="pad_hole" cx="4147.8428" cy="3442.0157" r="2.9528" layerid="11" stroke-width="0"/></g><g c_partid="part_pad" c_etype="pinpart" c_origin="4188,3442.016" layerid="11" number="4" net="12V+" plated ="Y"  id="gge798" locked="0" c_rotation="0" c_width="9.0551" c_height="9.0551" title="12V+" c_shape="ELLIPSE" pasteexpansion="0" solderexpansion="0.2"><ellipse c_etype="pad_shell" cx="4188" cy="3442.016" rx="4.52755" ry="4.52755" layerid="11" stroke-width="0"/><circle c_etype="pad_hole" cx="4187.9998" cy="3442.0157" r="2.9528" layerid="11" stroke-width="0"/></g><g c_partid="part_pad" c_etype="pinpart" c_origin="4147.843,3402.646" layerid="11" number="2" net="+5V-SNC" plated ="Y"  id="gge803" locked="0" c_rotation="0" c_width="9.0551" c_height="9.0551" title="+5V-SNC" c_shape="ELLIPSE" pasteexpansion="0" solderexpansion="0.2"><ellipse c_etype="pad_shell" cx="4147.843" cy="3402.646" rx="4.52755" ry="4.52755" layerid="11" stroke-width="0"/><circle c_etype="pad_hole" cx="4147.8428" cy="3402.6457" r="2.9528" layerid="11" stroke-width="0"/></g><g c_partid="part_pad" c_etype="pinpart" c_origin="4212.646,3422.331" layerid="11" number="3" net="12V+" plated ="Y"  id="gge834" locked="0" c_rotation="0" c_width="9.0551" c_height="9.0551" title="12V+" c_shape="ELLIPSE" pasteexpansion="0" solderexpansion="0.2"><ellipse c_etype="pad_shell" cx="4212.646" cy="3422.331" rx="4.52755" ry="4.52755" layerid="11" stroke-width="0"/><circle c_etype="pad_hole" cx="4212.6459" cy="3422.3307" r="2.9528" layerid="11" stroke-width="0"/></g><g c_partid="part_pad" c_etype="pinpart" c_origin="4222.646,3442.016" layerid="11" number="1" net="K2_1" plated ="Y"  id="gge839" locked="0" c_rotation="0" c_width="9.0551" c_height="9.0551" title="K2_1" c_shape="ELLIPSE" pasteexpansion="0" solderexpansion="0.2"><ellipse c_etype="pad_shell" cx="4222.646" cy="3442.016" rx="4.52755" ry="4.52755" layerid="11" stroke-width="0"/><circle c_etype="pad_hole" cx="4222.6459" cy="3442.0157" r="2.9528" layerid="11" stroke-width="0"/></g><g c_partid="part_pad" c_etype="pinpart" c_origin="4262.803,3442.016" layerid="11" number="4" net="SOLENOID_1+" plated ="Y"  id="gge844" locked="0" c_rotation="0" c_width="9.0551" c_height="9.0551" title="SOLENOID_1+" c_shape="ELLIPSE" pasteexpansion="0" solderexpansion="0.2"><ellipse c_etype="pad_shell" cx="4262.803" cy="3442.016" rx="4.52755" ry="4.52755" layerid="11" stroke-width="0"/><circle c_etype="pad_hole" cx="4262.8029" cy="3442.0157" r="2.9528" layerid="11" stroke-width="0"/></g><g c_partid="part_pad" c_etype="pinpart" c_origin="4222.646,3402.646" layerid="11" number="2" net="5V+" plated ="Y"  id="gge849" locked="0" c_rotation="0" c_width="9.0551" c_height="9.0551" title="5V+" c_shape="ELLIPSE" pasteexpansion="0" solderexpansion="0.2"><ellipse c_etype="pad_shell" cx="4222.646" cy="3402.646" rx="4.52755" ry="4.52755" layerid="11" stroke-width="0"/><circle c_etype="pad_hole" cx="4222.6459" cy="3402.6457" r="2.9528" layerid="11" stroke-width="0"/></g><g c_partid="part_pad" c_etype="pinpart" c_origin="4287.449,3422.331" layerid="11" number="3" net="12V+" plated ="Y"  id="gge880" locked="0" c_rotation="0" c_width="9.0551" c_height="9.0551" title="12V+" c_shape="ELLIPSE" pasteexpansion="0" solderexpansion="0.2"><ellipse c_etype="pad_shell" cx="4287.449" cy="3422.331" rx="4.52755" ry="4.52755" layerid="11" stroke-width="0"/><circle c_etype="pad_hole" cx="4287.4491" cy="3422.3307" r="2.9528" layerid="11" stroke-width="0"/></g><g c_partid="part_pad" c_etype="pinpart" c_origin="4297.449,3442.016" layerid="11" number="1" net="K3_1" plated ="Y"  id="gge885" locked="0" c_rotation="0" c_width="9.0551" c_height="9.0551" title="K3_1" c_shape="ELLIPSE" pasteexpansion="0" solderexpansion="0.2"><ellipse c_etype="pad_shell" cx="4297.449" cy="3442.016" rx="4.52755" ry="4.52755" layerid="11" stroke-width="0"/><circle c_etype="pad_hole" cx="4297.4491" cy="3442.0157" r="2.9528" layerid="11" stroke-width="0"/></g><g c_partid="part_pad" c_etype="pinpart" c_origin="4337.606,3442.016" layerid="11" number="4" net="SOLENOID_2+" plated ="Y"  id="gge890" locked="0" c_rotation="0" c_width="9.0551" c_height="9.0551" title="SOLENOID_2+" c_shape="ELLIPSE" pasteexpansion="0" solderexpansion="0.2"><ellipse c_etype="pad_shell" cx="4337.606" cy="3442.016" rx="4.52755" ry="4.52755" layerid="11" stroke-width="0"/><circle c_etype="pad_hole" cx="4337.6061" cy="3442.0157" r="2.9528" layerid="11" stroke-width="0"/></g><g c_partid="part_pad" c_etype="pinpart" c_origin="4297.449,3402.646" layerid="11" number="2" net="5V+" plated ="Y"  id="gge895" locked="0" c_rotation="0" c_width="9.0551" c_height="9.0551" title="5V+" c_shape="ELLIPSE" pasteexpansion="0" solderexpansion="0.2"><ellipse c_etype="pad_shell" cx="4297.449" cy="3402.646" rx="4.52755" ry="4.52755" layerid="11" stroke-width="0"/><circle c_etype="pad_hole" cx="4297.4491" cy="3402.6457" r="2.9528" layerid="11" stroke-width="0"/></g><g c_partid="part_pad" c_etype="pinpart" c_origin="4287.449,3481.386" layerid="11" number="3" net="12V+" plated ="Y"  id="gge926" locked="0" c_rotation="0" c_width="9.0551" c_height="9.0551" title="12V+" c_shape="ELLIPSE" pasteexpansion="0" solderexpansion="0.2"><ellipse c_etype="pad_shell" cx="4287.449" cy="3481.386" rx="4.52755" ry="4.52755" layerid="11" stroke-width="0"/><circle c_etype="pad_hole" cx="4287.4491" cy="3481.3858" r="2.9528" layerid="11" stroke-width="0"/></g><g c_partid="part_pad" c_etype="pinpart" c_origin="4297.449,3501.071" layerid="11" number="1" net="K4_1" plated ="Y"  id="gge931" locked="0" c_rotation="0" c_width="9.0551" c_height="9.0551" title="K4_1" c_shape="ELLIPSE" pasteexpansion="0" solderexpansion="0.2"><ellipse c_etype="pad_shell" cx="4297.449" cy="3501.071" rx="4.52755" ry="4.52755" layerid="11" stroke-width="0"/><circle c_etype="pad_hole" cx="4297.4491" cy="3501.0708" r="2.9528" layerid="11" stroke-width="0"/></g><g c_partid="part_pad" c_etype="pinpart" c_origin="4337.606,3501.071" layerid="11" number="4" net="SOLENOID_3+" plated ="Y"  id="gge936" locked="0" c_rotation="0" c_width="9.0551" c_height="9.0551" title="SOLENOID_3+" c_shape="ELLIPSE" pasteexpansion="0" solderexpansion="0.2"><ellipse c_etype="pad_shell" cx="4337.606" cy="3501.071" rx="4.52755" ry="4.52755" layerid="11" stroke-width="0"/><circle c_etype="pad_hole" cx="4337.6061" cy="3501.0708" r="2.9528" layerid="11" stroke-width="0"/></g><g c_partid="part_pad" c_etype="pinpart" c_origin="4297.449,3461.701" layerid="11" number="2" net="5V+" plated ="Y"  id="gge941" locked="0" c_rotation="0" c_width="9.0551" c_height="9.0551" title="5V+" c_shape="ELLIPSE" pasteexpansion="0" solderexpansion="0.2"><ellipse c_etype="pad_shell" cx="4297.449" cy="3461.701" rx="4.52755" ry="4.52755" layerid="11" stroke-width="0"/><circle c_etype="pad_hole" cx="4297.4491" cy="3461.7008" r="2.9528" layerid="11" stroke-width="0"/></g><g c_partid="part_pad" c_etype="pinpart" c_origin="4212.646,3481.386" layerid="11" number="3" net="12V+" plated ="Y"  id="gge972" locked="0" c_rotation="0" c_width="9.0551" c_height="9.0551" title="12V+" c_shape="ELLIPSE" pasteexpansion="0" solderexpansion="0.2"><ellipse c_etype="pad_shell" cx="4212.646" cy="3481.386" rx="4.52755" ry="4.52755" layerid="11" stroke-width="0"/><circle c_etype="pad_hole" cx="4212.6459" cy="3481.3858" r="2.9528" layerid="11" stroke-width="0"/></g><g c_partid="part_pad" c_etype="pinpart" c_origin="4222.646,3501.071" layerid="11" number="1" net="K5_1" plated ="Y"  id="gge977" locked="0" c_rotation="0" c_width="9.0551" c_height="9.0551" title="K5_1" c_shape="ELLIPSE" pasteexpansion="0" solderexpansion="0.2"><ellipse c_etype="pad_shell" cx="4222.646" cy="3501.071" rx="4.52755" ry="4.52755" layerid="11" stroke-width="0"/><circle c_etype="pad_hole" cx="4222.6459" cy="3501.0708" r="2.9528" layerid="11" stroke-width="0"/></g><g c_partid="part_pad" c_etype="pinpart" c_origin="4262.803,3501.071" layerid="11" number="4" net="SOLENOID_4+" plated ="Y"  id="gge982" locked="0" c_rotation="0" c_width="9.0551" c_height="9.0551" title="SOLENOID_4+" c_shape="ELLIPSE" pasteexpansion="0" solderexpansion="0.2"><ellipse c_etype="pad_shell" cx="4262.803" cy="3501.071" rx="4.52755" ry="4.52755" layerid="11" stroke-width="0"/><circle c_etype="pad_hole" cx="4262.8029" cy="3501.0708" r="2.9528" layerid="11" stroke-width="0"/></g><g c_partid="part_pad" c_etype="pinpart" c_origin="4222.646,3461.701" layerid="11" number="2" net="5V+" plated ="Y"  id="gge987" locked="0" c_rotation="0" c_width="9.0551" c_height="9.0551" title="5V+" c_shape="ELLIPSE" pasteexpansion="0" solderexpansion="0.2"><ellipse c_etype="pad_shell" cx="4222.646" cy="3461.701" rx="4.52755" ry="4.52755" layerid="11" stroke-width="0"/><circle c_etype="pad_hole" cx="4222.6459" cy="3461.7008" r="2.9528" layerid="11" stroke-width="0"/></g><g c_partid="part_via" c_etype="pinpart" c_shapetype="group" net="LED15_1" c_origin="4355.37,3501.88" layerid="11" id="gge18079" locked="0" solderexpansion=""><circle cx="4355.37" cy="3501.88" r="1.2008" stroke-width="0" c_etype="pad_shell"/><circle cx="4355.37" cy="3501.88" r="0.6102"  stroke-width="0" c_etype="pad_hole"/></g><g c_partid="part_via" c_etype="pinpart" c_shapetype="group" net="LED15_1" c_origin="4386.41,3551.34" layerid="11" id="gge18078" locked="0" solderexpansion=""><circle cx="4386.41" cy="3551.34" r="1.2008" stroke-width="0" c_etype="pad_shell"/><circle cx="4386.41" cy="3551.34" r="0.6102"  stroke-width="0" c_etype="pad_hole"/></g><g c_partid="part_via" c_etype="pinpart" c_shapetype="group" net="LED8_2" c_origin="4228.87,3520.91" layerid="11" id="gge18032" locked="0" solderexpansion=""><circle cx="4228.87" cy="3520.91" r="1.2008" stroke-width="0" c_etype="pad_shell"/><circle cx="4228.87" cy="3520.91" r="0.6102"  stroke-width="0" c_etype="pad_hole"/></g><g c_partid="part_via" c_etype="pinpart" c_shapetype="group" net="LED8_2" c_origin="4225.4,3557.35" layerid="11" id="gge18031" locked="0" solderexpansion=""><circle cx="4225.4" cy="3557.35" r="1.2008" stroke-width="0" c_etype="pad_shell"/><circle cx="4225.4" cy="3557.35" r="0.6102"  stroke-width="0" c_etype="pad_hole"/></g><g c_partid="part_via" c_etype="pinpart" c_shapetype="group" net="U1_1" c_origin="4075.13,3500.1" layerid="11" id="gge17903" locked="0" solderexpansion=""><circle cx="4075.13" cy="3500.1" r="1.2008" stroke-width="0" c_etype="pad_shell"/><circle cx="4075.13" cy="3500.1" r="0.6102"  stroke-width="0" c_etype="pad_hole"/></g><g c_partid="part_via" c_etype="pinpart" c_shapetype="group" net="U1_1" c_origin="4084.71,3556.38" layerid="11" id="gge17902" locked="0" solderexpansion=""><circle cx="4084.71" cy="3556.38" r="1.2008" stroke-width="0" c_etype="pad_shell"/><circle cx="4084.71" cy="3556.38" r="0.6102"  stroke-width="0" c_etype="pad_hole"/></g><g c_partid="part_via" c_etype="pinpart" c_shapetype="group" net="LED6_2" c_origin="4181.46,3517.68" layerid="11" id="gge17897" locked="0" solderexpansion=""><circle cx="4181.46" cy="3517.68" r="1.2008" stroke-width="0" c_etype="pad_shell"/><circle cx="4181.46" cy="3517.68" r="0.6102"  stroke-width="0" c_etype="pad_hole"/></g><g c_partid="part_via" c_etype="pinpart" c_shapetype="group" net="LED6_2" c_origin="4185.52,3557.35" layerid="11" id="gge17896" locked="0" solderexpansion=""><circle cx="4185.52" cy="3557.35" r="1.2008" stroke-width="0" c_etype="pad_shell"/><circle cx="4185.52" cy="3557.35" r="0.6102"  stroke-width="0" c_etype="pad_hole"/></g><g c_partid="part_via" c_etype="pinpart" c_shapetype="group" net="LED3_1" c_origin="4111.04,3547.99" layerid="11" id="gge17890" locked="0" solderexpansion=""><circle cx="4111.04" cy="3547.99" r="1.2008" stroke-width="0" c_etype="pad_shell"/><circle cx="4111.04" cy="3547.99" r="0.6102"  stroke-width="0" c_etype="pad_hole"/></g><g c_partid="part_via" c_etype="pinpart" c_shapetype="group" net="LED2_1" c_origin="4098.5,3547.17" layerid="11" id="gge17886" locked="0" solderexpansion=""><circle cx="4098.5" cy="3547.17" r="1.2008" stroke-width="0" c_etype="pad_shell"/><circle cx="4098.5" cy="3547.17" r="0.6102"  stroke-width="0" c_etype="pad_hole"/></g><g c_partid="part_via" c_etype="pinpart" c_shapetype="group" net="LED1_1" c_origin="4072.7,3550.65" layerid="11" id="gge17883" locked="0" solderexpansion=""><circle cx="4072.7" cy="3550.65" r="1.2008" stroke-width="0" c_etype="pad_shell"/><circle cx="4072.7" cy="3550.65" r="0.6102"  stroke-width="0" c_etype="pad_hole"/></g><g c_partid="part_via" c_etype="pinpart" c_shapetype="group" net="K2_1" c_origin="4199.58,3437.33" layerid="11" id="gge17875" locked="0" solderexpansion=""><circle cx="4199.58" cy="3437.33" r="1.2008" stroke-width="0" c_etype="pad_shell"/><circle cx="4199.58" cy="3437.33" r="0.6102"  stroke-width="0" c_etype="pad_hole"/></g><g c_partid="part_via" c_etype="pinpart" c_shapetype="group" net="K2_1" c_origin="4212.43,3509.28" layerid="11" id="gge17874" locked="0" solderexpansion=""><circle cx="4212.43" cy="3509.28" r="1.2008" stroke-width="0" c_etype="pad_shell"/><circle cx="4212.43" cy="3509.28" r="0.6102"  stroke-width="0" c_etype="pad_hole"/></g><g c_partid="part_via" c_etype="pinpart" c_shapetype="group" net="K3_1" c_origin="4288.58,3518.01" layerid="11" id="gge17832" locked="0" solderexpansion=""><circle cx="4288.58" cy="3518.01" r="1.2008" stroke-width="0" c_etype="pad_shell"/><circle cx="4288.58" cy="3518.01" r="0.6102"  stroke-width="0" c_etype="pad_hole"/></g><g c_partid="part_via" c_etype="pinpart" c_shapetype="group" net="K3_1" c_origin="4231.7,3536.36" layerid="11" id="gge17831" locked="0" solderexpansion=""><circle cx="4231.7" cy="3536.36" r="1.2008" stroke-width="0" c_etype="pad_shell"/><circle cx="4231.7" cy="3536.36" r="0.6102"  stroke-width="0" c_etype="pad_hole"/></g><g c_partid="part_via" c_etype="pinpart" c_shapetype="group" net="K4_1" c_origin="4232.36,3532.24" layerid="11" id="gge17822" locked="0" solderexpansion=""><circle cx="4232.36" cy="3532.24" r="1.2008" stroke-width="0" c_etype="pad_shell"/><circle cx="4232.36" cy="3532.24" r="0.6102"  stroke-width="0" c_etype="pad_hole"/></g><g c_partid="part_via" c_etype="pinpart" c_shapetype="group" net="U3_3" c_origin="4110.02,3453.23" layerid="11" id="gge17815" locked="0" solderexpansion=""><circle cx="4110.02" cy="3453.23" r="1.2008" stroke-width="0" c_etype="pad_shell"/><circle cx="4110.02" cy="3453.23" r="0.6102"  stroke-width="0" c_etype="pad_hole"/></g><g c_partid="part_via" c_etype="pinpart" c_shapetype="group" net="U3_3" c_origin="4119.59,3524.93" layerid="11" id="gge17814" locked="0" solderexpansion=""><circle cx="4119.59" cy="3524.93" r="1.2008" stroke-width="0" c_etype="pad_shell"/><circle cx="4119.59" cy="3524.93" r="0.6102"  stroke-width="0" c_etype="pad_hole"/></g><g c_partid="part_via" c_etype="pinpart" c_shapetype="group" net="U2_3" c_origin="4071.86,3453.03" layerid="11" id="gge17809" locked="0" solderexpansion=""><circle cx="4071.86" cy="3453.03" r="1.2008" stroke-width="0" c_etype="pad_shell"/><circle cx="4071.86" cy="3453.03" r="0.6102"  stroke-width="0" c_etype="pad_hole"/></g><g c_partid="part_via" c_etype="pinpart" c_shapetype="group" net="U2_3" c_origin="4120.91,3528.08" layerid="11" id="gge17808" locked="0" solderexpansion=""><circle cx="4120.91" cy="3528.08" r="1.2008" stroke-width="0" c_etype="pad_shell"/><circle cx="4120.91" cy="3528.08" r="0.6102"  stroke-width="0" c_etype="pad_hole"/></g><g c_partid="part_via" c_etype="pinpart" c_shapetype="group" net="U2_1" c_origin="4100.04,3540.43" layerid="11" id="gge17804" locked="0" solderexpansion=""><circle cx="4100.04" cy="3540.43" r="1.2008" stroke-width="0" c_etype="pad_shell"/><circle cx="4100.04" cy="3540.43" r="0.6102"  stroke-width="0" c_etype="pad_hole"/></g><g c_partid="part_via" c_etype="pinpart" c_shapetype="group" net="U2_1" c_origin="4070.83,3461.96" layerid="11" id="gge17803" locked="0" solderexpansion=""><circle cx="4070.83" cy="3461.96" r="1.2008" stroke-width="0" c_etype="pad_shell"/><circle cx="4070.83" cy="3461.96" r="0.6102"  stroke-width="0" c_etype="pad_hole"/></g><g c_partid="part_via" c_etype="pinpart" c_shapetype="group" net="U3_1" c_origin="4122.08,3557.35" layerid="11" id="gge17798" locked="0" solderexpansion=""><circle cx="4122.08" cy="3557.35" r="1.2008" stroke-width="0" c_etype="pad_shell"/><circle cx="4122.08" cy="3557.35" r="0.6102"  stroke-width="0" c_etype="pad_hole"/></g><g c_partid="part_via" c_etype="pinpart" c_shapetype="group" net="U3_1" c_origin="4110.18,3457.44" layerid="11" id="gge17797" locked="0" solderexpansion=""><circle cx="4110.18" cy="3457.44" r="1.2008" stroke-width="0" c_etype="pad_shell"/><circle cx="4110.18" cy="3457.44" r="0.6102"  stroke-width="0" c_etype="pad_hole"/></g><g c_partid="part_via" c_etype="pinpart" c_shapetype="group" net="LED13_1" c_origin="4355.8,3445.55" layerid="11" id="gge17792" locked="0" solderexpansion=""><circle cx="4355.8" cy="3445.55" r="1.2008" stroke-width="0" c_etype="pad_shell"/><circle cx="4355.8" cy="3445.55" r="0.6102"  stroke-width="0" c_etype="pad_hole"/></g><g c_partid="part_via" c_etype="pinpart" c_shapetype="group" net="LED13_1" c_origin="4346.47,3550.46" layerid="11" id="gge17791" locked="0" solderexpansion=""><circle cx="4346.47" cy="3550.46" r="1.2008" stroke-width="0" c_etype="pad_shell"/><circle cx="4346.47" cy="3550.46" r="0.6102"  stroke-width="0" c_etype="pad_hole"/></g><g c_partid="part_via" c_etype="pinpart" c_shapetype="group" net="LED14_1" c_origin="4353.22,3464.39" layerid="11" id="gge17785" locked="0" solderexpansion=""><circle cx="4353.22" cy="3464.39" r="1.2008" stroke-width="0" c_etype="pad_shell"/><circle cx="4353.22" cy="3464.39" r="0.6102"  stroke-width="0" c_etype="pad_hole"/></g><g c_partid="part_via" c_etype="pinpart" c_shapetype="group" net="LED14_1" c_origin="4358.89,3549.4" layerid="11" id="gge17784" locked="0" solderexpansion=""><circle cx="4358.89" cy="3549.4" r="1.2008" stroke-width="0" c_etype="pad_shell"/><circle cx="4358.89" cy="3549.4" r="0.6102"  stroke-width="0" c_etype="pad_hole"/></g><g c_partid="part_via" c_etype="pinpart" c_shapetype="group" net="U4_3" c_origin="4117.94,3534.42" layerid="11" id="gge17778" locked="0" solderexpansion=""><circle cx="4117.94" cy="3534.42" r="1.2008" stroke-width="0" c_etype="pad_shell"/><circle cx="4117.94" cy="3534.42" r="0.6102"  stroke-width="0" c_etype="pad_hole"/></g><g c_partid="part_via" c_etype="pinpart" c_shapetype="group" net="U4_3" c_origin="4116.5,3481.79" layerid="11" id="gge17777" locked="0" solderexpansion=""><circle cx="4116.5" cy="3481.79" r="1.2008" stroke-width="0" c_etype="pad_shell"/><circle cx="4116.5" cy="3481.79" r="0.6102"  stroke-width="0" c_etype="pad_hole"/></g><g c_partid="part_via" c_etype="pinpart" c_shapetype="group" net="U1_3" c_origin="4088.33,3474.9" layerid="11" id="gge17772" locked="0" solderexpansion=""><circle cx="4088.33" cy="3474.9" r="1.2008" stroke-width="0" c_etype="pad_shell"/><circle cx="4088.33" cy="3474.9" r="0.6102"  stroke-width="0" c_etype="pad_hole"/></g><g c_partid="part_via" c_etype="pinpart" c_shapetype="group" net="U1_3" c_origin="4119.48,3531.62" layerid="11" id="gge17771" locked="0" solderexpansion=""><circle cx="4119.48" cy="3531.62" r="1.2008" stroke-width="0" c_etype="pad_shell"/><circle cx="4119.48" cy="3531.62" r="0.6102"  stroke-width="0" c_etype="pad_hole"/></g><g c_partid="part_via" c_etype="pinpart" c_shapetype="group" net="LED4_1" c_origin="4141.98,3551.23" layerid="11" id="gge17766" locked="0" solderexpansion=""><circle cx="4141.98" cy="3551.23" r="1.2008" stroke-width="0" c_etype="pad_shell"/><circle cx="4141.98" cy="3551.23" r="0.6102"  stroke-width="0" c_etype="pad_hole"/></g><g c_partid="part_via" c_etype="pinpart" c_shapetype="group" net="LED7_2" c_origin="4213,3522.53" layerid="11" id="gge17762" locked="0" solderexpansion=""><circle cx="4213" cy="3522.53" r="1.2008" stroke-width="0" c_etype="pad_shell"/><circle cx="4213" cy="3522.53" r="0.6102"  stroke-width="0" c_etype="pad_hole"/></g><g c_partid="part_via" c_etype="pinpart" c_shapetype="group" net="LED7_2" c_origin="4214.68,3556.7" layerid="11" id="gge17761" locked="0" solderexpansion=""><circle cx="4214.68" cy="3556.7" r="1.2008" stroke-width="0" c_etype="pad_shell"/><circle cx="4214.68" cy="3556.7" r="0.6102"  stroke-width="0" c_etype="pad_hole"/></g><g c_partid="part_via" c_etype="pinpart" c_shapetype="group" net="K5_1" c_origin="4231.38,3529.1" layerid="11" id="gge17752" locked="0" solderexpansion=""><circle cx="4231.38" cy="3529.1" r="1.2008" stroke-width="0" c_etype="pad_shell"/><circle cx="4231.38" cy="3529.1" r="0.6102"  stroke-width="0" c_etype="pad_hole"/></g></g><g transform="matrix(-1, 0, 0, 1, 8460, 0)"><polyline points="4020 3568 4020 3388 4440 3388 4440 3568 4020 3568" stroke-width="1"  stroke-linecap="round" fill="none" layerid="10" net="S$2295" id="gge2294" locked="0" /></g></svg>